<?xml version="1.0" standalone="no"?>
<!DOCTYPE svg PUBLIC "-//W3C//DTD SVG 1.1//EN" "http://www.w3.org/Graphics/SVG/1.1/DTD/svg11.dtd" >
<svg xmlns="http://www.w3.org/2000/svg" xmlns:xlink="http://www.w3.org/1999/xlink" version="1.1">
<metadata>
Created by FontForge 20170731 at Thu Oct  1 08:29:07 2020
 By Aleksey,,,
Copyright (c) 2020 by Tom Anders Watkins &#38; Ellen Luff. All rights reserved.
</metadata>
<defs>
<font id="Larken-Regular" horiz-adv-x="0" >
  <font-face 
    font-family="Larken-Regular"
    font-weight="400"
    font-stretch="normal"
    units-per-em="1000"
    panose-1="0 0 5 0 0 0 0 0 0 0"
    ascent="789"
    descent="-211"
    x-height="498"
    cap-height="720"
    bbox="-476 -270 1301 1014"
    underline-thickness="50"
    underline-position="-150"
    unicode-range="U+0020-FB01"
  />
<missing-glyph horiz-adv-x="510" 
d="M95 -200v1020h323v-1020h-323zM340 9v115h-170v-115h170zM170 -14v-34h72l-72 -48v-34h170v34h-104l71 48h33v34h-170zM340 186v115h-102v-57h34v23h34v-48h-102v82h-34v-115h170zM170 620v-106h170v35h-68v71h-102zM340 647v33h-68v38h68v34h-169v-34h67v-38h-68v-33
h170zM170 415v-34h102v72h68v33h-170v-33h68v-38h-68zM306 358h-136v-35h170v102h-34v-67zM204 91h102v-48h-102v48zM204 585h34v-36h-34v36z" />
    <glyph glyph-name="fi" unicode="fi" horiz-adv-x="513" 
d="M451 145q0 -45 22 -142v-3h-147v3q21 92 21 142l1 208q0 49 -14 107h-147v-315q0 -21 3 -45t6 -40t7 -34.5t5 -22.5v-3h-146v3q22 97 22 142v315h-82v38h82v47q0 104 49 149.5t123 45.5q62 0 143 -29v-95h-7q-77 90 -121 90q-37 0 -60.5 -41.5t-23.5 -117.5v-49h264v-353
z" />
    <glyph glyph-name="fl" unicode="fl" horiz-adv-x="581" 
d="M519 145q0 -21 3 -45t6 -40t7 -34.5t5 -22.5v-3h-146v3q1 4 5 22.5t7 34.5t6 40t3 45v428q0 43 -11 91q-49 42 -107 42q-50 0 -80 -44t-30 -119v-45h155v-38h-155v-315q0 -21 3 -45t6 -40t7 -34.5t5 -22.5v-3h-146v3q22 97 22 142v315h-82v38h82v41q0 107 55.5 154
t139.5 47q54 0 130 -22h2l108 14v-587z" />
    <glyph glyph-name=".notdef" horiz-adv-x="510" 
d="M95 -200v1020h323v-1020h-323zM340 9v115h-170v-115h170zM170 -14v-34h72l-72 -48v-34h170v34h-104l71 48h33v34h-170zM340 186v115h-102v-57h34v23h34v-48h-102v82h-34v-115h170zM170 620v-106h170v35h-68v71h-102zM340 647v33h-68v38h68v34h-169v-34h67v-38h-68v-33
h170zM170 415v-34h102v72h68v33h-170v-33h68v-38h-68zM306 358h-136v-35h170v102h-34v-67zM204 91h102v-48h-102v48zM204 585h34v-36h-34v36z" />
    <glyph glyph-name=".null" 
 />
    <glyph glyph-name="uni000D" horiz-adv-x="333" 
 />
    <glyph glyph-name="space" unicode=" " horiz-adv-x="228" 
 />
    <glyph glyph-name="exclam" unicode="!" horiz-adv-x="259" 
d="M58 720h143q-4 -73 -14 -154t-25.5 -185t-21.5 -154h-21q-6 49 -21 154t-25 185.5t-15 153.5zM79 113q21 20 51 20q29 0 50 -20.5t21 -49.5t-21 -50t-50 -21t-50.5 21t-21.5 50t21 50z" />
    <glyph glyph-name="quotedbl" unicode="&#x22;" horiz-adv-x="317" 
d="M40 720h102q0 -24 -7 -68t-19 -108t-17 -94h-16q-5 30 -17 94t-19 108t-7 68zM277 720q0 -24 -7 -68t-19 -108t-17 -94h-16q-5 30 -17 94t-19 108t-7 68h102z" />
    <glyph glyph-name="numbersign" unicode="#" horiz-adv-x="701" 
d="M182 261l38 198h-147v35h154l44 226h40l-44 -226h208l44 226h41l-44 -226h129v-35h-136l-38 -198h147v-35h-154l-44 -226h-41l44 226h-208l-44 -226h-40l44 226h-129v35h136zM430 261l38 198h-208l-38 -198h208z" />
    <glyph glyph-name="dollar" unicode="$" horiz-adv-x="589" 
d="M101 668q63 57 170 62v80h37v-81q100 -5 219 -62v-131h-4q-116 130 -215 150v-253q12 -5 36 -13q208 -76 208 -225q0 -98 -70 -151t-174 -55v-87h-37v88q-98 8 -228 70v138h5q38 -44 65.5 -71.5t71.5 -56.5t86 -37v285l-13 4q-220 70 -220 210q0 78 63 136zM308 29
q63 0 103.5 34t40.5 91q0 52 -37 87t-107 63v-275zM137 580q0 -41 34.5 -73t99.5 -60v243q-58 -1 -96 -33t-38 -77z" />
    <glyph glyph-name="percent" unicode="%" horiz-adv-x="752" 
d="M25 565q0 66 43 110.5t97 44.5t98 -44.5t44 -110.5t-44 -111t-98 -45t-97 45t-43 111zM445 156q0 66 43 110.5t97 44.5t98 -44.5t44 -110.5t-44 -111t-98 -45t-97 45t-43 111zM603 720h46l-505 -720h-46zM519 156q0 -55 19 -90t47 -35q29 0 48 34.5t19 90.5
q0 55 -19.5 89.5t-47.5 34.5t-47 -34.5t-19 -89.5zM118 475q19 -35 47 -35q29 0 48 34.5t19 90.5q0 55 -19.5 89.5t-47.5 34.5t-47 -34.5t-19 -89.5t19 -90z" />
    <glyph glyph-name="ampersand" unicode="&#x26;" horiz-adv-x="693" 
d="M31 174q0 124 166 194q-36 38 -54 59.5t-36 59t-18 73.5q0 81 61.5 125.5t149.5 44.5q86 0 143.5 -41t57.5 -110q0 -60 -46 -100.5t-144 -81.5l169 -189q4 -5 13 -14q15 27 31 67q5 16 5 34q0 35 -21 75v3h120v-3q-3 -5 -18.5 -24t-30.5 -42t-21 -43q-18 -51 -42 -92
q46 -50 86 -80q21 -17 44 -17q17 0 36 9q0 -35 -25 -60.5t-62 -25.5q-59 0 -115 59l-26 29q-88 -94 -205 -94q-89 0 -153.5 49.5t-64.5 135.5zM180 87q41 -44 107 -44q78 0 144 66l-211 234q-81 -66 -81 -149q0 -64 41 -107zM190 586q0 -24 16.5 -55t34.5 -53t53 -62
q55 37 84 75t29 89q0 47 -29.5 80t-78.5 33q-47 0 -78 -31t-31 -76z" />
    <glyph glyph-name="quotesingle" unicode="'" horiz-adv-x="182" 
d="M40 720h102q0 -24 -7 -68t-19 -108t-17 -94h-16q-5 30 -17 94t-19 108t-7 68z" />
    <glyph glyph-name="parenleft" unicode="(" horiz-adv-x="294" 
d="M122 584q65 124 148 175l4 -7q-69 -79 -97.5 -205.5t-28.5 -244.5q0 -119 28.5 -248.5t97.5 -208.5l-4 -7q-83 50 -148.5 178.5t-65.5 285.5t66 282z" />
    <glyph glyph-name="parenright" unicode=")" horiz-adv-x="294" 
d="M20 -155q69 79 97.5 208.5t28.5 248.5q0 118 -28.5 244.5t-97.5 205.5l4 7q83 -51 148.5 -175.5t65.5 -281.5t-65.5 -285.5t-148.5 -178.5z" />
    <glyph glyph-name="asterisk" unicode="*" horiz-adv-x="307" 
d="M66 691q18 -21 75 -66q-7 62 -20 98h64q-9 -28 -20 -98q12 8 38 31t37 35l32 -55q-34 -8 -94 -32q50 -22 95 -32l-33 -55q-17 18 -74 66q6 -56 19 -98h-64q9 27 20 98q-11 -7 -38 -31t-37 -35l-32 55q34 8 95 32q-68 26 -95 32z" />
    <glyph glyph-name="plus" unicode="+" horiz-adv-x="592" 
d="M173 350q57 0 71.5 1.5t20.5 7.5q5 5 6.5 20t1.5 72v121h40v-122q0 -58 1.5 -72t7.5 -20q8 -8 91 -8h125v-38h-125q-57 0 -71.5 -1.5t-19.5 -7.5q-6 -5 -7.5 -19.5t-1.5 -72.5v-121h-40v121q0 57 -1.5 72t-6.5 20q-6 6 -20.5 7.5t-71.5 1.5h-119v38h119z" />
    <glyph glyph-name="comma" unicode="," horiz-adv-x="257" 
d="M76 109q20 19 49 19q34 0 56.5 -25.5t22.5 -66.5q0 -47 -32 -89t-83 -60h-28q38 21 56 52.5t18 53.5l-6 -1h-3q-30 0 -51 19.5t-21 49.5q1 28 22 48z" />
    <glyph glyph-name="hyphen" unicode="-" horiz-adv-x="453" 
d="M48 309v38h357v-38h-357z" />
    <glyph glyph-name="period" unicode="." horiz-adv-x="248" 
d="M53 63q0 29 21 49.5t50 20.5t50 -20.5t21 -49.5t-21 -50t-50 -21t-50 21t-21 50z" />
    <glyph glyph-name="slash" unicode="/" horiz-adv-x="431" 
d="M34 -90l324 870h39l-324 -870h-39z" />
    <glyph glyph-name="zero" unicode="0" horiz-adv-x="639" 
d="M33 363q0 159 82 262t204 103q121 0 204 -103t83 -262q0 -163 -82 -267q-83 -105 -205 -105t-204 104.5t-82 267.5zM158 363q0 -142 40.5 -237.5t120.5 -95.5q55 0 93 49t53.5 122t15.5 163q0 138 -41 231.5t-121 93.5q-42 0 -74 -28t-50.5 -75t-27.5 -103.5t-9 -119.5z
" />
    <glyph glyph-name="one" unicode="1" horiz-adv-x="318" 
d="M23 632q139 39 226 111v-598q0 -21 3 -45t6 -40t7 -34.5t5 -22.5v-3h-152v3q1 4 5 22.5t7 34.5t6 40t3 45v465h-116v22z" />
    <glyph glyph-name="two" unicode="2" horiz-adv-x="542" 
d="M31 0q32 43 92 122.5t87 115.5t67 94.5t57 93.5t31 76t14 75q0 48 -28 82t-78 34q-97 0 -194 -160h-4l-23 137q126 60 225 60q95 0 156 -47t61 -124q0 -108 -143 -247q-85 -97 -212 -224h165q123 0 194 52l3 -2l-21 -138h-449z" />
    <glyph glyph-name="three" unicode="3" horiz-adv-x="535" 
d="M38 42l24 140l5 1q43 -75 86.5 -117t101.5 -42q60 0 94.5 42t34.5 105q0 75 -54 124t-137 60v17q81 11 135 60t54 122q0 58 -34.5 99t-91.5 41q-53 0 -96.5 -39t-90.5 -114l-4 1l-23 135q114 53 213 53q58 0 111.5 -17.5t93.5 -60t40 -103.5q0 -73 -55.5 -123t-143.5 -62
q90 -11 147 -60.5t57 -126.5q0 -63 -40.5 -107.5t-95.5 -63t-115 -18.5q-104 0 -216 54z" />
    <glyph glyph-name="four" unicode="4" horiz-adv-x="571" 
d="M10 166l346 554h48l-1 -1l2 1h50v-514h105v-40h-105v-23q0 -21 3 -45.5t6 -40t7 -35t5 -22.5h-152q1 3 5 22.5t7 35t6 40t3 45.5v23h-326l1 1zM345 206v420l-263 -420h263z" />
    <glyph glyph-name="five" unicode="5" horiz-adv-x="532" 
d="M38 49l13 135h5q89 -159 186 -159q62 0 100 50t38 134t-41.5 135t-117.5 52h-6q-74 0 -166 -51l36 375h212q130 0 188 34l-24 -130h-344l-22 -221q82 49 170 49q109 0 171 -65.5t62 -163.5q0 -106 -72 -170.5t-185 -64.5q-107 0 -203 61z" />
    <glyph glyph-name="six" unicode="6" horiz-adv-x="596" 
d="M108 626q72 104 200 104q102 0 216 -54l-18 -136h-4q-98 153 -194 153q-43 0 -73.5 -27.5t-47 -77t-22 -103.5t-5.5 -108v-35q30 50 80 77.5t107 27.5q94 0 155.5 -64t61.5 -159q0 -104 -73.5 -170t-180.5 -66h-2q-125 0 -198.5 107t-73.5 268q0 158 72 263zM163 300
q10 -127 47.5 -201t99.5 -74q59 0 98 50t39 128q0 80 -38.5 135t-102.5 55q-90 0 -143 -93z" />
    <glyph glyph-name="seven" unicode="7" horiz-adv-x="553" 
d="M25 578l45 142h459l-4 -5l9 5q-164 -287 -242 -583q-25 -96 -25 -137h-150q23 74 132 283.5t195 338.5h-223q-108 0 -193 -44h-3z" />
    <glyph glyph-name="eight" unicode="8" horiz-adv-x="588" 
d="M34 174q0 67 49.5 111.5t117.5 62.5q-152 69 -152 190q0 82 69 137t177 55q97 0 164.5 -45.5t67.5 -124.5q0 -62 -42.5 -103.5t-104.5 -60.5q175 -76 175 -204q0 -91 -77.5 -147t-182.5 -56q-101 0 -181 50.5t-80 134.5zM130 184q0 -63 45 -110.5t118 -47.5q67 0 111 39
t44 96q0 99 -190 165q-4 1 -10.5 3.5t-9.5 3.5q-108 -56 -108 -149zM197 482q47 -37 145 -71q95 53 95 139q0 60 -38 101t-106 41q-61 0 -101.5 -32t-41.5 -86v-2q0 -55 47 -90z" />
    <glyph glyph-name="nine" unicode="9" horiz-adv-x="601" 
d="M111 664q73 66 180 66h2q125 0 198.5 -107t73.5 -268q0 -158 -72 -262.5t-200 -104.5q-104 0 -216 54l18 136h4q98 -153 194 -153q43 0 73.5 27.5t47 77t22 103.5t5.5 108v35q-30 -50 -80 -77.5t-107 -27.5q-95 0 -156 64t-61 159q0 104 74 170zM193 380q38 -55 102 -55
q89 0 143 93q-10 127 -47.5 201t-99.5 74q-59 0 -98 -50t-39 -128q0 -80 39 -135z" />
    <glyph glyph-name="colon" unicode=":" horiz-adv-x="240" 
d="M74 113q21 20 50 20t50 -20.5t21 -49.5t-21 -50t-50 -21t-50 21t-21 50t21 50zM74 479q21 21 50 21t50 -21t21 -50t-21 -49q-21 -21 -50 -21t-50 20.5t-21 49.5t21 50z" />
    <glyph glyph-name="semicolon" unicode=";" horiz-adv-x="249" 
d="M76 109q20 19 49 19q34 0 56.5 -25.5t22.5 -66.5q0 -47 -32 -89t-83 -60h-28q38 21 56 52.5t18 53.5l-6 -1h-3q-30 0 -51 19.5t-21 49.5q1 28 22 48zM58 429q0 29 21 50t50 21t50 -21t21 -50t-21 -50t-50 -21t-50 21t-21 50z" />
    <glyph glyph-name="less" unicode="&#x3c;" horiz-adv-x="437" 
d="M28 351l361 216v-46l-312 -187l312 -187v-46l-361 216v34z" />
    <glyph glyph-name="equal" unicode="=" horiz-adv-x="552" 
d="M501 274v-40h-450v40h450zM51 387v39h450v-39h-450z" />
    <glyph glyph-name="greater" unicode="&#x3e;" horiz-adv-x="443" 
d="M409 351v-34l-361 -216v46l313 187l-313 187v46z" />
    <glyph glyph-name="question" unicode="?" horiz-adv-x="530" 
d="M263 730q95 0 156.5 -45.5t61.5 -117.5q0 -24 -6 -45t-22 -41t-25 -30t-32.5 -31t-28.5 -25q-53 -47 -76.5 -82t-27.5 -82h-22q-6 22 -6 46q0 66 53 139q6 8 27.5 35t29.5 39.5t17.5 37t9.5 48.5q0 43 -28.5 80t-81.5 37q-47 0 -97.5 -42.5t-94.5 -115.5h-4l-34 131
q128 64 231 64zM180 63q0 29 21 49.5t50 20.5t50.5 -20.5t21.5 -49.5t-21 -50q-22 -21 -51 -21t-50 21t-21 50z" />
    <glyph glyph-name="at" unicode="@" horiz-adv-x="876" 
d="M154 629q114 120 287 120q114 0 204 -53.5t137.5 -140.5t47.5 -190q0 -118 -65 -187t-164 -69q-68 0 -98.5 31t-30.5 73q0 18 5 40q-38 -61 -81 -92.5t-82 -31.5q-60 0 -74 43t-14 72q0 51 24 121q39 105 100 153.5t118 48.5h4q31 0 53 -14.5t30 -40.5q48 25 73 50h15
l-80 -294q-8 -29 -8 -52q0 -66 70 -66q65 0 115 55t50 160q0 144 -96.5 246t-252.5 102q-105 0 -188.5 -51.5t-128 -136t-44.5 -182.5q0 -152 97.5 -259.5t252.5 -107.5q91 0 171 40l4 -39q-79 -37 -175 -37q-172 0 -281 118t-109 285q0 165 114 286zM314 236q5 -52 43 -52
h1q37 1 79 49.5t70 127.5l30 111q0 25 -11.5 42.5t-35.5 18.5h-2q-39 0 -81.5 -46t-68.5 -119q-25 -68 -25 -116q0 -8 1 -16z" />
    <glyph glyph-name="A" unicode="A" horiz-adv-x="665" 
d="M85 176l162 445q8 21 8 42q0 28 -14 55v2h130l217 -571q37 -99 69 -146v-3h-174v4q5 9 5 34q0 11 -2 41t-18 72l-35 94h-278l-24 -66q-18 -61 -18 -104.5t10 -70.5v-4h-114v3q33 54 76 173zM169 285h248l-127 336z" />
    <glyph glyph-name="B" unicode="B" horiz-adv-x="614" 
d="M44 717v3h295q95 0 157 -52.5t62 -129.5q0 -62 -38 -104t-99 -63q74 -19 122 -64t48 -118q0 -89 -71.5 -139t-178.5 -50h-297v3q21 92 21 142v430q0 50 -21 142zM307 38q169 0 169 151q0 75 -46 117t-123 42h-132v-310h132zM299 387q68 0 105 42t37 109q0 62 -35 103
t-101 41h-130v-295h124z" />
    <glyph glyph-name="C" unicode="C" horiz-adv-x="642" 
d="M127 627q96 103 241 103q98 0 228 -48v-142h-6q-41 63 -96 107t-118 44q-96 0 -159 -96t-63 -235t66 -235.5t157 -96.5q56 0 113 43.5t100 107.5h6v-143q-130 -48 -231 -48q-141 0 -238 104.5t-97 266.5q0 164 97 268z" />
    <glyph glyph-name="D" unicode="D" horiz-adv-x="664" 
d="M44 3q21 92 21 142v430q0 50 -21 142v3h251q140 0 239.5 -100t99.5 -256q0 -162 -99.5 -263t-239.5 -101h-251v3zM175 37h93q113 0 177.5 92t64.5 231v4q-1 138 -65.5 228.5t-176.5 90.5h-93v-646z" />
    <glyph glyph-name="E" unicode="E" horiz-adv-x="566" 
d="M44 3q21 92 21 142v430q0 50 -21 142v3h484v-122h-4q-2 2 -20.5 15.5t-32.5 23t-35.5 21.5t-43.5 18.5t-43 6.5h-174v-296h104q20 0 41.5 3t41.5 8t34 9t31 10l19 6h4v-106h-4q-1 0 -26 8.5t-42 13.5t-45.5 10t-53.5 5h-104v-317h177q21 0 43 6.5t43.5 18.5t35.5 21.5
t32.5 23t20.5 15.5h4v-122h-487v3z" />
    <glyph glyph-name="F" unicode="F" horiz-adv-x="558" 
d="M65 145v430q0 50 -21 142v3h478v-118h-4q-3 2 -21 15t-32 22t-35.5 20.5t-43.5 17.5t-43 6h-168v-294h86q20 0 41 2.5t41.5 8t33.5 9t31 10t19 6.5h4v-107h-4q-2 1 -19 7t-31 10t-34 9t-41 8t-41 3h-86v-355h-131v3q21 92 21 142z" />
    <glyph glyph-name="G" unicode="G" horiz-adv-x="696" 
d="M132 624q102 106 248 106q112 0 236 -55v-143h-7q-38 56 -98 106.5t-130 51.5h-2q-98 0 -160.5 -91.5t-62.5 -237.5q0 -147 65.5 -239.5t162.5 -93.5q68 0 140 43v135q0 14 -3 29.5t-6.5 28t-10 27.5t-10.5 22.5t-10 19.5l-7 14v3h185v-3q-28 -88 -28 -141v-151
q-150 -67 -264 -67q-141 0 -240.5 105.5t-99.5 265.5q0 158 102 265z" />
    <glyph glyph-name="H" unicode="H" horiz-adv-x="682" 
d="M44 0v3q21 92 21 142v430q0 50 -21 142v3h153v-3q-22 -97 -22 -142v-191h332v191q0 45 -22 142v3h153v-3q-21 -92 -21 -142v-430q0 -50 21 -142v-3h-153v3q22 97 22 142v199h-332v-199q0 -45 22 -142v-3h-153z" />
    <glyph glyph-name="I" unicode="I" horiz-adv-x="266" 
d="M210 720v-3q-22 -97 -22 -142v-430q0 -45 22 -142v-3h-153v3q21 92 21 142v430q0 50 -21 142v3h153z" />
    <glyph glyph-name="J" unicode="J" horiz-adv-x="457" 
d="M31 212h8q93 -173 167 -173q78 0 78 136v516q0 8 -5 28v1h119v-1q-4 -16 -4 -28v-486q0 -105 -46 -158t-133 -53q-89 0 -183 47z" />
    <glyph glyph-name="K" unicode="K" horiz-adv-x="652" 
d="M65 145v430q0 50 -21 142v3h153v-3q-22 -97 -22 -142v-430q0 -45 22 -142v-3h-153v3q21 92 21 142zM197 372l203 196q44 42 58 76.5t14 54.5q0 12 -4 21v5h155v-4q-34 -26 -85 -74l-244 -233l261 -317q47 -61 88 -94v-3h-171q-5 5 -21 40.5t-33 57.5l-222 268q-1 1 -1 2
q0 2 2 4z" />
    <glyph glyph-name="L" unicode="L" horiz-adv-x="525" 
d="M44 3q21 92 21 142v430q0 50 -21 142v3h153v-3q-22 -97 -22 -142v-538h146q26 0 55.5 15t50 32t42.5 38t27 25h5v-147h-457v3z" />
    <glyph glyph-name="M" unicode="M" horiz-adv-x="814" 
d="M34 4q1 2 7.5 22.5t10.5 36t10 39.5t9 49t3 48v376q0 17 -2.5 35t-7 35.5t-8 28.5t-9 26t-5.5 16v3h143l229 -587l226 588h130v-3q-21 -92 -21 -142v-430q0 -50 21 -142v-3h-151v3q1 4 5 22.5t7 34.5t6 40t3 45v463l-233 -608h-43v1l-12 -1l-236 605q-1 -10 -1 -30v-376
q0 -23 3 -48t9 -49t10 -39.5t10.5 -36t7.5 -22.5v-5h-121v5z" />
    <glyph glyph-name="N" unicode="N" horiz-adv-x="695" 
d="M44 0v5q1 2 6 18t8.5 27t9 31.5t8.5 37.5t5.5 39t2.5 42v349q0 20 -2.5 41t-8 42t-9 33.5t-10 31t-6.5 19.5v4h135l387 -568v368q0 20 -2.5 42t-5.5 39t-8.5 37.5t-9 31.5t-8.5 27t-6 18v5h122v-5q-1 -2 -6 -18t-8.5 -27t-9 -31.5t-8.5 -37.5t-5.5 -39t-2.5 -42v-520h-72
l-414 607v-407q0 -20 2.5 -42t5.5 -39t8.5 -37.5t9 -31.5t8.5 -27t6 -18v-5h-122z" />
    <glyph glyph-name="O" unicode="O" horiz-adv-x="724" 
d="M127 626q96 104 235 104q138 0 235 -104t97 -263q0 -160 -97 -267q-97 -108 -235 -108t-235 107.5t-97 267.5q0 159 97 263zM154 362q0 -85 24 -161t72.5 -125.5t111.5 -49.5q62 0 110.5 50t73 126t24.5 162q0 131 -57.5 229.5t-150.5 98.5q-63 0 -111.5 -48.5
t-72.5 -123t-24 -158.5z" />
    <glyph glyph-name="P" unicode="P" horiz-adv-x="591" 
d="M63 145v430q0 50 -21 142v3h288q103 0 168.5 -63t65.5 -156q0 -101 -76.5 -161.5t-186.5 -60.5h-127v-134q0 -21 3 -45t6 -40t7 -34.5t5 -22.5v-3h-153v3q21 92 21 142zM174 319h115q73 0 116 53t43 129q0 73 -40.5 126t-112.5 53h-121v-361z" />
    <glyph glyph-name="Q" unicode="Q" horiz-adv-x="726" 
d="M30 363q0 159 96.5 263t235.5 104q138 0 235 -104t97 -263q0 -156 -88.5 -260t-219.5 -114q42 -63 131 -71q15 -2 30 -2q81 0 164 55l3 -2l-46 -123q-38 -6 -73 -6q-38 0 -73 7q-67 9 -112 48.5t-60 92.5q-135 5 -227.5 110t-92.5 265zM154 363q0 -90 22.5 -164.5
t71 -122.5t114.5 -48q98 0 153 98.5t55 236.5q0 135 -55.5 231t-152.5 96q-67 0 -115.5 -49t-70.5 -121.5t-22 -156.5z" />
    <glyph glyph-name="R" unicode="R" horiz-adv-x="642" 
d="M65 575q0 50 -21 142v3h290q106 0 169.5 -51t63.5 -138q0 -81 -52 -129.5t-137 -58.5q82 -24 123 -102q16 -31 38 -78t32 -67t27 -45.5t38 -46.5v-4h-133q-29 30 -99 191q-53 122 -140 141h-89v-187q0 -45 22 -142v-3h-153v3q21 92 21 142v430zM175 368h119
q72 0 113 39.5t41 118.5q0 77 -39 118.5t-109 41.5h-125v-318zM203 332q4 0 10 2q-2 0 -5 -0.5t-5 -1.5z" />
    <glyph glyph-name="S" unicode="S" horiz-adv-x="589" 
d="M38 532q0 82 67.5 140t182.5 58q108 0 239 -63v-131h-4q-137 154 -249 154q-60 0 -98.5 -32t-38.5 -78q0 -52 53 -89t154 -71q208 -76 208 -225q0 -100 -72 -153t-179 -53q-111 0 -258 71v138h5q32 -37 55.5 -60.5t58 -52t71.5 -42.5t75 -14q63 0 103.5 34t40.5 91
q0 60 -49 98t-145 70q-220 70 -220 210z" />
    <glyph glyph-name="T" unicode="T" horiz-adv-x="628" 
d="M17 720h594v-155h-4q-2 1 -35 36t-67.5 58t-66.5 23h-69v-537q0 -45 22 -142v-3h-153v3q21 92 21 142v537h-69q-32 0 -66.5 -23t-67.5 -58t-35 -36h-4v155z" />
    <glyph glyph-name="U" unicode="U" horiz-adv-x="666" 
d="M42 717v3h153v-3q-22 -97 -22 -142v-305q0 -107 49 -167.5t133 -60.5q80 0 135.5 55.5t55.5 165.5v257q0 73 -38 195v5h117v-5q-1 -2 -7 -22.5t-10 -36t-9 -39.5t-8 -49t-3 -48v-263q0 -130 -73 -199.5t-181 -69.5q-52 0 -99 17t-86 51t-62.5 91t-23.5 130v298
q0 50 -21 142z" />
    <glyph glyph-name="V" unicode="V" horiz-adv-x="678" 
d="M11 716v4h177v-4q-5 -9 -5 -34q0 -11 2 -41t17 -72l182 -485l160 457q18 49 18 104t-9 71v4h113v-3q-43 -74 -78 -173l-192 -544h-98l-216 571q-29 77 -71 145z" />
    <glyph glyph-name="W" unicode="W" horiz-adv-x="981" 
d="M14 720h180v-3q-7 -34 -7 -66q0 -42 13 -81l143 -441l128 417l-10 31q-23 73 -66 139v4h179v-4q-7 -32 -7 -62q0 -43 14 -84l143 -442l126 413q14 46 14 91q0 43 -12 85v3h116v-4q-43 -71 -64 -140l-177 -576h-75l-159 481l-147 -481h-76l-191 577q-25 78 -65 140v3z" />
    <glyph glyph-name="X" unicode="X" horiz-adv-x="667" 
d="M216 720v-3q-2 -9 -2 -19q0 -18 7 -48.5t32 -67.5l108 -165l210 303v1h1q2 0 17.5 -0.5t25.5 -0.5h17v-4q-3 -5 -32 -38t-44 -55l-170 -243l181 -277q8 -13 73 -99v-4h-190v4q2 8 2 17q0 19 -8 51.5t-34 71.5l-105 160l-215 -304v-1h-1q-2 0 -19 0.5t-29 0.5h-11v4
q2 2 31 36t45 57l174 245l-184 281q-14 22 -41.5 55.5t-30.5 37.5v4h192z" />
    <glyph glyph-name="Y" unicode="Y" horiz-adv-x="631" 
d="M13 716v4h175v-4q-3 -10 -3 -24q0 -15 5 -46t25 -71l133 -264l127 243q24 46 28 80.5t4 48.5q0 23 -6 33v4h118v-3l-19 -28q-15 -23 -31.5 -49.5t-27.5 -49.5l-169 -319v-126q0 -50 21 -142v-3h-154v3q22 97 22 142v122l-170 324q-22 42 -78 125z" />
    <glyph glyph-name="Z" unicode="Z" horiz-adv-x="606" 
d="M28 0l404 682h-192q-22 0 -46 -6t-47 -17t-37.5 -19t-34 -21t-21.5 -14h-5v115h530l-404 -682h192q22 0 46 6t46.5 16.5t38 19.5t34.5 21t22 14h4v-115h-530z" />
    <glyph glyph-name="bracketleft" unicode="[" horiz-adv-x="284" 
d="M267 740v-12q-77 -17 -90 -25q-22 -14 -25 -59q-1 -16 -1 -49v-599q0 -44 1.5 -63t13.5 -34t27.5 -19.5t54.5 -12.5q12 -3 19 -4v-12h-201v889h201z" />
    <glyph glyph-name="backslash" unicode="\" horiz-adv-x="425" 
d="M397 -90h-39l-324 870h39z" />
    <glyph glyph-name="bracketright" unicode="]" horiz-adv-x="284" 
d="M13 -137q76 17 90 25q22 14 25 61q1 16 1 47v599q0 77 -12 95q-12 17 -63 29q-6 1 -20 4l-21 5v12h201v-889h-201v12z" />
    <glyph glyph-name="asciicircum" unicode="^" horiz-adv-x="435" 
d="M393 581l-12 -12l-163 65l-164 -65l-12 12l175 148z" />
    <glyph glyph-name="underscore" unicode="_" horiz-adv-x="553" 
d="M38 -38v38h473v-38h-473z" />
    <glyph glyph-name="a" unicode="a" horiz-adv-x="522" 
d="M32 142q0 84 67 122.5t140 38.5q27 0 57 -5q32 -5 47 -10v64q0 55 -23 85t-59 30q-42 0 -105.5 -44t-87.5 -76h-3v117q110 40 201 40q86 0 133.5 -41.5t47.5 -113.5v-243q0 -57 37 -57q12 0 27 5l1 -3q-19 -55 -81 -55q-73 0 -86 72q-57 -76 -153 -76q-74 0 -117 44.5
t-43 105.5zM141 154q0 -45 30 -74.5t73 -29.5q56 0 99 52v157q-8 0 -13 1q-28 5 -53 5q-51 0 -93.5 -27.5t-42.5 -83.5z" />
    <glyph glyph-name="b" unicode="b" horiz-adv-x="537" 
d="M34 723v4l130 17v-313q54 73 146 73q85 0 140.5 -65.5t55.5 -181.5q0 -127 -64.5 -195.5t-157.5 -68.5q-71 0 -123 43l-102 -42v591q0 75 -25 138zM164 389v-323q34 -19 77 -19q74 0 113 60.5t39 149.5q0 79 -32 132.5t-93 53.5q-55 0 -104 -54z" />
    <glyph glyph-name="c" unicode="c" horiz-adv-x="496" 
d="M93 436q66 68 173 68q78 0 176 -48l2 -125h-5q-82 138 -171 138q-62 0 -95.5 -56t-33.5 -139q1 -96 45 -153.5t123 -57.5q82 0 157 66l3 -2q-27 -60 -80.5 -97.5t-124.5 -37.5q-98 0 -167 68.5t-69 188.5q0 119 67 187z" />
    <glyph glyph-name="d" unicode="d" horiz-adv-x="544" 
d="M29 245q0 123 61 190.5t147 67.5q89 0 141 -70v152q0 64 -28 138l-1 3l133 18v-599q0 -45 22 -142v-3h-98q-2 8 -7.5 22.5t-9.5 27.5t-7 27q-57 -85 -154 -85q-84 0 -141.5 67t-57.5 186zM174 106q31 -58 94 -58q57 0 111 59q-1 7 -1 23v265q-47 49 -103 49
q-62 0 -97.5 -53.5t-35.5 -141.5q0 -86 32 -143z" />
    <glyph glyph-name="e" unicode="e" horiz-adv-x="509" 
d="M93 434q66 70 169 70q102 0 158.5 -67.5t56.5 -172.5h-338q4 -91 47 -146t121 -55q85 0 165 73l3 -3q-26 -61 -82 -101t-130 -40q-99 0 -168 69.5t-69 187.5q0 115 67 185zM139 290l231 17q-2 73 -29.5 117.5t-79.5 44.5q-58 0 -89 -50.5t-33 -128.5z" />
    <glyph glyph-name="f" unicode="f" horiz-adv-x="375" 
d="M84 498v41q0 201 161 201q58 0 134 -29v-96h-5q-78 91 -126 91q-36 0 -48.5 -40t-12.5 -123v-45h161v-38h-161v-315q0 -21 3 -45t6 -40t7 -34.5t5 -22.5v-3h-146v3q22 97 22 142v315h-82v38h82z" />
    <glyph glyph-name="g" unicode="g" horiz-adv-x="503" 
d="M75 6q-37 25 -37 75q0 77 83 102q-87 49 -87 146q0 80 62 127.5t142 47.5q61 0 113 -28q38 73 116 73q13 0 28 -2l-16 -85l-3 -2q-29 16 -59 16q-24 0 -49 -10q76 -50 76 -137q0 -81 -63 -129t-143 -48q-46 0 -89 17q-44 -15 -44 -46q0 -38 76 -38h163q68 0 108.5 -35.5
t40.5 -98.5q0 -46 -24 -78t-64.5 -46.5t-77.5 -20.5t-79 -6q-35 0 -69 5t-70 16.5t-58 36.5t-22 60q0 53 46 88zM138 328q0 -64 27.5 -103.5t72.5 -39.5t73 40t28 103q0 64 -28 104q-28 39 -73 39t-72.5 -39.5t-27.5 -103.5zM138 -134q42 -31 121 -31q71 0 115.5 25t44.5 62
q0 27 -19.5 44t-57.5 17h-170q-41 0 -68 9q-8 -16 -8 -42v-2q0 -51 42 -82z" />
    <glyph glyph-name="h" unicode="h" horiz-adv-x="551" 
d="M39 723v4l128 17v-328q69 88 162 88q69 0 116 -42t47 -128v-189q0 -45 22 -142v-3h-147v3q22 97 22 142v176q0 57 -30 86t-76 29q-58 0 -116 -50v-241q0 -45 22 -142v-3h-147v3q22 97 22 142v440q0 75 -25 138z" />
    <glyph glyph-name="i" unicode="i" horiz-adv-x="237" 
d="M48 495v3h124v-353q0 -21 3 -45t6 -40t7 -34.5t5 -22.5v-3h-145v3q21 92 21 142l1 208q0 45 -22 142zM44 675q0 30 21 50.5t51 20.5t51 -20.5t21 -50.5q0 -29 -21 -49q-22 -21 -51 -21t-50.5 20.5t-21.5 49.5z" />
    <glyph glyph-name="j" unicode="j" horiz-adv-x="231" 
d="M46 -69q22 65 22 160v262q0 50 -21 142v3h124v-407q0 -137 -58.5 -200t-152.5 -70l-2 2q66 43 88 108zM62 726q21 20 51 20q29 0 50 -20.5t21 -50.5q0 -29 -21 -49q-21 -21 -50 -21t-50.5 20.5t-21.5 49.5q0 30 21 51z" />
    <glyph glyph-name="k" unicode="k" horiz-adv-x="514" 
d="M41 723v4l129 17v-599q0 -50 21 -142v-3h-147v3q22 97 22 142v440q0 75 -25 138zM296 366q26 24 40.5 49.5t14.5 44.5t-6 34v4h153v-4l-216 -188l223 -302v-4h-125l-193 269z" />
    <glyph glyph-name="l" unicode="l" horiz-adv-x="224" 
d="M37 723v4l129 17v-599q0 -50 21 -142v-3h-147v3q22 97 22 142v440q0 75 -25 138z" />
    <glyph glyph-name="m" unicode="m" horiz-adv-x="815" 
d="M61 145v208q0 50 -21 142v3h124v-74q63 80 146 80q47 0 85 -23t55 -70q68 93 156 93q65 0 109.5 -42.5t44.5 -127.5v-189q0 -50 21 -142v-3h-145v3q1 4 5 22.5t7 34.5t6 40t3 45v176q0 56 -29.5 84.5t-71.5 28.5q-45 0 -99 -46q6 -24 6 -54v-189q0 -21 3 -45t6 -40
t7 -34.5t5 -22.5v-3h-145v3q21 92 21 142v176q0 56 -29.5 84.5t-72.5 28.5q-47 0 -94 -41v-248q0 -21 3 -45t6 -40t7 -34.5t5 -22.5v-3h-145v3q21 92 21 142z" />
    <glyph glyph-name="n" unicode="n" horiz-adv-x="545" 
d="M61 145v208q0 50 -21 142v3h125v-85q66 91 162 91q69 0 116 -42t47 -128v-189q0 -45 22 -142v-3h-147v3q22 97 22 142v176q0 57 -29.5 86t-73.5 29h-2q-59 0 -117 -54v-237q0 -50 21 -142v-3h-146v3q21 92 21 142z" />
    <glyph glyph-name="o" unicode="o" horiz-adv-x="546" 
d="M26 250q0 118 70.5 186t175.5 68q106 0 177 -68.5t71 -185.5q0 -118 -71 -188q-72 -70 -177 -70t-175.5 69.5t-70.5 188.5zM142 250q0 -93 35 -158q34 -65 95 -65t96.5 65t35.5 158q0 92 -35.5 155.5t-96.5 63.5t-95.5 -63t-34.5 -156z" />
    <glyph glyph-name="p" unicode="p" horiz-adv-x="534" 
d="M35 491l127 7v-67q54 73 146 73q85 0 140.5 -65.5t55.5 -181.5q0 -126 -63 -195t-149 -69q-77 0 -130 57v-105q0 -45 22 -142v-3h-147v3q21 92 21 142v402q0 63 -22 140zM162 390v-303q43 -40 94 -40q64 0 99.5 57t35.5 148q0 82 -32 136.5t-93 54.5q-56 0 -104 -53z" />
    <glyph glyph-name="q" unicode="q" horiz-adv-x="545" 
d="M93 437q62 69 148 69q85 0 138 -66v58h126v-3q-22 -97 -22 -142v-408q0 -45 22 -142v-3h-147v3q21 92 21 142v135q-52 -85 -154 -85q-85 0 -140 65.5t-55 181.5q0 126 63 195zM143 247q0 -83 31.5 -137t93.5 -54q59 0 111 62v287q-47 47 -101 47q-64 0 -99.5 -57
t-35.5 -148z" />
    <glyph glyph-name="r" unicode="r" horiz-adv-x="385" 
d="M40 495v3h125v-85q31 55 72.5 75t75.5 20q26 0 54 -9l-16 -116h-4q-25 22 -49 31t-45 9q-12 0 -35.5 -4t-52.5 -32v-242q0 -50 21 -142v-3h-146v3q21 92 21 142v208q0 50 -21 142z" />
    <glyph glyph-name="s" unicode="s" horiz-adv-x="450" 
d="M91 466q53 38 136 38q84 0 172 -41v-110h-4q-96 115 -176 115q-38 0 -65 -18.5t-27 -52.5t29 -51.5t98 -40.5q2 0 3.5 -0.5t3.5 -1.5q82 -28 118.5 -64t36.5 -93q0 -75 -53 -114.5t-131 -39.5q-84 0 -187 47v117h3q33 -37 57 -60.5t61.5 -45t72.5 -21.5q38 0 65.5 20.5
t27.5 57.5q0 36 -29 56t-101 45q-83 28 -123.5 62t-40.5 90q0 67 53 106z" />
    <glyph glyph-name="t" unicode="t" horiz-adv-x="364" 
d="M13 490q62 20 100 58.5t66 96.5h10v-147h139v-38h-139l1 -314q0 -84 72 -84q44 0 89 29q-20 -44 -57.5 -71.5t-86.5 -27.5q-58 0 -89.5 38t-31.5 103v327h-73v30z" />
    <glyph glyph-name="u" unicode="u" horiz-adv-x="536" 
d="M34 498h125v-323q0 -57 29 -85.5t74 -28.5q58 0 118 52q-2 22 -2 31v209q0 50 -21 142v3h125v-353q0 -50 21 -142v-3h-105q-6 20 -16 86q-69 -94 -163 -94q-69 0 -116 42.5t-47 128.5v190q0 45 -22 142v3z" />
    <glyph glyph-name="v" unicode="v" horiz-adv-x="532" 
d="M10 495v3h182v-3q-9 -20 -9.5 -36.5t-0.5 -17.5q0 -30 15 -73l113 -271l107 270q12 40 12 69q0 4 -1 21t-10 38v3h103v-3q-42 -73 -54 -105l-155 -390h-73l-153 365q-39 89 -76 130z" />
    <glyph glyph-name="w" unicode="w" horiz-adv-x="758" 
d="M10 498h164v-3q-4 -9 -4 -30q0 -11 2 -39.5t15 -68.5l85 -255l89 264q-29 78 -63 129v3h164v-3q-4 -9 -4 -30q0 -11 2 -39.5t15 -68.5l85 -254l84 246q12 47 12 81q0 3 -0.5 22t-8.5 42v4h101v-4q-32 -51 -52 -105l-130 -389h-74l-111 310l-107 -310h-70l-130 364
q-28 78 -64 131v3z" />
    <glyph glyph-name="x" unicode="x" horiz-adv-x="544" 
d="M21 498h183v-3q-2 -6 -2 -15q0 -13 6 -36.5t28 -53.5l67 -95l79 106q19 26 23.5 47t4.5 31q0 11 -4 16v3h113v-3q-50 -41 -90 -93l-104 -138l100 -141q48 -69 104 -119v-4h-188v3q3 7 3 16q0 13 -6.5 36t-27.5 53l-63 88l-78 -105q-20 -26 -24 -47t-4 -30q0 -11 4 -17v-3
h-114v4q16 12 43.5 39.5t46.5 52.5l104 137l-105 148q-52 77 -99 119v4z" />
    <glyph glyph-name="y" unicode="y" horiz-adv-x="523" 
d="M11 495v3h183v-3q-9 -21 -9.5 -36.5t-0.5 -16.5q0 -30 15 -73l109 -251l99 249q13 41 13 70q0 3 -1 20t-10 38v3h102v-3q-31 -47 -55 -105l-191 -478q-44 -111 -138 -111q-40 0 -89 20l22 102l2 1q22 -21 45.5 -34t37.5 -15t19 -2q18 0 37 12.5t32 44.5l22 56l-168 381
q-40 91 -76 128z" />
    <glyph glyph-name="z" unicode="z" horiz-adv-x="473" 
d="M26 0l274 462h-87q-15 0 -30.5 -3t-30.5 -9t-27 -11t-27 -14t-22 -13.5t-19 -13.5t-13 -9h-4v109h406l-274 -462h86q20 0 42 5.5t42.5 16t34.5 18.5t31 19.5t20 13.5h4v-109h-406z" />
    <glyph glyph-name="braceleft" unicode="{" horiz-adv-x="309" 
d="M50 284v20q74 11 74 88q0 40 -24.5 118t-24.5 107q0 54 42.5 87.5t108.5 33.5q40 0 56 -1v-16q-54 0 -88 -23.5t-34 -65.5q0 -31 29 -109t29 -114q0 -84 -100 -115q100 -31 100 -115q0 -34 -29 -113t-29 -110q0 -42 34 -65.5t88 -23.5v-16q-19 -1 -56 -1
q-66 0 -108.5 33.5t-42.5 87.5q0 29 24.5 108t24.5 119q0 43 -19.5 62t-54.5 24z" />
    <glyph glyph-name="bar" unicode="|" horiz-adv-x="338" 
d="M150 -70v860h38v-860h-38z" />
    <glyph glyph-name="braceright" unicode="}" horiz-adv-x="309" 
d="M21 -133q54 0 88 23.5t34 65.5q0 31 -29 110t-29 113q0 84 100 115q-100 31 -100 115q0 36 29 114t29 109q0 42 -34 65.5t-88 23.5v16q16 1 56 1q66 0 108.5 -33.5t42.5 -87.5q0 -29 -24.5 -107t-24.5 -118q0 -77 74 -88v-20q-35 -5 -54.5 -24t-19.5 -62q0 -40 24.5 -119
t24.5 -108q0 -54 -42.5 -87.5t-108.5 -33.5q-37 0 -56 1v16z" />
    <glyph glyph-name="exclamdown" unicode="&#xa1;" horiz-adv-x="259" 
d="M73 -39q10 81 25 184.5t21 154.5h21q7 -51 22 -154.5t25 -184.5t14 -154h-143q5 73 15 154zM58 464q0 29 22 50q21 21 50 21t50 -21t21 -50t-21 -50t-50 -21q-30 0 -51 21t-21 50z" />
    <glyph glyph-name="cent" unicode="&#xa2;" horiz-adv-x="496" 
d="M91 434q64 68 169 70v96h35v-97q64 -6 147 -47l2 -125h-5q-70 116 -144 135v-403h12q82 0 157 66l3 -2q-23 -53 -68 -88.5t-104 -44.5v-92h-35v90q-98 1 -166 69.5t-68 187.5q0 117 65 185zM139 274q1 -80 32 -134.5t89 -70.5v400q-58 -4 -89.5 -59.5t-31.5 -135.5z" />
    <glyph glyph-name="sterling" unicode="&#xa3;" horiz-adv-x="554" 
d="M115 164q22 56 22 107q0 13 -1 19h-88v36h84q-6 33 -33.5 113.5t-27.5 121.5q0 75 57 122t148 47q97 0 226 -58l-36 -128h-5q-96 149 -181 149q-46 0 -71.5 -31.5t-25.5 -79.5q0 -40 23 -129t27 -127h189v-36h-188q-1 -22 -7 -42t-20 -43t-22.5 -35.5t-31.5 -42.5
t-30 -39h191q72 0 118 11.5t83 48.5h4l-23 -148h-470q72 121 89 164z" />
    <glyph glyph-name="currency" unicode="&#xa4;" horiz-adv-x="571" 
d="M47 100l77 75q-50 60 -50 136q0 87 62 149t150 62q75 0 135 -49l75 73l27 -28l-74 -73q48 -59 48 -134q0 -88 -62 -150t-149 -62q-75 0 -133 47l-77 -74zM127 311q0 -66 47 -114.5t112 -48.5q64 0 110.5 48.5t46.5 114.5q0 65 -46.5 113.5t-110.5 48.5q-65 0 -112 -48.5
t-47 -113.5zM213 411l175 -175l-27 -28l-93 92l1 1l-83 82z" />
    <glyph glyph-name="yen" unicode="&#xa5;" horiz-adv-x="631" 
d="M13 720h175v-4q-3 -10 -3 -24q0 -15 5 -46t25 -71l133 -264l127 243q24 46 28 80.5t4 48.5q0 23 -6 33v4h118v-3l-19 -28q-15 -23 -31.5 -49.5t-27.5 -49.5l-149 -282h156v-36h-175l-1 -1v-80h176v-35h-176v-11q0 -50 21 -142v-3h-154v3q22 97 22 142v11h-177v35h177v76
l-3 5h-174v36h155l-148 283q-22 42 -78 125v4z" />
    <glyph glyph-name="brokenbar" unicode="&#xa6;" horiz-adv-x="338" 
d="M188 306v-306h-38v306h38zM150 415v305h38v-305h-38z" />
    <glyph glyph-name="section" unicode="&#xa7;" horiz-adv-x="442" 
d="M79 310q24 32 69 47q-94 44 -94 119q0 57 45 94.5t121 37.5q65 0 152 -41v-98q-64 67 -93 85q-36 23 -69 23q-35 0 -59.5 -18.5t-25.5 -48.5q0 -32 31 -54t98 -46q135 -53 135 -149q0 -85 -79 -118q79 -47 79 -122q0 -63 -46.5 -99.5t-118.5 -36.5q-70 0 -167 47v105
q1 -1 15 -17t16.5 -18.5t15.5 -17t18.5 -18.5t18 -14.5t21 -14t20.5 -9.5t23.5 -8t23.5 -2q39 0 64 20.5t25 55.5q0 36 -29.5 59t-93.5 47q-70 25 -105.5 56.5t-35.5 80.5q0 41 25 73zM156 217q31 -22 98 -48q2 -1 6.5 -2.5t6.5 -2.5q53 17 53 70q0 36 -30 59.5t-91 44.5
q-33 -3 -53 -22t-21 -46q0 -31 31 -53z" />
    <glyph glyph-name="copyright" unicode="&#xa9;" horiz-adv-x="486" 
d="M105 673q57 57 138 57t138 -57t57 -138t-57 -138t-138 -57t-138 57t-57 138t57 138zM122 413q49 -51 121 -51t121.5 50.5t49.5 122.5q0 73 -49 123.5t-119 50.5h-3q-72 0 -121.5 -51t-49.5 -123t50 -122zM173 611q28 28 72 28q23 0 71 -11v-54h-1h-3q-23 48 -61 48
q-28 0 -44.5 -23.5t-16.5 -63.5q0 -39 17 -62t45 -23q35 0 60 47q1 1 3 1h1v-55q-48 -11 -73 -11q-43 0 -71 28.5t-28 74.5q0 47 29 76z" />
    <glyph glyph-name="guillemotleft" unicode="&#xab;" horiz-adv-x="450" 
d="M351 482h53l-172 -205l172 -205h-53l-172 205zM40 277l172 205h53l-172 -205l172 -205h-53z" />
    <glyph glyph-name="registered" unicode="&#xae;" horiz-adv-x="486" 
d="M105 673q57 57 138 57t138 -57t57 -138t-57 -138t-138 -57t-138 57t-57 138t57 138zM122 413q49 -51 121 -51t121.5 50.5t49.5 122.5q0 73 -49 123.5t-119 50.5h-3q-72 0 -121.5 -51t-49.5 -123t50 -122zM170 639h83q29 0 48 -16t19 -38q-1 -38 -48 -51q20 -7 31 -29
q1 -2 6.5 -17.5t9.5 -24.5q10 -20 19 -28h-48q-4 4 -8.5 14.5t-9.5 25.5t-8 22q-9 21 -18 25.5t-31 4.5v-36q0 -8 1 -17t2.5 -15.5t2.5 -12t2 -8.5l1 -3h-54l1 3q1 3 2 8.5t2.5 12t2.5 15.5t1 17v93q0 13 -2.5 27t-4.5 21zM215 621v-75h29q35 0 35 37v2q0 36 -35 36h-29z
" />
    <glyph glyph-name="degree" unicode="&#xb0;" horiz-adv-x="369" 
d="M83 690q40 41 101 41q60 0 101.5 -42t41.5 -99t-41.5 -99t-101.5 -42q-61 0 -101.5 41.5t-40.5 99.5t41 100zM91 590q0 -39 27 -67q26 -28 66 -28t67 28.5t27 66.5t-27 66.5t-67 28.5t-66.5 -28t-26.5 -67z" />
    <glyph glyph-name="plusminus" unicode="&#xb1;" horiz-adv-x="598" 
d="M63 360v38h119q57 0 71.5 1.5t20.5 7.5q5 5 6.5 20t1.5 72v121h40v-122q0 -58 1.5 -72t7.5 -20q8 -8 91 -8h125v-38h-125q-57 0 -71.5 -1.5t-19.5 -7.5q-6 -5 -7.5 -19.5t-1.5 -72.5v-121h-40v121q0 57 -1.5 72t-6.5 20q-6 6 -20.5 7.5t-71.5 1.5h-119zM77 99h437v-38
h-437v38z" />
    <glyph glyph-name="twosuperior" unicode="&#xb2;" horiz-adv-x="271" 
d="M10 365q16 21 46.5 61t43.5 58t33.5 48t29.5 47t16 38t7 38q0 23 -12.5 39.5t-36.5 16.5q-46 0 -97 -80h-1q-2 0 -3 2l-12 70q64 30 115 30q47 0 78.5 -23.5t31.5 -63.5q0 -53 -72 -125l-107 -109h82q61 0 97 25q1 1 2 1q2 0 2 -3l-11 -70h-232z" />
    <glyph glyph-name="threesuperior" unicode="&#xb3;" horiz-adv-x="267" 
d="M17 386l12 71q1 4 3 4q1 0 2 -2q46 -79 94 -79q28 0 45.5 20.5t17.5 51.5q0 37 -27.5 61t-68.5 29v12q40 5 67 29t27 60q0 29 -17 48.5t-44 19.5q-45 0 -93 -75q-1 -2 -2 -2t-2 3l-11 69q59 27 108 27q48 0 86 -24t38 -68q0 -35 -26 -60t-69 -32q46 -7 71.5 -32.5
t25.5 -61.5q0 -47 -39 -72t-88 -25q-52 0 -110 28z" />
    <glyph glyph-name="paragraph" unicode="&#xb6;" horiz-adv-x="613" 
d="M162 659q65 61 156 61h121v-720h-37v277h-84q-97 0 -159.5 60t-62.5 162q0 98 66 160zM476 720h37v-720h-37v720z" />
    <glyph glyph-name="periodcentered" unicode="&#xb7;" horiz-adv-x="248" 
d="M57 344q0 29 21 49.5t50 20.5t50 -20.5t21 -49.5t-21 -50t-50 -21t-50 21t-21 50z" />
    <glyph glyph-name="onesuperior" unicode="&#xb9;" horiz-adv-x="160" 
d="M11 669v14q72 21 117 59v-305q0 -31 11 -71v-2h-80v2q10 55 10 71v232h-58z" />
    <glyph glyph-name="guillemotright" unicode="&#xbb;" horiz-adv-x="450" 
d="M361 277l-172 205h53l172 -205l-172 -205h-53zM50 482h53l172 -205l-172 -205h-53l172 205z" />
    <glyph glyph-name="onequarter" unicode="&#xbc;" horiz-adv-x="577" 
d="M271 81l175 281h53v-257h52v-24h-52v-9q0 -36 11 -74h-82q0 2 3.5 16t6 29t2.5 29v9h-169zM499 754h44l-547 -792h-44zM11 669v14q72 21 117 59v-305q0 -31 11 -71v-2h-80v2q10 55 10 71v232h-58zM313 105h127v201z" />
    <glyph glyph-name="onehalf" unicode="&#xbd;" horiz-adv-x="663" 
d="M540 754h44l-547 -792h-44zM386 -1q16 21 46.5 61t43.5 58t33.5 48t29.5 47t16 38t7 38q0 23 -12.5 39.5t-36.5 16.5q-46 0 -97 -80h-1t-3 2l-12 70q64 30 115 30q47 0 78.5 -23.5t31.5 -63.5q0 -53 -72 -125l-107 -109h82q61 0 97 25q1 1 2 1q2 0 2 -3l-11 -70h-232z
M52 669v14q72 21 117 59v-305q0 -16 10 -71v-2h-80v2q11 40 11 71v232h-58z" />
    <glyph glyph-name="threequarters" unicode="&#xbe;" horiz-adv-x="700" 
d="M584 362h52v-257h52v-24h-52v-9q0 -36 11 -74h-82q12 48 12 74v9h-169zM606 754h44l-547 -792h-44zM17 386l12 71q1 4 3 4q1 0 2 -2q46 -79 94 -79q28 0 45.5 20.5t17.5 51.5q0 37 -27.5 61t-68.5 29v12q40 5 67 29t27 60q0 29 -17 48.5t-44 19.5q-45 0 -93 -75
q-1 -2 -2 -2t-2 3l-11 69q59 27 108 27q48 0 86 -24t38 -68q0 -35 -26 -60t-69 -32q46 -7 71.5 -32.5t25.5 -61.5q0 -47 -39 -72t-88 -25q-52 0 -110 28zM577 105v201l-127 -201h127z" />
    <glyph glyph-name="questiondown" unicode="&#xbf;" horiz-adv-x="491" 
d="M42 8q6 21 22 41t25 30t32.5 31t28.5 25q52 47 76 82t29 82h22q6 -22 6 -44q0 -68 -54 -141q-6 -8 -27.5 -35t-29.5 -39.5t-17.5 -37t-9.5 -48.5q0 -43 28.5 -80t82.5 -37q47 0 97.5 43t93.5 115h5l33 -131q-128 -64 -231 -64q-95 0 -156.5 45.5t-61.5 117.5q0 24 6 45z
M216 517q21 21 50 21t50 -21t21 -50t-21 -49.5t-50 -20.5t-50 20.5t-21 49.5t21 50z" />
    <glyph glyph-name="Agrave" unicode="&#xc0;" horiz-adv-x="665" 
d="M85 176l162 445q8 21 8 42q0 28 -14 55v2h130l217 -571q37 -99 69 -146v-3h-174v4q5 9 5 34q0 11 -2 41t-18 72l-35 94h-278l-24 -66q-18 -61 -18 -104.5t10 -70.5v-4h-114v3q33 54 76 173zM417 285l-127 336l-121 -336h248zM240 949l213 -146l-16 -16l-273 86z" />
    <glyph glyph-name="Aacute" unicode="&#xc1;" horiz-adv-x="665" 
d="M9 3q33 54 76 173l162 445q8 21 8 42q0 28 -14 55v2h130l217 -571q37 -99 69 -146v-3h-174v4q5 9 5 34q0 11 -2 41t-18 72l-35 94h-278l-24 -66q-18 -61 -18 -104.5t10 -70.5v-4h-114v3zM417 285l-127 336l-121 -336h248zM385 953l75 -76l-272 -86l-16 16z" />
    <glyph glyph-name="Acircumflex" unicode="&#xc2;" horiz-adv-x="665" 
d="M9 3q33 54 76 173l162 445q8 21 8 42q0 28 -14 55v2h130l217 -571q37 -99 69 -146v-3h-174v4q5 9 5 34q0 11 -2 41t-18 72l-35 94h-278l-24 -66q-18 -61 -18 -104.5t10 -70.5v-4h-114v3zM169 285h248l-127 336zM137 791l175 148l175 -148l-12 -12l-163 65l-163 -65z" />
    <glyph glyph-name="Atilde" unicode="&#xc3;" horiz-adv-x="665" 
d="M85 176l162 445q8 21 8 42q0 28 -14 55v2h130l217 -571q37 -99 69 -146v-3h-174v4q5 9 5 34q0 11 -2 41t-18 72l-35 94h-278l-24 -66q-18 -61 -18 -104.5t10 -70.5v-4h-114v3q33 54 76 173zM417 285l-127 336l-121 -336h248zM166 868q25 40 75 40q25 0 72.5 -19t72.5 -19
q58 0 98 54q-6 -67 -35.5 -99t-71.5 -32q-26 0 -76 19.5t-74 19.5q-45 0 -83 -51v10q0 41 22 77z" />
    <glyph glyph-name="Adieresis" unicode="&#xc4;" horiz-adv-x="665" 
d="M9 0v3q33 54 76 173l162 445q8 21 8 42q0 28 -14 55v2h130l217 -571q37 -99 69 -146v-3h-174v4q5 9 5 34q0 11 -2 41t-18 72l-35 94h-278l-24 -66q-18 -61 -18 -104.5t10 -70.5v-4h-114zM169 285h248l-127 336zM369 903q19 19 45 19q27 0 46 -19t19 -45q0 -27 -19 -46
t-46 -19q-26 0 -45.5 19t-19.5 46q0 26 20 45zM146 858q0 26 19 45t45 19q27 0 46 -19t19 -45q0 -27 -19 -46t-46 -19q-26 0 -45 19t-19 46z" />
    <glyph glyph-name="Aring" unicode="&#xc5;" horiz-adv-x="665" 
d="M9 0v3q33 54 76 173l162 445q8 21 8 42q0 28 -14 55v2h130l217 -571q37 -99 69 -146v-3h-174v4q5 9 5 34q0 11 -2 41t-18 72l-35 94h-278l-24 -66q-18 -61 -18 -104.5t10 -70.5v-4h-114zM417 285l-127 336l-121 -336h248zM243 941q28 28 69 28q40 0 69 -28.5t29 -68.5
t-28 -68q-29 -29 -70 -29t-69.5 28.5t-28.5 68.5t29 69zM271 830q17 -18 41 -18q23 0 40 18t17 42t-17 42t-40 18q-24 0 -41 -18t-17 -42t17 -42z" />
    <glyph glyph-name="AE" unicode="&#xc6;" horiz-adv-x="994" 
d="M9 0q68 59 104 121l297 502q16 27 19 47.5t3 29.5q0 11 -3 17v3h527v-148h-3q-1 1 -17.5 20t-28 30.5t-30 27.5t-37.5 24.5t-37 8.5h-199v-297h129q51 0 141 43h4v-117h-4q-90 43 -141 43h-129v-318h202q18 0 37 8.5t37.5 24.5t30 27.5t28 30.5t17.5 20h3v-148h-487v3
q22 97 22 142v101h-256l-46 -79q-27 -46 -33 -82t-6 -52q0 -20 6 -29v-4h-150zM494 285v396l-233 -396h233z" />
    <glyph glyph-name="Ccedilla" unicode="&#xc7;" horiz-adv-x="642" 
d="M127 627q96 103 241 103q98 0 228 -48v-142h-6q-41 63 -96 107t-118 44q-96 0 -159 -96t-63 -235t66 -235.5t157 -96.5q56 0 113 43.5t100 107.5h6v-143q-130 -48 -231 -48q-17 0 -25 1l-28 -38q44 -1 74.5 -21t30.5 -57q0 -32 -22.5 -49.5t-57.5 -18.5h-6q-51 0 -85 33
v32q33 -28 60 -28q4 0 21.5 3t17.5 33q0 23 -24 38t-59 17l43 61q-120 22 -197.5 122t-77.5 243q0 164 97 268z" />
    <glyph glyph-name="Egrave" unicode="&#xc8;" horiz-adv-x="566" 
d="M44 0v3q21 92 21 142v430q0 50 -21 142v3h484v-122h-4q-2 2 -20.5 15.5t-32.5 23t-35.5 21.5t-43.5 18.5t-43 6.5h-174v-296h104q20 0 41.5 3t41.5 8t34 9t31 10l19 6h4v-106h-4q-1 0 -26 8.5t-42 13.5t-45.5 10t-53.5 5h-104v-317h177q21 0 43 6.5t43.5 18.5t35.5 21.5
t32.5 23t20.5 15.5h4v-122h-487zM213 949l213 -146l-16 -16l-273 86z" />
    <glyph glyph-name="Eacute" unicode="&#xc9;" horiz-adv-x="566" 
d="M44 0v3q21 92 21 142v430q0 50 -21 142v3h484v-122h-4q-2 2 -20.5 15.5t-32.5 23t-35.5 21.5t-43.5 18.5t-43 6.5h-174v-296h104q20 0 41.5 3t41.5 8t34 9t31 10l19 6h4v-106h-4q-1 0 -26 8.5t-42 13.5t-45.5 10t-53.5 5h-104v-317h177q21 0 43 6.5t43.5 18.5t35.5 21.5
t32.5 23t20.5 15.5h4v-122h-487zM358 953l75 -76l-272 -86l-16 16z" />
    <glyph glyph-name="Ecircumflex" unicode="&#xca;" horiz-adv-x="566" 
d="M44 0v3q21 92 21 142v430q0 50 -21 142v3h484v-122h-4q-2 2 -20.5 15.5t-32.5 23t-35.5 21.5t-43.5 18.5t-43 6.5h-174v-296h104q20 0 41.5 3t41.5 8t34 9t31 10l19 6h4v-106h-4q-1 0 -26 8.5t-42 13.5t-45.5 10t-53.5 5h-104v-317h177q21 0 43 6.5t43.5 18.5t35.5 21.5
t32.5 23t20.5 15.5h4v-122h-487zM110 791l175 148l175 -148l-12 -12l-163 65l-163 -65z" />
    <glyph glyph-name="Edieresis" unicode="&#xcb;" horiz-adv-x="566" 
d="M44 720h484v-122h-4q-2 2 -20.5 15.5t-32.5 23t-35.5 21.5t-43.5 18.5t-43 6.5h-174v-296h104q20 0 41.5 3t41.5 8t34 9t31 10l19 6h4v-106h-4q-1 0 -26 8.5t-42 13.5t-45.5 10t-53.5 5h-104v-317h177q21 0 43 6.5t43.5 18.5t35.5 21.5t32.5 23t20.5 15.5h4v-122h-487v3
q21 92 21 142v430q0 50 -21 142v3zM342 903q19 19 45 19q27 0 46 -19t19 -45q0 -27 -19 -46t-46 -19q-26 0 -45.5 19t-19.5 46q0 26 20 45zM119 858q0 26 19 45t45 19q27 0 46 -19t19 -45q0 -27 -19 -46t-46 -19q-26 0 -45 19t-19 46z" />
    <glyph glyph-name="Igrave" unicode="&#xcc;" horiz-adv-x="266" 
d="M57 0v3q21 92 21 142v430q0 50 -21 142v3h153v-3q-22 -97 -22 -142v-430q0 -45 22 -142v-3h-153zM-13 871l74 76l211 -145l-16 -16z" />
    <glyph glyph-name="Iacute" unicode="&#xcd;" horiz-adv-x="266" 
d="M210 720v-3q-22 -97 -22 -142v-430q0 -45 22 -142v-3h-153v3q21 92 21 142v430q0 50 -21 142v3h153zM204 948l73 -75l-266 -83l-15 15z" />
    <glyph glyph-name="Icircumflex" unicode="&#xce;" horiz-adv-x="266" 
d="M57 0v3q21 92 21 142v430q0 50 -21 142v3h153v-3q-22 -97 -22 -142v-430q0 -45 22 -142v-3h-153zM133 934l171 -144l-12 -12l-159 63l-160 -63l-11 12z" />
    <glyph glyph-name="Idieresis" unicode="&#xcf;" horiz-adv-x="266" 
d="M57 717v3h153v-3q-22 -97 -22 -142v-430q0 -45 22 -142v-3h-153v3q21 92 21 142v430q0 50 -21 142zM169 856q0 26 19 45t45 19q27 0 46 -19t19 -45t-19 -44.5t-46 -18.5q-26 0 -45 18.5t-19 44.5zM-32 856q0 26 19 45t45 19t45 -19t19 -45t-19 -44q-19 -19 -45 -19
t-45 18.5t-19 44.5z" />
    <glyph glyph-name="Eth" unicode="&#xd0;" horiz-adv-x="715" 
d="M19 378h98v197q0 45 -22 142v3h252q139 0 238.5 -100t99.5 -256q0 -162 -99 -263t-239 -101h-252v3q22 97 22 142v193h-98v40zM399 378v-40h-172v-300h92q113 0 177.5 91.5t64.5 230.5v4q-1 139 -65 228.5t-177 89.5h-92v-304h172z" />
    <glyph glyph-name="Ntilde" unicode="&#xd1;" horiz-adv-x="695" 
d="M44 5q1 2 6 18t8.5 27t9 31.5t8.5 37.5t5.5 39t2.5 42v349q0 20 -2.5 41t-8 42t-9 33.5t-10 31t-6.5 19.5v4h135l387 -568v368q0 20 -2.5 42t-5.5 39t-8.5 37.5t-9 31.5t-8.5 27t-6 18v5h122v-5q-1 -2 -6 -18t-8.5 -27t-9 -31.5t-8.5 -37.5t-5.5 -39t-2.5 -42v-520h-72
l-414 607v-407q0 -20 2.5 -42t5.5 -39t8.5 -37.5t9 -31.5t8.5 -27t6 -18v-5h-122v5zM199 868q25 40 75 40q25 0 72 -19t73 -19q58 0 98 54q-6 -67 -35.5 -99t-71.5 -32q-26 0 -76 19.5t-74 19.5q-46 0 -83 -51v10q0 41 22 77z" />
    <glyph glyph-name="Ograve" unicode="&#xd2;" horiz-adv-x="724" 
d="M30 363q0 159 96.5 263t235.5 104q138 0 235 -104t97 -263q0 -160 -97 -267q-97 -108 -235 -108t-235 107.5t-97 267.5zM178 201q24 -76 72.5 -125.5t111.5 -49.5q62 0 110.5 50t73 126t24.5 162q0 131 -57.5 229.5t-150.5 98.5q-63 0 -111.5 -48.5t-72.5 -123
t-24 -158.5q0 -85 24 -161zM290 949l213 -146l-16 -16l-273 86z" />
    <glyph glyph-name="Oacute" unicode="&#xd3;" horiz-adv-x="724" 
d="M30 363q0 159 96.5 263t235.5 104q138 0 235 -104t97 -263q0 -160 -97 -267q-97 -108 -235 -108t-235 107.5t-97 267.5zM178 201q24 -76 72.5 -125.5t111.5 -49.5q62 0 110.5 50t73 126t24.5 162q0 131 -57.5 229.5t-150.5 98.5q-63 0 -111.5 -48.5t-72.5 -123
t-24 -158.5q0 -85 24 -161zM434 953l75 -76l-272 -86l-16 16z" />
    <glyph glyph-name="Ocircumflex" unicode="&#xd4;" horiz-adv-x="724" 
d="M30 363q0 159 96.5 263t235.5 104q138 0 235 -104t97 -263q0 -160 -97 -267.5t-235 -107.5t-235 107.5t-97 267.5zM178 201q24 -76 72.5 -125.5t111.5 -49.5q62 0 110.5 50t73 126t24.5 162q0 131 -57.5 229.5t-150.5 98.5q-63 0 -111.5 -48.5t-72.5 -123t-24 -158.5
q0 -85 24 -161zM187 791l175 148l175 -148l-12 -12l-163 65l-163 -65z" />
    <glyph glyph-name="Otilde" unicode="&#xd5;" horiz-adv-x="724" 
d="M127 626q96 104 235 104q138 0 235 -104t97 -263q0 -160 -97 -267q-97 -108 -235 -108t-235 107.5t-97 267.5q0 159 97 263zM154 362q0 -85 24 -161t72.5 -125.5t111.5 -49.5q62 0 110.5 50t73 126t24.5 162q0 131 -57.5 229.5t-150.5 98.5q-63 0 -111.5 -48.5
t-72.5 -123t-24 -158.5zM215 868q25 40 75 40q26 0 73 -19t72 -19q58 0 98 54q-6 -67 -35.5 -99t-71.5 -32q-26 0 -76 19.5t-74 19.5q-46 0 -83 -51v10q0 41 22 77z" />
    <glyph glyph-name="Odieresis" unicode="&#xd6;" horiz-adv-x="724" 
d="M30 363q0 159 96.5 263t235.5 104q138 0 235 -104t97 -263q0 -160 -97 -267q-97 -108 -235 -108t-235 107.5t-97 267.5zM178 201q24 -76 72.5 -125.5t111.5 -49.5q62 0 110.5 50t73 126t24.5 162q0 131 -57.5 229.5t-150.5 98.5q-63 0 -111.5 -48.5t-72.5 -123
t-24 -158.5q0 -85 24 -161zM419 903q19 19 45 19q27 0 46 -19t19 -45q0 -27 -19 -46t-46 -19q-26 0 -45.5 19t-19.5 46q0 26 20 45zM196 858q0 26 19 45t45 19q27 0 46 -19t19 -45q0 -27 -19 -46t-46 -19q-26 0 -45 19t-19 46z" />
    <glyph glyph-name="multiply" unicode="&#xd7;" horiz-adv-x="473" 
d="M51 177l86 85q41 42 50 52.5t9 18.5q0 9 -9.5 20.5t-49.5 50.5l-84 85l27 26l84 -84q39 -39 51 -49t20 -10t19 9t52 51l86 85l28 -28l-86 -86q-40 -40 -49.5 -51.5t-9.5 -19.5t9 -19t50 -52l88 -88l-26 -27l-89 88q-39 40 -50.5 49.5t-20.5 9.5q-8 0 -18.5 -9t-52.5 -50
l-85 -86z" />
    <glyph glyph-name="Oslash" unicode="&#xd8;" horiz-adv-x="749" 
d="M139 626q96 104 235 104q99 0 180 -56l61 96h41l-74 -118q58 -50 91.5 -125t33.5 -164q0 -164 -97 -269.5t-236 -105.5q-97 0 -176 54l-58 -92h-41l71 113q-60 51 -94 128t-34 172q0 159 97 263zM217 137l297 473q-57 82 -140 82q-93 0 -150.5 -100t-57.5 -230
q0 -131 51 -225zM374 26q94 0 151.5 101t57.5 237q0 122 -48 213l-298 -473q57 -78 137 -78z" />
    <glyph glyph-name="Ugrave" unicode="&#xd9;" horiz-adv-x="666" 
d="M195 720v-3q-22 -97 -22 -142v-305q0 -107 49 -167.5t133 -60.5q80 0 135.5 55.5t55.5 165.5v257q0 73 -38 195v5h117v-5q-1 -2 -7 -22.5t-10 -36t-9 -39.5t-8 -49t-3 -48v-263q0 -130 -73 -199.5t-181 -69.5q-52 0 -99 17t-86 51t-62.5 91t-23.5 130v298q0 50 -21 142v3
h153zM266 949l213 -146l-16 -16l-273 86z" />
    <glyph glyph-name="Uacute" unicode="&#xda;" horiz-adv-x="666" 
d="M195 720v-3q-22 -97 -22 -142v-305q0 -107 49 -167.5t133 -60.5q80 0 135.5 55.5t55.5 165.5v257q0 73 -38 195v5h117v-5q-1 -2 -7 -22.5t-10 -36t-9 -39.5t-8 -49t-3 -48v-263q0 -130 -73 -199.5t-181 -69.5q-52 0 -99 17t-86 51t-62.5 91t-23.5 130v298q0 50 -21 142v3
h153zM411 953l75 -76l-272 -86l-16 16z" />
    <glyph glyph-name="Ucircumflex" unicode="&#xdb;" horiz-adv-x="666" 
d="M195 720v-3q-22 -97 -22 -142v-305q0 -107 49 -167.5t133 -60.5q80 0 135.5 55.5t55.5 165.5v257q0 73 -38 195v5h117v-5q-1 -2 -7 -22.5t-10 -36t-9 -39.5t-8 -49t-3 -48v-263q0 -130 -73 -199.5t-181 -69.5q-52 0 -99 17t-86 51t-62.5 91t-23.5 130v298q0 50 -21 142v3
h153zM163 791l175 148l175 -148l-12 -12l-163 65l-163 -65z" />
    <glyph glyph-name="Udieresis" unicode="&#xdc;" horiz-adv-x="666" 
d="M195 720v-3q-22 -97 -22 -142v-305q0 -107 49 -167.5t133 -60.5q80 0 135.5 55.5t55.5 165.5v257q0 73 -38 195v5h117v-5q-1 -2 -7 -22.5t-10 -36t-9 -39.5t-8 -49t-3 -48v-263q0 -130 -73 -199.5t-181 -69.5q-52 0 -99 17t-86 51t-62.5 91t-23.5 130v298q0 50 -21 142v3
h153zM395 903q19 19 45 19q27 0 46 -19t19 -45q0 -27 -19 -46t-46 -19q-26 0 -45.5 19t-19.5 46q0 26 20 45zM191 903q19 19 45 19q27 0 46 -19t19 -45q0 -27 -19 -46t-46 -19q-26 0 -45 19t-19 46q0 26 19 45z" />
    <glyph glyph-name="Yacute" unicode="&#xdd;" horiz-adv-x="631" 
d="M188 720v-4q-3 -10 -3 -24q0 -15 5 -46t25 -71l133 -264l127 243q24 46 28 80.5t4 48.5q0 23 -6 33v4h118v-3l-19 -28q-15 -23 -31.5 -49.5t-27.5 -49.5l-169 -319v-126q0 -50 21 -142v-3h-154v3q22 97 22 142v122l-170 324q-22 42 -78 125v4h175zM391 953l75 -76
l-272 -86l-16 16z" />
    <glyph glyph-name="Thorn" unicode="&#xde;" horiz-adv-x="537" 
d="M45 717v3h153v-3q-22 -97 -22 -142v-9q52 55 131 55q86 0 143 -65.5t57 -181.5q0 -125 -65 -194.5t-151 -69.5q-65 0 -115 43v-8q0 -45 22 -142v-3h-153v3q21 92 21 142v430q0 50 -21 142zM176 522v-330q38 -28 79 -28q65 0 102 57t37 148q0 82 -33.5 136.5t-95.5 54.5
q-46 0 -89 -38z" />
    <glyph glyph-name="germandbls" unicode="&#xdf;" horiz-adv-x="586" 
d="M40 3q21 92 21 142v392q0 58 19.5 99t54 63t74 31.5t86.5 9.5q85 0 152.5 -38t67.5 -101q0 -31 -17 -56t-41 -41t-47.5 -29.5t-40.5 -29.5t-17 -34q0 -21 22 -41.5t53.5 -39.5t62.5 -41t53 -55.5t22 -73.5q0 -63 -47 -112t-89.5 -53t-51.5 -4q-69 0 -155 51l2 30
q62 -32 108 -32q9 0 39.5 4.5t58 34t27.5 66.5t-32 71t-70 56.5t-70 54t-32 64.5q0 32 26 58t56.5 41.5t56.5 44.5t26 67q0 41 -28.5 71.5t-84.5 30.5q-66 0 -102 -45t-36 -127v-532h-127v3z" />
    <glyph glyph-name="agrave" unicode="&#xe0;" horiz-adv-x="522" 
d="M32 142q0 84 67 122.5t140 38.5q27 0 57 -5q32 -5 47 -10v64q0 55 -23 85t-59 30q-42 0 -105.5 -44t-87.5 -76h-3v117q110 40 201 40q86 0 133.5 -41.5t47.5 -113.5v-243q0 -57 37 -57q12 0 27 5l1 -3q-19 -55 -81 -55q-73 0 -86 72q-57 -76 -153 -76q-74 0 -117 44.5
t-43 105.5zM171 80q30 -30 73 -30q56 0 99 52v157q-8 0 -13 1q-28 5 -53 5q-51 0 -93.5 -27.5t-42.5 -83.5q0 -45 30 -74zM187 730l213 -146l-16 -16l-273 86z" />
    <glyph glyph-name="aacute" unicode="&#xe1;" horiz-adv-x="522" 
d="M32 142q0 84 67 122.5t140 38.5q27 0 57 -5q32 -5 47 -10v64q0 55 -23 85t-59 30q-42 0 -105.5 -44t-87.5 -76h-3v117q110 40 201 40q86 0 133.5 -41.5t47.5 -113.5v-243q0 -57 37 -57q12 0 27 5l1 -3q-19 -55 -81 -55q-73 0 -86 72q-57 -76 -153 -76q-74 0 -117 44.5
t-43 105.5zM171 80q30 -30 73 -30q56 0 99 52v157q-8 0 -13 1q-28 5 -53 5q-51 0 -93.5 -27.5t-42.5 -83.5q0 -45 30 -74zM118 588l213 146l75 -76l-272 -86z" />
    <glyph glyph-name="acircumflex" unicode="&#xe2;" horiz-adv-x="522" 
d="M32 142q0 84 67 122.5t140 38.5q27 0 57 -5q32 -5 47 -10v64q0 55 -23 85t-59 30q-42 0 -105.5 -44t-87.5 -76h-3v117q110 40 201 40q86 0 133.5 -41.5t47.5 -113.5v-243q0 -57 37 -57q12 0 27 5l1 -3q-19 -55 -81 -55q-73 0 -86 72q-57 -76 -153 -76q-74 0 -117 44.5
t-43 105.5zM141 154q0 -45 30 -74.5t73 -29.5q56 0 99 52v157q-8 0 -13 1q-28 5 -53 5q-51 0 -93.5 -27.5t-42.5 -83.5zM89 570l170 143l171 -143l-12 -12l-159 63l-158 -63z" />
    <glyph glyph-name="atilde" unicode="&#xe3;" horiz-adv-x="522" 
d="M110 271q56 32 128 32q28 0 58 -5q32 -5 47 -10v64q0 55 -23 85t-59 30q-42 0 -105.5 -44t-87.5 -76h-3v117q110 40 201 40q86 0 133.5 -41.5t47.5 -113.5v-243q0 -57 37 -57q12 0 27 5l1 -3q-19 -55 -81 -55q-73 0 -86 72q-57 -76 -153 -76q-74 0 -117 44.5t-43 105.5
q0 84 78 129zM141 154q0 -45 30 -74.5t73 -29.5q56 0 99 52v157q-8 0 -13 1q-28 5 -53 5q-51 0 -93.5 -27.5t-42.5 -83.5zM112 649q25 40 75 40q25 0 72 -19t73 -19q58 0 98 54q-6 -67 -35.5 -99t-71.5 -32q-26 0 -76 19.5t-74 19.5q-45 0 -83 -51v10q0 41 22 77z" />
    <glyph glyph-name="adieresis" unicode="&#xe4;" horiz-adv-x="522" 
d="M32 142q0 84 67 122.5t140 38.5q27 0 57 -5q32 -5 47 -10v64q0 55 -23 85t-59 30q-42 0 -105.5 -44t-87.5 -76h-3v117q110 40 201 40q86 0 133.5 -41.5t47.5 -113.5v-243q0 -57 37 -57q12 0 27 5l1 -3q-19 -55 -81 -55q-73 0 -86 72q-57 -76 -153 -76q-74 0 -117 44.5
t-43 105.5zM141 154q0 -45 30 -74.5t73 -29.5q56 0 99 52v157q-8 0 -13 1q-28 5 -53 5q-51 0 -93.5 -27.5t-42.5 -83.5zM295 639q0 26 19.5 45t45.5 19q27 0 46 -19t19 -45q0 -27 -19 -46t-46 -19q-26 0 -45.5 19t-19.5 46zM92 639q0 26 19 45t45 19q27 0 46 -19t19 -45
q0 -27 -19 -46t-46 -19q-26 0 -45 19t-19 46z" />
    <glyph glyph-name="aring" unicode="&#xe5;" horiz-adv-x="522" 
d="M110 271q56 32 128 32q28 0 58 -5q32 -5 47 -10v64q0 55 -23 85t-59 30q-42 0 -105.5 -44t-87.5 -76h-3v117q110 40 201 40q86 0 133.5 -41.5t47.5 -113.5v-243q0 -57 37 -57q12 0 27 5l1 -3q-19 -55 -81 -55q-73 0 -86 72q-57 -76 -153 -76q-74 0 -117 44.5t-43 105.5
q0 84 78 129zM141 154q0 -45 30 -74.5t73 -29.5q56 0 99 52v157q-8 0 -13 1q-28 5 -53 5q-51 0 -93.5 -27.5t-42.5 -83.5zM161 653q0 40 28.5 68.5t69.5 28.5q40 0 69 -28.5t29 -68.5t-28 -68q-29 -29 -70 -29t-69.5 28.5t-28.5 68.5zM201 653q0 -24 17 -42t41 -18
q23 0 40 18t17 42t-17 42t-40 18q-24 0 -41 -18t-17 -42z" />
    <glyph glyph-name="ae" unicode="&#xe6;" horiz-adv-x="829" 
d="M32 142q0 57 42 95.5t100 53t125 14.5h9q15 0 35 -2v49q0 55 -22.5 85.5t-60.5 30.5q-42 0 -105.5 -42.5t-89.5 -74.5v113q110 40 201 40q105 0 153 -62q64 62 162 62q101 0 158 -67.5t57 -172.5h-338q4 -91 47 -146t121 -55q86 0 170 75q-26 -63 -82.5 -104.5
t-131.5 -41.5q-57 0 -107 25t-83 71q-76 -95 -189 -95q-78 0 -124.5 43t-46.5 106zM171 79q29 -29 73 -29q69 0 100 68l-1 150h-1h-6q-87 0 -141 -28t-54 -86q0 -46 30 -75zM691 307q-3 73 -31.5 117.5t-80.5 44.5q-57 0 -88 -50.5t-33 -128.5z" />
    <glyph glyph-name="ccedilla" unicode="&#xe7;" horiz-adv-x="496" 
d="M26 249q0 119 66.5 187t173.5 68q78 0 176 -48l2 -125h-5q-82 138 -171 138q-62 0 -95.5 -56t-33.5 -139q1 -96 45 -153.5t123 -57.5q82 0 157 66l3 -2q-27 -60 -79.5 -97t-122.5 -38l-30 -41q44 -1 74.5 -21t30.5 -57q0 -32 -22.5 -49.5t-57.5 -18.5h-6q-51 0 -85 33v32
q32 -28 60 -28q4 0 21.5 3t17.5 33q0 23 -24 38t-59 17l43 61q-87 12 -144.5 79t-57.5 176z" />
    <glyph glyph-name="egrave" unicode="&#xe8;" horiz-adv-x="509" 
d="M93 434q66 70 169 70q102 0 158.5 -67.5t56.5 -172.5h-338q4 -91 47 -146t121 -55q85 0 165 73l3 -3q-26 -61 -82 -101t-130 -40q-99 0 -168 69.5t-69 187.5q0 115 67 185zM139 290l231 17q-2 73 -29.5 117.5t-79.5 44.5q-58 0 -89 -50.5t-33 -128.5zM185 727l213 -146
l-16 -16l-273 86z" />
    <glyph glyph-name="eacute" unicode="&#xe9;" horiz-adv-x="509" 
d="M26 249q0 115 66.5 185t169.5 70q102 0 158.5 -67.5t56.5 -172.5h-338q4 -91 47 -146t121 -55q85 0 165 73l3 -3q-26 -61 -82 -101t-130 -40q-99 0 -168 69.5t-69 187.5zM370 307q-2 73 -29.5 117.5t-79.5 44.5q-58 0 -89 -50.5t-33 -128.5zM117 585l213 146l75 -76
l-272 -86z" />
    <glyph glyph-name="ecircumflex" unicode="&#xea;" horiz-adv-x="509" 
d="M93 434q66 70 169 70q102 0 158.5 -67.5t56.5 -172.5h-338q4 -91 47 -146t121 -55q85 0 165 73l3 -3q-26 -61 -82 -101t-130 -40q-99 0 -168 69.5t-69 187.5q0 115 67 185zM139 290l231 17q-2 73 -29.5 117.5t-79.5 44.5q-58 0 -89 -50.5t-33 -128.5zM88 567l170 143
l171 -143l-12 -12l-159 63l-158 -63z" />
    <glyph glyph-name="edieresis" unicode="&#xeb;" horiz-adv-x="509" 
d="M93 434q66 70 169 70q102 0 158.5 -67.5t56.5 -172.5h-338q4 -91 47 -146t121 -55q85 0 165 73l3 -3q-26 -61 -82 -101t-130 -40q-99 0 -168 69.5t-69 187.5q0 115 67 185zM139 290l231 17q-2 73 -29.5 117.5t-79.5 44.5q-58 0 -89 -50.5t-33 -128.5zM314 681
q19 19 45 19q27 0 46 -19t19 -45q0 -27 -19 -46t-46 -19q-26 0 -45.5 19t-19.5 46q0 26 20 45zM110 681q19 19 45 19q27 0 46 -19t19 -45q0 -27 -19 -46t-46 -19q-26 0 -45 19t-19 46q0 26 19 45z" />
    <glyph glyph-name="igrave" unicode="&#xec;" horiz-adv-x="237" 
d="M48 3q21 92 21 142l1 208q0 45 -22 142v3h124v-353q0 -21 3 -45t6 -40t7 -34.5t5 -22.5v-3h-145v3zM-24 646l73 74l206 -142l-15 -15z" />
    <glyph glyph-name="iacute" unicode="&#xed;" horiz-adv-x="237" 
d="M172 498v-353q0 -21 3 -45t6 -40t7 -34.5t5 -22.5v-3h-145v3q21 92 21 142l1 208q0 45 -22 142v3h124zM-18 582l207 142l73 -74l-265 -83z" />
    <glyph glyph-name="icircumflex" unicode="&#xee;" horiz-adv-x="237" 
d="M48 0v3q21 92 21 142l1 208q0 45 -22 142v3h124v-353q0 -21 3 -45t6 -40t7 -34.5t5 -22.5v-3h-145zM-47 565l166 140l165 -140l-11 -11l-154 61l-154 -61z" />
    <glyph glyph-name="idieresis" unicode="&#xef;" horiz-adv-x="237" 
d="M48 495v3h124v-353q0 -21 3 -45t6 -40t7 -34.5t5 -22.5v-3h-145v3q21 92 21 142l1 208q0 45 -22 142zM-43 631q0 26 18.5 44.5t44.5 18.5t44.5 -18.5t18.5 -44.5t-18 -44q-19 -18 -45 -18t-44.5 18.5t-18.5 43.5zM155 631q0 26 18.5 44.5t44.5 18.5t44.5 -18.5
t18.5 -44.5t-18 -44q-19 -18 -45 -18t-44.5 18.5t-18.5 43.5z" />
    <glyph glyph-name="eth" unicode="&#xf0;" horiz-adv-x="556" 
d="M375 640q70 -58 108.5 -143.5t38.5 -183.5q0 -160 -68 -242.5t-184 -82.5q-103 0 -173.5 66.5t-70.5 168.5q0 93 59.5 159.5t151.5 66.5q51 0 95 -23t69 -67q-3 133 -87 237l-131 -94l-2 40l110 79q-73 75 -176 109q129 0 232 -69l110 79l2 -40zM270 25q126 0 131 296
q-56 80 -134 80q-61 0 -96.5 -53t-35.5 -128q0 -81 37 -138t98 -57z" />
    <glyph glyph-name="ntilde" unicode="&#xf1;" horiz-adv-x="545" 
d="M40 0v3q21 92 21 142v208q0 50 -21 142v3h125v-85q66 91 162 91q69 0 116 -42t47 -128v-189q0 -45 22 -142v-3h-147v3q22 97 22 142v176q0 57 -29.5 86t-73.5 29h-2q-59 0 -117 -54v-237q0 -50 21 -142v-3h-146zM130 647q25 40 75 40q25 0 72 -19t73 -19q58 0 98 54
q-6 -67 -35.5 -99t-71.5 -32q-26 0 -76 19.5t-74 19.5q-45 0 -83 -51v10q0 41 22 77z" />
    <glyph glyph-name="ograve" unicode="&#xf2;" horiz-adv-x="546" 
d="M26 250q0 118 70.5 186t175.5 68q106 0 177 -68.5t71 -185.5q0 -118 -71 -188q-72 -70 -177 -70t-175.5 69.5t-70.5 188.5zM177 92q34 -65 95 -65t96.5 65t35.5 158q0 92 -35.5 155.5t-96.5 63.5t-95.5 -63t-34.5 -156t35 -158zM200 727l213 -146l-16 -16l-273 86z" />
    <glyph glyph-name="oacute" unicode="&#xf3;" horiz-adv-x="546" 
d="M26 250q0 118 70.5 186t175.5 68q106 0 177 -68.5t71 -185.5q0 -118 -71 -188q-72 -70 -177 -70t-175.5 69.5t-70.5 188.5zM142 250q0 -93 35 -158q34 -65 95 -65t96.5 65t35.5 158q0 92 -35.5 155.5t-96.5 63.5t-95.5 -63t-34.5 -156zM345 731l75 -76l-272 -86l-16 16z
" />
    <glyph glyph-name="ocircumflex" unicode="&#xf4;" horiz-adv-x="546" 
d="M97 436q70 68 175 68q106 0 177 -68.5t71 -185.5q0 -118 -71.5 -188t-176.5 -70t-175.5 69.5t-70.5 188.5q0 118 71 186zM142 250q0 -93 35 -158q34 -65 95 -65t96.5 65t35.5 158q0 92 -35.5 155.5t-96.5 63.5t-95.5 -63t-34.5 -156zM272 717l175 -148l-12 -12l-163 65
l-163 -65l-12 12z" />
    <glyph glyph-name="otilde" unicode="&#xf5;" horiz-adv-x="546" 
d="M26 250q0 118 70.5 186t175.5 68q106 0 177 -68.5t71 -185.5q0 -118 -71 -188q-72 -70 -177 -70t-175.5 69.5t-70.5 188.5zM177 92q34 -65 95 -65t96.5 65t35.5 158q0 92 -35.5 155.5t-96.5 63.5t-95.5 -63t-34.5 -156t35 -158zM126 646q25 40 75 40q25 0 72.5 -19
t72.5 -19q58 0 98 54q-6 -67 -35.5 -99t-71.5 -32q-26 0 -76 19.5t-74 19.5q-45 0 -83 -51v10q0 41 22 77z" />
    <glyph glyph-name="odieresis" unicode="&#xf6;" horiz-adv-x="546" 
d="M26 250q0 118 70.5 186t175.5 68q106 0 177 -68.5t71 -185.5q0 -118 -71 -188q-72 -70 -177 -70t-175.5 69.5t-70.5 188.5zM142 250q0 -93 35 -158q34 -65 95 -65t96.5 65t35.5 158q0 92 -35.5 155.5t-96.5 63.5t-95.5 -63t-34.5 -156zM309 636q0 26 19.5 45t45.5 19
q27 0 46 -19t19 -45q0 -27 -19 -46t-46 -19q-26 0 -45.5 19t-19.5 46zM106 636q0 26 19 45t45 19q27 0 46 -19t19 -45q0 -27 -19 -46t-46 -19q-26 0 -45 19t-19 46z" />
    <glyph glyph-name="divide" unicode="&#xf7;" horiz-adv-x="552" 
d="M275 442q-22 0 -37.5 16.5t-15.5 38.5q0 21 16 38t37 17q22 0 38 -16.5t16 -38.5t-16 -38.5t-38 -16.5zM51 311v40h450v-40h-450zM275 109q-21 0 -37 16.5t-16 37.5q0 22 15.5 38.5t37.5 16.5t38 -16t16 -39q0 -22 -16 -38t-38 -16z" />
    <glyph glyph-name="oslash" unicode="&#xf8;" horiz-adv-x="546" 
d="M26 250q0 118 70.5 186t175.5 68q75 0 134 -35l53 82h40l-66 -101q87 -72 87 -200q0 -118 -71.5 -188t-176.5 -70q-64 0 -117 27l-48 -74h-40l59 92q-100 72 -100 213zM142 250q0 -84 28 -145l197 304q-36 60 -95 60q-61 0 -95.5 -63t-34.5 -156zM189 72q34 -45 83 -45
q61 0 96.5 65t35.5 158q0 68 -20 123z" />
    <glyph glyph-name="ugrave" unicode="&#xf9;" horiz-adv-x="536" 
d="M159 498v-323q0 -57 29 -85.5t74 -28.5q58 0 118 52q-2 22 -2 31v209q0 50 -21 142v3h125v-353q0 -50 21 -142v-3h-105q-6 20 -16 86q-69 -94 -163 -94q-69 0 -116 42.5t-47 128.5v190q0 45 -22 142v3h125zM119 651l76 76l213 -146l-16 -16z" />
    <glyph glyph-name="uacute" unicode="&#xfa;" horiz-adv-x="536" 
d="M159 498v-323q0 -57 29 -85.5t74 -28.5q58 0 118 52q-2 22 -2 31v209q0 50 -21 142v3h125v-353q0 -50 21 -142v-3h-105q-6 20 -16 86q-69 -94 -163 -94q-69 0 -116 42.5t-47 128.5v190q0 45 -22 142v3h125zM127 585l213 146l75 -76l-272 -86z" />
    <glyph glyph-name="ucircumflex" unicode="&#xfb;" horiz-adv-x="536" 
d="M159 498v-323q0 -57 29 -85.5t74 -28.5q58 0 118 52q-2 22 -2 31v209q0 50 -21 142v3h125v-353q0 -50 21 -142v-3h-105q-6 20 -16 86q-69 -94 -163 -94q-69 0 -116 42.5t-47 128.5v190q0 45 -22 142v3h125zM98 567l170 143l171 -143l-12 -12l-159 63l-158 -63z" />
    <glyph glyph-name="udieresis" unicode="&#xfc;" horiz-adv-x="536" 
d="M34 498h125v-323q0 -57 29 -85.5t74 -28.5q58 0 118 52q-2 22 -2 31v209q0 50 -21 142v3h125v-353q0 -50 21 -142v-3h-105q-6 20 -16 86q-69 -94 -163 -94q-69 0 -116 42.5t-47 128.5v190q0 45 -22 142v3zM304 636q0 26 19.5 45t45.5 19q27 0 46 -19t19 -45
q0 -27 -19 -46t-46 -19q-26 0 -45.5 19t-19.5 46zM120 681q19 19 45 19q27 0 46 -19t19 -45q0 -27 -19 -46t-46 -19q-26 0 -45 19t-19 46q0 26 19 45z" />
    <glyph glyph-name="yacute" unicode="&#xfd;" horiz-adv-x="523" 
d="M11 498h183v-3q-9 -21 -9.5 -36.5t-0.5 -16.5q0 -30 15 -73l109 -251l99 249q13 41 13 70q0 3 -1 20t-10 38v3h102v-3q-31 -47 -55 -105l-191 -478q-44 -111 -138 -111q-40 0 -89 20l22 102l2 1q22 -21 45.5 -34t37.5 -15t19 -2q18 0 37 12.5t32 44.5l22 56l-168 381
q-40 91 -76 128v3zM339 731l75 -76l-272 -86l-16 16z" />
    <glyph glyph-name="thorn" unicode="&#xfe;" horiz-adv-x="535" 
d="M62 -55v600q0 50 -21 142v3h131v-1q-5 -20 -5 -28v-223q53 66 140 66q85 0 140.5 -65.5t55.5 -181.5q0 -126 -63 -195t-149 -69q-73 0 -124 51v-99q0 -45 22 -142v-3h-148v3q21 92 21 142zM167 396v-314q42 -35 88 -35q64 0 99.5 57t35.5 148q0 82 -32 136.5t-93 54.5
q-53 0 -98 -47z" />
    <glyph glyph-name="ydieresis" unicode="&#xff;" horiz-adv-x="523" 
d="M11 498h183v-3q-9 -21 -9.5 -36.5t-0.5 -16.5q0 -30 15 -73l109 -251l99 249q13 41 13 70q0 3 -1 20t-10 38v3h102v-3q-31 -47 -55 -105l-191 -478q-44 -111 -138 -111q-40 0 -89 20l22 102l2 1q22 -21 45.5 -34t37.5 -15t19 -2q18 0 37 12.5t32 44.5l22 56l-168 381
q-40 91 -76 128v3zM303 636q0 26 19.5 45t45.5 19q27 0 46 -19t19 -45q0 -27 -19 -46t-46 -19q-26 0 -45.5 19t-19.5 46zM100 636q0 26 19 45t45 19q27 0 46 -19t19 -45q0 -27 -19 -46t-46 -19q-26 0 -45 19t-19 46z" />
    <glyph glyph-name="Amacron" unicode="&#x100;" horiz-adv-x="665" 
d="M85 176l162 445q8 21 8 42q0 28 -14 55v2h130l217 -571q37 -99 69 -146v-3h-174v4q5 9 5 34q0 11 -2 41t-18 72l-35 94h-278l-24 -66q-18 -61 -18 -104.5t10 -70.5v-4h-114v3q33 54 76 173zM417 285l-127 336l-121 -336h248zM466 869v-38h-304v38h304z" />
    <glyph glyph-name="amacron" unicode="&#x101;" horiz-adv-x="522" 
d="M110 271q56 32 128 32q28 0 58 -5q32 -5 47 -10v64q0 55 -23 85t-59 30q-42 0 -105.5 -44t-87.5 -76h-3v117q110 40 201 40q86 0 133.5 -41.5t47.5 -113.5v-243q0 -57 37 -57q12 0 27 5l1 -3q-19 -55 -81 -55q-73 0 -86 72q-57 -76 -153 -76q-74 0 -117 44.5t-43 105.5
q0 84 78 129zM171 80q30 -30 73 -30q56 0 99 52v157q-8 0 -13 1q-28 5 -53 5q-51 0 -93.5 -27.5t-42.5 -83.5q0 -45 30 -74zM413 650v-38h-304v38h304z" />
    <glyph glyph-name="Abreve" unicode="&#x102;" horiz-adv-x="665" 
d="M9 3q33 54 76 173l162 445q8 21 8 42q0 28 -14 55v2h130l217 -571q37 -99 69 -146v-3h-174v4q5 9 5 34q0 11 -2 41t-18 72l-35 94h-278l-24 -66q-18 -61 -18 -104.5t10 -70.5v-4h-114v3zM169 285h248l-127 336zM155 930h17q18 -41 57.5 -59.5t82.5 -18.5q42 0 81.5 18.5
t57.5 59.5h17q0 -60 -45.5 -101.5t-110.5 -41.5q-66 0 -111.5 41.5t-45.5 101.5z" />
    <glyph glyph-name="abreve" unicode="&#x103;" horiz-adv-x="522" 
d="M32 142q0 84 67 122.5t140 38.5q27 0 57 -5q32 -5 47 -10v64q0 55 -23 85t-59 30q-42 0 -105.5 -44t-87.5 -76h-3v117q110 40 201 40q86 0 133.5 -41.5t47.5 -113.5v-243q0 -57 37 -57q12 0 27 5l1 -3q-19 -55 -81 -55q-73 0 -86 72q-57 -76 -153 -76q-74 0 -117 44.5
t-43 105.5zM141 154q0 -45 30 -74.5t73 -29.5q56 0 99 52v157q-8 0 -13 1q-28 5 -53 5q-51 0 -93.5 -27.5t-42.5 -83.5zM119 711q18 -41 57.5 -59.5t82.5 -18.5q42 0 81.5 18.5t57.5 59.5h17q0 -60 -45.5 -101.5t-110.5 -41.5q-66 0 -111.5 41.5t-45.5 101.5h17z" />
    <glyph glyph-name="Aogonek" unicode="&#x104;" horiz-adv-x="665" 
d="M85 176l162 445q8 21 8 42q0 28 -14 55v2h130l217 -571q37 -99 69 -146v-3h-65q-24 -17 -38 -42t-14 -48q0 -36 19.5 -39t25.5 -3q28 0 61 23v-23q-49 -45 -101 -45q-38 0 -58.5 21t-20.5 52q0 32 22 60.5t57 43.5h-62v4q5 9 5 34q0 11 -2 41t-18 72l-35 94h-278l-24 -66
q-18 -61 -18 -104.5t10 -70.5v-4h-114v3q33 54 76 173zM169 285h248l-127 336z" />
    <glyph glyph-name="aogonek" unicode="&#x105;" horiz-adv-x="522" 
d="M110 271q56 32 128 32q28 0 58 -5q32 -5 47 -10v64q0 55 -23 85t-59 30q-42 0 -105.5 -44t-87.5 -76h-3v117q110 40 201 40q86 0 133.5 -41.5t47.5 -113.5v-243q0 -57 37 -57q12 0 27 5l1 -3q-18 -49 -70 -54q-25 -17 -39 -42.5t-14 -48.5q0 -36 19.5 -39t25.5 -3
q28 0 61 23v-23q-49 -45 -101 -45q-38 0 -58.5 21t-20.5 52q0 34 25 63.5t63 44.5q-49 13 -58 68q-57 -76 -153 -76q-74 0 -117 44.5t-43 105.5q0 84 78 129zM141 154q0 -45 30 -74.5t73 -29.5q56 0 99 52v157q-8 0 -13 1q-28 5 -53 5q-51 0 -93.5 -27.5t-42.5 -83.5z" />
    <glyph glyph-name="Cacute" unicode="&#x106;" horiz-adv-x="642" 
d="M127 627q96 103 241 103q98 0 228 -48v-142h-6q-41 63 -96 107t-118 44q-96 0 -159 -96t-63 -235t66 -235.5t157 -96.5q56 0 113 43.5t100 107.5h6v-143q-130 -48 -231 -48q-141 0 -238 104.5t-97 266.5q0 164 97 268zM207 807l213 146l75 -76l-272 -86z" />
    <glyph glyph-name="cacute" unicode="&#x107;" horiz-adv-x="496" 
d="M93 436q66 68 173 68q78 0 176 -48l2 -125h-5q-82 138 -171 138q-62 0 -95.5 -56t-33.5 -139q1 -96 45 -153.5t123 -57.5q82 0 157 66l3 -2q-27 -60 -80.5 -97.5t-124.5 -37.5q-98 0 -167 68.5t-69 188.5q0 119 67 187zM331 731l75 -76l-272 -86l-16 16z" />
    <glyph glyph-name="Ccaron" unicode="&#x10c;" horiz-adv-x="642" 
d="M127 627q96 103 241 103q98 0 228 -48v-142h-6q-41 63 -96 107t-118 44q-96 0 -159 -96t-63 -235t66 -235.5t157 -96.5q56 0 113 43.5t100 107.5h6v-143q-130 -48 -231 -48q-141 0 -238 104.5t-97 266.5q0 164 97 268zM173 932l12 12l163 -65l163 65l12 -12l-175 -148z
" />
    <glyph glyph-name="ccaron" unicode="&#x10d;" horiz-adv-x="496" 
d="M26 249q0 119 66.5 187t173.5 68q78 0 176 -48l2 -125h-5q-82 138 -171 138q-62 0 -95.5 -56t-33.5 -139q1 -96 45 -153.5t123 -57.5q82 0 157 66l3 -2q-27 -60 -80.5 -97.5t-124.5 -37.5q-98 0 -167 68.5t-69 188.5zM89 703l12 12l158 -63l159 63l12 -12l-171 -143z" />
    <glyph glyph-name="Dcaron" unicode="&#x10e;" horiz-adv-x="664" 
d="M44 717v3h251q140 0 239.5 -100t99.5 -256q0 -162 -99.5 -263t-239.5 -101h-251v3q21 92 21 142v430q0 50 -21 142zM175 683v-646h93q113 0 177.5 92t64.5 231v4q-1 138 -65.5 228.5t-176.5 90.5h-93zM130 944l163 -65l163 65l12 -12l-175 -148l-175 148z" />
    <glyph glyph-name="dcaron" unicode="&#x10f;" horiz-adv-x="677" 
d="M29 245q0 123 61 190.5t147 67.5q89 0 141 -70v152q0 64 -28 138l-1 3l133 18v-599q0 -45 22 -142v-3h-98q-2 8 -7.5 22.5t-9.5 27.5t-7 27q-57 -85 -154 -85q-84 0 -141.5 67t-57.5 186zM174 106q31 -58 94 -58q57 0 111 59q-1 7 -1 23v265q-47 49 -103 49
q-62 0 -97.5 -53.5t-35.5 -141.5q0 -86 32 -143zM543 712q21 19 50 19q33 0 56 -26t23 -66q0 -47 -32.5 -89t-83.5 -60h-27q37 21 55 52.5t18 53.5l-5 -1h-3q-31 0 -52 19.5t-21 49.5q1 28 22 48z" />
    <glyph glyph-name="Dcroat" unicode="&#x110;" horiz-adv-x="715" 
d="M19 378h98v197q0 45 -22 142v3h252q139 0 238.5 -100t99.5 -256q0 -162 -99 -263t-239 -101h-252v3q22 97 22 142v193h-98v40zM399 378v-40h-172v-300h92q113 0 177.5 91.5t64.5 230.5v4q-1 139 -65 228.5t-177 89.5h-92v-304h172z" />
    <glyph glyph-name="dcroat" unicode="&#x111;" horiz-adv-x="544" 
d="M29 245q0 123 61 190.5t147 67.5q89 0 141 -70v164h-180v37h176q-7 46 -24 89l-1 3l133 18v-110h72v-37h-72v-452q0 -45 22 -142v-3h-98q-2 8 -7.5 22.5t-9.5 27.5t-7 27q-57 -85 -154 -85q-84 0 -141.5 67t-57.5 186zM142 249q0 -86 31.5 -143.5t94.5 -57.5q57 0 111 59
q-1 7 -1 23v265q-47 49 -103 49q-62 0 -97.5 -53.5t-35.5 -141.5z" />
    <glyph glyph-name="Emacron" unicode="&#x112;" horiz-adv-x="566" 
d="M44 0v3q21 92 21 142v430q0 50 -21 142v3h484v-122h-4q-2 2 -20.5 15.5t-32.5 23t-35.5 21.5t-43.5 18.5t-43 6.5h-174v-296h104q20 0 41.5 3t41.5 8t34 9t31 10l19 6h4v-106h-4q-1 0 -26 8.5t-42 13.5t-45.5 10t-53.5 5h-104v-317h177q21 0 43 6.5t43.5 18.5t35.5 21.5
t32.5 23t20.5 15.5h4v-122h-487zM439 869v-38h-304v38h304z" />
    <glyph glyph-name="emacron" unicode="&#x113;" horiz-adv-x="509" 
d="M26 249q0 115 66.5 185t169.5 70q102 0 158.5 -67.5t56.5 -172.5h-338q4 -91 47 -146t121 -55q85 0 165 73l3 -3q-26 -61 -82 -101t-130 -40q-99 0 -168 69.5t-69 187.5zM370 307q-2 73 -29.5 117.5t-79.5 44.5q-58 0 -89 -50.5t-33 -128.5zM108 609v38h304v-38h-304z
" />
    <glyph glyph-name="Edotaccent" unicode="&#x116;" horiz-adv-x="566" 
d="M528 720v-122h-4q-2 2 -20.5 15.5t-32.5 23t-35.5 21.5t-43.5 18.5t-43 6.5h-174v-296h104q20 0 41.5 3t41.5 8t34 9t31 10l19 6h4v-106h-4q-1 0 -26 8.5t-42 13.5t-45.5 10t-53.5 5h-104v-317h177q21 0 43 6.5t43.5 18.5t35.5 21.5t32.5 23t20.5 15.5h4v-122h-487v3
q21 92 21 142v430q0 50 -21 142v3h484zM211 897q0 30 21 50.5t51 20.5t51 -20.5t21 -50.5q0 -29 -21 -49q-22 -21 -51 -21t-50.5 20.5t-21.5 49.5z" />
    <glyph glyph-name="edotaccent" unicode="&#x117;" horiz-adv-x="509" 
d="M93 434q66 70 169 70q102 0 158.5 -67.5t56.5 -172.5h-338q4 -91 47 -146t121 -55q85 0 165 73l3 -3q-26 -61 -82 -101t-130 -40q-99 0 -168 69.5t-69 187.5q0 115 67 185zM139 290l231 17q-2 73 -29.5 117.5t-79.5 44.5q-58 0 -89 -50.5t-33 -128.5zM204 726
q21 20 51 20t51 -20.5t21 -50.5q0 -29 -21 -49q-22 -21 -51 -21t-50.5 20.5t-21.5 49.5q0 30 21 51z" />
    <glyph glyph-name="Eogonek" unicode="&#x118;" horiz-adv-x="566" 
d="M528 720v-122h-4q-2 2 -20.5 15.5t-32.5 23t-35.5 21.5t-43.5 18.5t-43 6.5h-174v-296h104q20 0 41.5 3t41.5 8t34 9t31 10l19 6h4v-106h-4q-1 0 -26 8.5t-42 13.5t-45.5 10t-53.5 5h-104v-317h177q21 0 43 6.5t43.5 18.5t35.5 21.5t32.5 23t20.5 15.5h4v-122h-38
q-24 -17 -38 -42t-14 -48q0 -36 19.5 -39t25.5 -3q28 0 61 23v-23q-49 -45 -101 -45q-38 0 -58.5 21t-20.5 52q0 32 22 60.5t57 43.5h-402v3q21 92 21 142v430q0 50 -21 142v3h484z" />
    <glyph glyph-name="eogonek" unicode="&#x119;" horiz-adv-x="509" 
d="M93 434q66 70 169 70q102 0 158.5 -67.5t56.5 -172.5h-338q4 -91 47 -146t121 -55q85 0 165 73l3 -3q-41 -95 -136 -129q-27 -17 -43 -43.5t-16 -50.5q0 -36 19.5 -39t25.5 -3q28 0 61 23v-23q-49 -45 -101 -45q-38 0 -58.5 21t-20.5 52q0 59 64 96h-7q-99 0 -168 69.5
t-69 187.5q0 115 67 185zM139 290l231 17q-2 73 -29.5 117.5t-79.5 44.5q-58 0 -89 -50.5t-33 -128.5z" />
    <glyph glyph-name="Ecaron" unicode="&#x11a;" horiz-adv-x="566" 
d="M44 0v3q21 92 21 142v430q0 50 -21 142v3h484v-122h-4q-2 2 -20.5 15.5t-32.5 23t-35.5 21.5t-43.5 18.5t-43 6.5h-174v-296h104q20 0 41.5 3t41.5 8t34 9t31 10l19 6h4v-106h-4q-1 0 -26 8.5t-42 13.5t-45.5 10t-53.5 5h-104v-317h177q21 0 43 6.5t43.5 18.5t35.5 21.5
t32.5 23t20.5 15.5h4v-122h-487zM110 932l12 12l163 -65l163 65l12 -12l-175 -148z" />
    <glyph glyph-name="ecaron" unicode="&#x11b;" horiz-adv-x="509" 
d="M26 249q0 115 66.5 185t169.5 70q102 0 158.5 -67.5t56.5 -172.5h-338q4 -91 47 -146t121 -55q85 0 165 73l3 -3q-26 -61 -82 -101t-130 -40q-99 0 -168 69.5t-69 187.5zM139 290l231 17q-2 73 -29.5 117.5t-79.5 44.5q-58 0 -89 -50.5t-33 -128.5zM100 715l158 -63
l159 63l12 -12l-171 -143l-170 143z" />
    <glyph glyph-name="uni0122" unicode="&#x122;" horiz-adv-x="696" 
d="M30 359q0 158 102 264.5t248 106.5q112 0 236 -55v-143h-7q-38 56 -98 106.5t-130 51.5h-2q-98 0 -160.5 -91.5t-62.5 -237.5q0 -147 65.5 -239.5t162.5 -93.5q68 0 140 43v135q0 14 -3 29.5t-6.5 28t-10 27.5t-10.5 22.5t-10 19.5l-7 14v3h185v-3q-28 -88 -28 -141v-151
q-150 -67 -264 -67q-141 0 -240.5 105.5t-99.5 265.5zM311 -108q0 27 19.5 45t46.5 18q31 0 52.5 -24t21.5 -62q0 -43 -30.5 -83t-77.5 -56h-26q35 19 52 49t17 50l-5 -1h-3q-28 0 -47.5 17.5t-19.5 43.5v3z" />
    <glyph glyph-name="uni0123" unicode="&#x123;" horiz-adv-x="503" 
d="M75 6q-37 25 -37 75q0 77 83 102q-87 49 -87 146q0 80 62 127.5t142 47.5q61 0 113 -28q38 73 116 73q13 0 28 -2l-16 -85l-3 -2q-29 16 -59 16q-24 0 -49 -10q76 -50 76 -137q0 -81 -63 -129t-143 -48q-46 0 -89 17q-44 -15 -44 -46q0 -38 76 -38h163q68 0 108.5 -35.5
t40.5 -98.5q0 -46 -24 -78t-64.5 -46.5t-77.5 -20.5t-79 -6q-35 0 -69 5t-70 16.5t-58 36.5t-22 60q0 53 46 88zM138 328q0 -64 27.5 -103.5t72.5 -39.5t73 40t28 103q0 64 -28 104q-28 39 -73 39t-72.5 -39.5t-27.5 -103.5zM138 -134q42 -31 121 -31q71 0 115.5 25t44.5 62
q0 27 -19.5 44t-57.5 17h-170q-41 0 -68 9q-8 -16 -8 -42v-2q0 -51 42 -82zM197 734q32 42 83 61h28q-37 -21 -55 -53t-18 -53l5 1h3q30 0 51 -19.5t21 -49.5q0 -29 -21 -48.5t-50 -19.5q-33 0 -56 26t-23 66q0 47 32 89z" />
    <glyph glyph-name="Imacron" unicode="&#x12a;" horiz-adv-x="266" 
d="M57 720h153v-3q-22 -97 -22 -142v-430q0 -45 22 -142v-3h-153v3q21 92 21 142v430q0 50 -21 142v3zM-15 867h300v-37h-300v37z" />
    <glyph glyph-name="imacron" unicode="&#x12b;" horiz-adv-x="237" 
d="M48 498h124v-353q0 -21 3 -45t6 -40t7 -34.5t5 -22.5v-3h-145v3q21 92 21 142l1 208q0 45 -22 142v3zM268 643v-37h-295v37h295z" />
    <glyph glyph-name="Iogonek" unicode="&#x12e;" horiz-adv-x="266" 
d="M46 -104q0 32 22 60.5t57 43.5h-68v3q21 92 21 142v430q0 50 -21 142v3h153v-3q-22 -97 -22 -142v-430q0 -45 22 -142v-3h-38q-24 -17 -38 -42t-14 -48q0 -36 19.5 -39t25.5 -3q28 0 61 23v-23q-49 -45 -101 -45q-38 0 -58.5 21t-20.5 52z" />
    <glyph glyph-name="iogonek" unicode="&#x12f;" horiz-adv-x="237" 
d="M51 -44q22 29 57 44h-60v3q21 92 21 142l1 208q0 45 -22 142v3h124v-353q0 -21 3 -45t6 -40t7 -34.5t5 -22.5v-3h-38q-24 -17 -38 -42t-14 -48q0 -36 19.5 -39t25.5 -3q28 0 61 23v-23q-49 -45 -101 -45q-38 0 -58.5 21t-20.5 52q0 32 22 60zM44 675q0 30 21 50.5
t51 20.5t51 -20.5t21 -50.5q0 -29 -21 -49q-22 -21 -51 -21t-50.5 20.5t-21.5 49.5z" />
    <glyph glyph-name="dotlessi" unicode="&#x131;" horiz-adv-x="237" 
d="M172 498v-353q0 -21 3 -45t6 -40t7 -34.5t5 -22.5v-3h-145v3q21 92 21 142l1 208q0 45 -22 142v3h124z" />
    <glyph glyph-name="uni0136" unicode="&#x136;" horiz-adv-x="652" 
d="M44 3q21 92 21 142v430q0 50 -21 142v3h153v-3q-22 -97 -22 -142v-430q0 -45 22 -142v-3h-153v3zM197 372l203 196q44 42 58 76.5t14 54.5q0 12 -4 21v5h155v-4q-34 -26 -85 -74l-244 -233l261 -317q47 -61 88 -94v-3h-171q-5 5 -21 40.5t-33 57.5l-222 268q-1 1 -1 2
q0 2 2 4zM253 -104q0 27 19.5 45t46.5 18q31 0 52.5 -24t21.5 -62q0 -43 -30.5 -83t-77.5 -56h-26q35 19 52 49t17 50l-5 -1h-3q-28 0 -47.5 17.5t-19.5 43.5v3z" />
    <glyph glyph-name="uni0137" unicode="&#x137;" horiz-adv-x="514" 
d="M170 744v-599q0 -50 21 -142v-3h-147v3q22 97 22 142v440q0 75 -25 138v4zM296 366q26 24 40.5 49.5t14.5 44.5t-6 34v4h153v-4l-216 -188l223 -302v-4h-125l-193 269zM198 -104q0 27 19.5 45t46.5 18q31 0 52.5 -24t21.5 -62q0 -43 -30.5 -83t-77.5 -56h-26q35 19 52 49
t17 50l-5 -1h-3q-28 0 -47.5 17.5t-19.5 43.5v3z" />
    <glyph glyph-name="Lacute" unicode="&#x139;" horiz-adv-x="525" 
d="M44 3q21 92 21 142v430q0 50 -21 142v3h153v-3q-22 -97 -22 -142v-538h146q26 0 55.5 15t50 32t42.5 38t27 25h5v-147h-457v3zM344 953l75 -76l-272 -86l-16 16z" />
    <glyph glyph-name="lacute" unicode="&#x13a;" horiz-adv-x="224" 
d="M37 723v4l129 17v-599q0 -50 21 -142v-3h-147v3q22 97 22 142v440q0 75 -25 138zM-27 868l213 146l75 -76l-272 -86z" />
    <glyph glyph-name="uni013B" unicode="&#x13b;" horiz-adv-x="525" 
d="M44 3q21 92 21 142v430q0 50 -21 142v3h153v-3q-22 -97 -22 -142v-538h146q26 0 55.5 15t50 32t42.5 38t27 25h5v-147h-457v3zM203 -104q0 27 19.5 45t46.5 18q31 0 52.5 -24t21.5 -62q0 -43 -30.5 -83t-77.5 -56h-26q35 19 52 49t17 50l-5 -1h-3q-28 0 -47.5 17.5
t-19.5 43.5v3z" />
    <glyph glyph-name="uni013C" unicode="&#x13c;" horiz-adv-x="224" 
d="M37 723v4l129 17v-599q0 -50 21 -142v-3h-147v3q22 97 22 142v440q0 75 -25 138zM45 -104q0 27 19.5 45t46.5 18q31 0 52.5 -24t21.5 -62q0 -43 -30.5 -83t-77.5 -56h-26q35 19 52 49t17 50l-5 -1h-3q-28 0 -47.5 17.5t-19.5 43.5v3z" />
    <glyph glyph-name="Lcaron" unicode="&#x13d;" horiz-adv-x="525" 
d="M197 720v-3q-22 -97 -22 -142v-538h146q26 0 55.5 15t50 32t42.5 38t27 25h5v-147h-457v3q21 92 21 142v430q0 50 -21 142v3h153zM310 664q1 28 21.5 47.5t49.5 19.5q34 0 56.5 -25.5t22.5 -66.5q0 -47 -32 -89t-83 -60h-28q38 21 56 52.5t18 53.5l-6 -1h-3
q-30 0 -51 19.5t-21 49.5z" />
    <glyph glyph-name="lcaron" unicode="&#x13e;" horiz-adv-x="370" 
d="M37 727l129 17v-599q0 -50 21 -142v-3h-147v3q22 97 22 142v440q0 75 -25 138v4zM229 714q21 19 50 19q33 0 56 -26t23 -66q0 -47 -32.5 -89.5t-83.5 -60.5h-27q37 21 55 52.5t18 53.5l-5 -1h-3q-30 0 -51.5 19.5t-21.5 49.5q1 29 22 49z" />
    <glyph glyph-name="Lslash" unicode="&#x141;" horiz-adv-x="583" 
d="M110 335v240q0 50 -21 142v3h153v-3q-22 -97 -22 -142v-177l204 118v-40l-204 -118v-321h146q26 0 55.5 15t50 32t42.5 38t27 25h5v-147h-457v3q21 92 21 142v150l-92 -53v40z" />
    <glyph glyph-name="lslash" unicode="&#x142;" horiz-adv-x="350" 
d="M6 289l108 65v231q0 69 -24 138l-1 4l129 17v-328l126 75v-44l-126 -75v-227q0 -45 22 -142v-3h-147v3q21 92 21 142v165l-108 -65v44z" />
    <glyph glyph-name="Nacute" unicode="&#x143;" horiz-adv-x="695" 
d="M44 5q1 2 6 18t8.5 27t9 31.5t8.5 37.5t5.5 39t2.5 42v349q0 20 -2.5 41t-8 42t-9 33.5t-10 31t-6.5 19.5v4h135l387 -568v368q0 20 -2.5 42t-5.5 39t-8.5 37.5t-9 31.5t-8.5 27t-6 18v5h122v-5q-1 -2 -6 -18t-8.5 -27t-9 -31.5t-8.5 -37.5t-5.5 -39t-2.5 -42v-520h-72
l-414 607v-407q0 -20 2.5 -42t5.5 -39t8.5 -37.5t9 -31.5t8.5 -27t6 -18v-5h-122v5zM205 807l213 146l75 -76l-272 -86z" />
    <glyph glyph-name="nacute" unicode="&#x144;" horiz-adv-x="545" 
d="M61 145v208q0 50 -21 142v3h125v-85q66 91 162 91q69 0 116 -42t47 -128v-189q0 -45 22 -142v-3h-147v3q22 97 22 142v176q0 57 -29.5 86t-73.5 29h-2q-59 0 -117 -54v-237q0 -50 21 -142v-3h-146v3q21 92 21 142zM349 732l75 -76l-272 -86l-16 16z" />
    <glyph glyph-name="uni0145" unicode="&#x145;" horiz-adv-x="695" 
d="M44 5q1 2 6 18t8.5 27t9 31.5t8.5 37.5t5.5 39t2.5 42v349q0 20 -2.5 41t-8 42t-9 33.5t-10 31t-6.5 19.5v4h135l387 -568v368q0 20 -2.5 42t-5.5 39t-8.5 37.5t-9 31.5t-8.5 27t-6 18v5h122v-5q-1 -2 -6 -18t-8.5 -27t-9 -31.5t-8.5 -37.5t-5.5 -39t-2.5 -42v-520h-72
l-414 607v-407q0 -20 2.5 -42t5.5 -39t8.5 -37.5t9 -31.5t8.5 -27t6 -18v-5h-122v5zM275 -104q0 27 19.5 45t46.5 18q31 0 52.5 -24t21.5 -62q0 -43 -30.5 -83t-77.5 -56h-26q35 19 52 49t17 50l-5 -1h-3q-28 0 -47.5 17.5t-19.5 43.5v3z" />
    <glyph glyph-name="uni0146" unicode="&#x146;" horiz-adv-x="545" 
d="M40 3q21 92 21 142v208q0 50 -21 142v3h125v-85q66 91 162 91q69 0 116 -42t47 -128v-189q0 -45 22 -142v-3h-147v3q22 97 22 142v176q0 57 -29.5 86t-73.5 29h-2q-59 0 -117 -54v-237q0 -50 21 -142v-3h-146v3zM210 -104q0 27 19.5 45t46.5 18q31 0 52.5 -24t21.5 -62
q0 -43 -30.5 -83t-77.5 -56h-26q35 19 52 49t17 50l-5 -1h-3q-28 0 -47.5 17.5t-19.5 43.5v3z" />
    <glyph glyph-name="Ncaron" unicode="&#x147;" horiz-adv-x="695" 
d="M44 5q1 2 6 18t8.5 27t9 31.5t8.5 37.5t5.5 39t2.5 42v349q0 20 -2.5 41t-8 42t-9 33.5t-10 31t-6.5 19.5v4h135l387 -568v368q0 20 -2.5 42t-5.5 39t-8.5 37.5t-9 31.5t-8.5 27t-6 18v5h122v-5q-1 -2 -6 -18t-8.5 -27t-9 -31.5t-8.5 -37.5t-5.5 -39t-2.5 -42v-520h-72
l-414 607v-407q0 -20 2.5 -42t5.5 -39t8.5 -37.5t9 -31.5t8.5 -27t6 -18v-5h-122v5zM170 932l12 12l163 -65l163 65l12 -12l-175 -148z" />
    <glyph glyph-name="ncaron" unicode="&#x148;" horiz-adv-x="545" 
d="M61 145v208q0 50 -21 142v3h125v-85q66 91 162 91q69 0 116 -42t47 -128v-189q0 -45 22 -142v-3h-147v3q22 97 22 142v176q0 57 -29.5 86t-73.5 29h-2q-59 0 -117 -54v-237q0 -50 21 -142v-3h-146v3q21 92 21 142zM107 704l12 12l158 -63l159 63l12 -12l-171 -143z" />
    <glyph glyph-name="Eng" unicode="&#x14a;" horiz-adv-x="680" 
d="M37 0v5q1 2 6 18t8.5 27t9 31.5t8.5 37.5t5.5 39t2.5 42v349q0 20 -2.5 41t-8 42t-9 33.5t-10 31t-6.5 19.5v4h135l387 -568v368q0 20 -2.5 42t-5.5 39t-8.5 37.5t-9 31.5t-8.5 27t-6 18v5h122v-5q-1 -2 -6 -18t-8.5 -27t-9 -31.5t-8.5 -37.5t-5.5 -39t-2.5 -42v-551
q0 -81 -39.5 -117.5t-100.5 -36.5q-53 0 -123 26l15 98q70 -66 119 -66q42 1 63.5 35t22.5 92h-29l-414 607v-407q0 -20 2.5 -42t5.5 -39t8.5 -37.5t9 -31.5t8.5 -27t6 -18v-5h-122z" />
    <glyph glyph-name="eng" unicode="&#x14b;" horiz-adv-x="528" 
d="M63 145v208q0 45 -22 142v3h125v-85q66 91 162 91q69 0 116 -42t47 -128v-334q-6 -185 -138 -185q-47 0 -104 22l24 90q50 -53 96 -53q71 0 73 126h-54v321q0 57 -29.5 86t-73.5 29h-2q-58 0 -117 -54v-237q0 -21 3 -45t6 -40t7 -34.5t5 -22.5v-3h-146v3q22 97 22 142z
" />
    <glyph glyph-name="Omacron" unicode="&#x14c;" horiz-adv-x="724" 
d="M127 626q96 104 235 104q138 0 235 -104t97 -263q0 -160 -97 -267q-97 -108 -235 -108t-235 107.5t-97 267.5q0 159 97 263zM178 201q24 -76 72.5 -125.5t111.5 -49.5q62 0 110.5 50t73 126t24.5 162q0 131 -57.5 229.5t-150.5 98.5q-63 0 -111.5 -48.5t-72.5 -123
t-24 -158.5q0 -85 24 -161zM212 869h304v-38h-304v38z" />
    <glyph glyph-name="omacron" unicode="&#x14d;" horiz-adv-x="546" 
d="M26 250q0 118 70.5 186t175.5 68q106 0 177 -68.5t71 -185.5q0 -118 -71 -188q-72 -70 -177 -70t-175.5 69.5t-70.5 188.5zM142 250q0 -93 35 -158q34 -65 95 -65t96.5 65t35.5 158q0 92 -35.5 155.5t-96.5 63.5t-95.5 -63t-34.5 -156zM426 647v-38h-304v38h304z" />
    <glyph glyph-name="Ohungarumlaut" unicode="&#x150;" horiz-adv-x="724" 
d="M30 363q0 159 96.5 263t235.5 104q138 0 235 -104t97 -263q0 -160 -97 -267q-97 -108 -235 -108t-235 107.5t-97 267.5zM154 362q0 -85 24 -161t72.5 -125.5t111.5 -49.5q62 0 110.5 50t73 126t24.5 162q0 131 -57.5 229.5t-150.5 98.5q-63 0 -111.5 -48.5t-72.5 -123
t-24 -158.5zM483 929l67 -56l-173 -78l-16 15zM188 810l122 119l66 -56l-173 -78z" />
    <glyph glyph-name="ohungarumlaut" unicode="&#x151;" horiz-adv-x="546" 
d="M26 250q0 118 70.5 186t175.5 68q106 0 177 -68.5t71 -185.5q0 -118 -71 -188q-72 -70 -177 -70t-175.5 69.5t-70.5 188.5zM142 250q0 -93 35 -158q34 -65 95 -65t96.5 65t35.5 158q0 92 -35.5 155.5t-96.5 63.5t-95.5 -63t-34.5 -156zM271 588l122 119l67 -56l-173 -78z
M220 707l66 -56l-173 -78l-15 15z" />
    <glyph glyph-name="OE" unicode="&#x152;" horiz-adv-x="1076" 
d="M30 363q0 159 96.5 263t235.5 104q125 0 206 -81q-4 26 -14 68v3h484v-122h-4q-2 2 -20.5 15.5t-32.5 23t-35.5 21.5t-43.5 18.5t-43 6.5h-174v-296h104q20 0 41.5 3t41.5 8t34 9t31 10l19 6h4v-106h-4q-1 0 -26 8.5t-42 13.5t-45.5 10t-53.5 5h-104v-317h177
q21 0 43 6.5t43.5 18.5t35.5 21.5t32.5 23t20.5 15.5h4v-122h-487v3q9 36 14 64q-81 -79 -206 -79q-139 0 -235.5 105.5t-96.5 269.5zM154 362q0 -88 24.5 -164t72.5 -124t111 -48q93 0 150.5 101t57.5 237q0 132 -57.5 230t-150.5 98q-63 0 -111.5 -49.5t-72.5 -123.5
t-24 -157z" />
    <glyph glyph-name="oe" unicode="&#x153;" horiz-adv-x="904" 
d="M26 250q0 118 70.5 186t175.5 68q128 0 197 -92q67 92 188 92q102 0 158.5 -67.5t56.5 -172.5h-337q4 -91 47 -146t121 -55q85 0 164 73l4 -3q-26 -61 -82.5 -101t-130.5 -40q-56 0 -105.5 24.5t-82.5 69.5q-71 -94 -198 -94q-105 0 -175.5 69.5t-70.5 188.5zM142 250
q0 -93 35 -158q34 -65 95 -65t96.5 65t35.5 158q0 92 -35.5 155.5t-96.5 63.5t-95.5 -63t-34.5 -156zM766 307q-3 73 -30.5 117.5t-79.5 44.5q-58 0 -88.5 -51t-32.5 -128z" />
    <glyph glyph-name="Racute" unicode="&#x154;" horiz-adv-x="642" 
d="M44 3q21 92 21 142v430q0 50 -21 142v3h290q106 0 169.5 -51t63.5 -138q0 -81 -52 -129.5t-137 -58.5q82 -24 123 -102q16 -31 38 -78t32 -67t27 -45.5t38 -46.5v-4h-133q-29 30 -99 191q-53 122 -140 141h-89v-187q0 -45 22 -142v-3h-153v3zM175 368h119q72 0 113 39.5
t41 118.5q0 77 -39 118.5t-109 41.5h-125v-318zM133 807l213 146l75 -76l-272 -86zM213 334q-2 0 -5 -0.5t-5 -1.5q4 0 10 2z" />
    <glyph glyph-name="racute" unicode="&#x155;" horiz-adv-x="385" 
d="M40 495v3h125v-85q31 55 72.5 75t75.5 20q26 0 54 -9l-16 -116h-4q-25 22 -49 31t-45 9q-12 0 -35.5 -4t-52.5 -32v-242q0 -50 21 -142v-3h-146v3q21 92 21 142v208q0 50 -21 142zM250 731l75 -76l-272 -86l-16 16z" />
    <glyph glyph-name="uni0156" unicode="&#x156;" horiz-adv-x="642" 
d="M44 720h290q106 0 169.5 -51t63.5 -138q0 -81 -52 -129.5t-137 -58.5q82 -24 123 -102q16 -31 38 -78t32 -67t27 -45.5t38 -46.5v-4h-133q-29 30 -99 191q-53 122 -140 141h-89v-187q0 -45 22 -142v-3h-153v3q21 92 21 142v430q0 50 -21 142v3zM175 686v-318h119
q72 0 113 39.5t41 118.5q0 77 -39 118.5t-109 41.5h-125zM250 -104q0 27 19.5 45t46.5 18q31 0 52.5 -24t21.5 -62q0 -43 -30.5 -83t-77.5 -56h-26q35 19 52 49t17 50l-5 -1h-3q-28 0 -47.5 17.5t-19.5 43.5v3zM213 334q-2 0 -5 -0.5t-5 -1.5q4 0 10 2z" />
    <glyph glyph-name="uni0157" unicode="&#x157;" horiz-adv-x="385" 
d="M61 145v208q0 50 -21 142v3h125v-85q31 55 72.5 75t75.5 20q26 0 54 -9l-16 -116h-4q-25 22 -49 31t-45 9q-12 0 -35.5 -4t-52.5 -32v-242q0 -50 21 -142v-3h-146v3q21 92 21 142zM75 -104q0 27 19.5 45t46.5 18q31 0 52.5 -24t21.5 -62q0 -43 -30.5 -83t-77.5 -56h-26
q35 19 52 49t17 50l-5 -1h-3q-28 0 -47.5 17.5t-19.5 43.5v3z" />
    <glyph glyph-name="Rcaron" unicode="&#x158;" horiz-adv-x="642" 
d="M65 575q0 50 -21 142v3h290q106 0 169.5 -51t63.5 -138q0 -81 -52 -129.5t-137 -58.5q82 -24 123 -102q16 -31 38 -78t32 -67t27 -45.5t38 -46.5v-4h-133q-29 30 -99 191q-53 122 -140 141h-89v-187q0 -45 22 -142v-3h-153v3q21 92 21 142v430zM175 368h119
q72 0 113 39.5t41 118.5q0 77 -39 118.5t-109 41.5h-125v-318zM99 932l12 12l163 -65l163 65l12 -12l-175 -148zM213 334q-2 0 -5 -0.5t-5 -1.5q4 0 10 2z" />
    <glyph glyph-name="rcaron" unicode="&#x159;" horiz-adv-x="385" 
d="M40 495v3h125v-85q31 55 72.5 75t75.5 20q26 0 54 -9l-16 -116h-4q-25 22 -49 31t-45 9q-12 0 -35.5 -4t-52.5 -32v-242q0 -50 21 -142v-3h-146v3q21 92 21 142v208q0 50 -21 142zM7 703l12 12l158 -63l159 63l12 -12l-171 -143z" />
    <glyph glyph-name="Sacute" unicode="&#x15a;" horiz-adv-x="589" 
d="M38 532q0 82 67.5 140t182.5 58q108 0 239 -63v-131h-4q-137 154 -249 154q-60 0 -98.5 -32t-38.5 -78q0 -52 53 -89t154 -71q208 -76 208 -225q0 -100 -72 -153t-179 -53q-111 0 -258 71v138h5q32 -37 55.5 -60.5t58 -52t71.5 -42.5t75 -14q63 0 103.5 34t40.5 91
q0 60 -49 98t-145 70q-220 70 -220 210zM155 807l213 146l75 -76l-272 -86z" />
    <glyph glyph-name="sacute" unicode="&#x15b;" horiz-adv-x="450" 
d="M38 360q0 67 53 105.5t136 38.5q84 0 172 -41v-110h-4q-96 115 -176 115q-38 0 -65 -18.5t-27 -52.5t29 -51.5t98 -40.5q2 0 3.5 -0.5t3.5 -1.5q82 -28 118.5 -64t36.5 -93q0 -75 -53 -114.5t-131 -39.5q-84 0 -187 47v117h3q33 -37 57 -60.5t61.5 -45t72.5 -21.5
q38 0 65.5 20.5t27.5 57.5q0 36 -29 56t-101 45q-83 28 -123.5 62t-40.5 90zM297 731l75 -76l-272 -86l-16 16z" />
    <glyph glyph-name="Scedilla" unicode="&#x15e;" horiz-adv-x="589" 
d="M38 532q0 82 67.5 140t182.5 58q108 0 239 -63v-131h-4q-137 154 -249 154q-60 0 -98.5 -32t-38.5 -78q0 -52 53 -89t154 -71q208 -76 208 -225q0 -97 -69 -150.5t-172 -55.5l-28 -38q44 -1 74.5 -21t30.5 -57q0 -32 -22.5 -49.5t-57.5 -18.5h-6q-51 0 -85 33v32
q32 -28 60 -28q4 0 21.5 3t17.5 33q0 23 -24 38t-59 17l40 57q-103 8 -230 70v138h5q32 -37 55.5 -60.5t58 -52t71.5 -42.5t75 -14q63 0 103.5 34t40.5 91q0 60 -49 98t-145 70q-220 70 -220 210z" />
    <glyph glyph-name="scedilla" unicode="&#x15f;" horiz-adv-x="450" 
d="M91 466q53 38 136 38q84 0 172 -41v-110h-4q-96 115 -176 115q-38 0 -65 -18.5t-27 -52.5t29 -51.5t98 -40.5q2 0 3.5 -0.5t3.5 -1.5q82 -28 118.5 -64t36.5 -93q0 -72 -49 -111.5t-124 -42.5l-30 -41q44 -1 74.5 -21t30.5 -57q0 -32 -22.5 -49.5t-57.5 -18.5h-6
q-51 0 -85 33v32q32 -28 60 -28q4 0 21.5 3t17.5 33q0 23 -24 38t-59 17l43 60q-77 7 -161 46v117h3q33 -37 57 -60.5t61.5 -45t72.5 -21.5q38 0 65.5 20.5t27.5 57.5q0 36 -29 56t-101 45q-83 28 -123.5 62t-40.5 90q0 67 53 106z" />
    <glyph glyph-name="Scaron" unicode="&#x160;" horiz-adv-x="589" 
d="M38 532q0 82 67.5 140t182.5 58q108 0 239 -63v-131h-4q-137 154 -249 154q-60 0 -98.5 -32t-38.5 -78q0 -52 53 -89t154 -71q208 -76 208 -225q0 -100 -72 -153t-179 -53q-111 0 -258 71v138h5q32 -37 55.5 -60.5t58 -52t71.5 -42.5t75 -14q63 0 103.5 34t40.5 91
q0 60 -49 98t-145 70q-220 70 -220 210zM125 927l11 12l160 -63l159 63l12 -12l-171 -144z" />
    <glyph glyph-name="scaron" unicode="&#x161;" horiz-adv-x="450" 
d="M91 466q53 38 136 38q84 0 172 -41v-110h-4q-96 115 -176 115q-38 0 -65 -18.5t-27 -52.5t29 -51.5t98 -40.5q2 0 3.5 -0.5t3.5 -1.5q82 -28 118.5 -64t36.5 -93q0 -75 -53 -114.5t-131 -39.5q-84 0 -187 47v117h3q33 -37 57 -60.5t61.5 -45t72.5 -21.5q38 0 65.5 20.5
t27.5 57.5q0 36 -29 56t-101 45q-83 28 -123.5 62t-40.5 90q0 67 53 106zM67 715l158 -63l159 63l12 -12l-171 -143l-170 143z" />
    <glyph glyph-name="uni0162" unicode="&#x162;" horiz-adv-x="628" 
d="M611 720v-155h-4q-2 1 -35 36t-67.5 58t-66.5 23h-69v-537q0 -45 22 -142v-3h-53l-36 -49q44 -1 74.5 -21t30.5 -57q0 -32 -22.5 -49.5t-57.5 -18.5h-6q-51 0 -85 33v32q33 -28 60 -28q4 0 21.5 3t17.5 33q0 23 -24 38t-59 17l47 67h-61v3q21 92 21 142v537h-69
q-32 0 -66.5 -23t-67.5 -58t-35 -36h-4v155h594z" />
    <glyph glyph-name="uni0163" unicode="&#x163;" horiz-adv-x="364" 
d="M13 490q62 20 100 58.5t66 96.5h10v-147h139v-38h-139l1 -314q0 -84 72 -84q44 0 89 29q-20 -44 -57.5 -71.5t-86.5 -27.5h-3l-30 -41q44 -1 74.5 -21t30.5 -57q0 -32 -22.5 -49.5t-57.5 -18.5h-6q-51 0 -85 33v32q33 -28 60 -28q4 0 21.5 3t17.5 33q0 23 -24 38t-59 17
l45 64q-83 23 -83 136v327h-73v30z" />
    <glyph glyph-name="Tcaron" unicode="&#x164;" horiz-adv-x="628" 
d="M17 720h594v-155h-4q-2 1 -35 36t-67.5 58t-66.5 23h-69v-537q0 -45 22 -142v-3h-153v3q21 92 21 142v537h-69q-32 0 -66.5 -23t-67.5 -58t-35 -36h-4v155zM139 932l12 12l163 -65l163 65l12 -12l-175 -148z" />
    <glyph glyph-name="tcaron" unicode="&#x165;" horiz-adv-x="364" 
d="M113 549q38 38 66 96h10v-147h139v-38h-139l1 -314q0 -84 72 -84q44 0 89 29q-20 -44 -57.5 -71.5t-86.5 -27.5q-58 0 -89.5 38t-31.5 103v327h-73v30q62 20 100 59zM238 723q0 28 21 47.5t50 19.5q34 0 56.5 -25.5t22.5 -65.5q0 -47 -32 -89.5t-83 -60.5h-28
q37 21 55 52.5t18 53.5l-5 -1h-3q-30 0 -51 19.5t-21 49.5z" />
    <glyph glyph-name="Tbar" unicode="&#x166;" horiz-adv-x="628" 
d="M17 720h594v-155h-4q-2 1 -35 36t-67.5 58t-66.5 23h-69v-269h159v-39h-159v-229q0 -45 22 -142v-3h-153v3q21 92 21 142v229h-159v39h159v269h-69q-32 0 -66.5 -23t-67.5 -58t-35 -36h-4v155z" />
    <glyph glyph-name="tbar" unicode="&#x167;" horiz-adv-x="379" 
d="M13 460v30q62 20 100 58.5t66 96.5h10v-147h139v-38h-139l1 -109h123v-40h-123v-165q0 -84 72 -84q44 0 89 29q-20 -44 -57.5 -71.5t-86.5 -27.5q-58 0 -89.5 38t-31.5 103v178h-49v40h49v109h-73z" />
    <glyph glyph-name="Umacron" unicode="&#x16a;" horiz-adv-x="666" 
d="M195 720v-3q-22 -97 -22 -142v-305q0 -107 49 -167.5t133 -60.5q80 0 135.5 55.5t55.5 165.5v257q0 73 -38 195v5h117v-5q-1 -2 -7 -22.5t-10 -36t-9 -39.5t-8 -49t-3 -48v-263q0 -130 -73 -199.5t-181 -69.5q-52 0 -99 17t-86 51t-62.5 91t-23.5 130v298q0 50 -21 142v3
h153zM188 831v38h304v-38h-304z" />
    <glyph glyph-name="umacron" unicode="&#x16b;" horiz-adv-x="536" 
d="M34 495v3h125v-323q0 -57 29 -85.5t74 -28.5q58 0 118 52q-2 22 -2 31v209q0 50 -21 142v3h125v-353q0 -50 21 -142v-3h-105q-6 20 -16 86q-69 -94 -163 -94q-69 0 -116 42.5t-47 128.5v190q0 45 -22 142zM422 647v-38h-304v38h304z" />
    <glyph glyph-name="Uring" unicode="&#x16e;" horiz-adv-x="666" 
d="M42 720h153v-3q-22 -97 -22 -142v-305q0 -107 49 -167.5t133 -60.5q80 0 135.5 55.5t55.5 165.5v257q0 73 -38 195v5h117v-5q-1 -2 -7 -22.5t-10 -36t-9 -39.5t-8 -49t-3 -48v-263q0 -130 -73 -199.5t-181 -69.5q-52 0 -99 17t-86 51t-62.5 91t-23.5 130v298
q0 50 -21 142v3zM240 872q0 40 28.5 68.5t69.5 28.5q40 0 69 -28.5t29 -68.5t-28 -68q-29 -29 -70 -29t-69.5 28.5t-28.5 68.5zM280 872q0 -24 17 -42t41 -18q23 0 40 18t17 42t-17 42t-40 18q-24 0 -41 -18t-17 -42z" />
    <glyph glyph-name="uring" unicode="&#x16f;" horiz-adv-x="536" 
d="M34 495v3h125v-323q0 -57 29 -85.5t74 -28.5q58 0 118 52q-2 22 -2 31v209q0 50 -21 142v3h125v-353q0 -50 21 -142v-3h-105q-6 20 -16 86q-69 -94 -163 -94q-69 0 -116 42.5t-47 128.5v190q0 45 -22 142zM199 719q28 28 69 28q40 0 69 -28.5t29 -68.5t-28 -68
q-29 -29 -70 -29t-69.5 28.5t-28.5 68.5t29 69zM210 650q0 -24 17 -42t41 -18q23 0 40 18t17 42t-17 42t-40 18q-24 0 -41 -18t-17 -42z" />
    <glyph glyph-name="Uhungarumlaut" unicode="&#x170;" horiz-adv-x="666" 
d="M195 720v-3q-22 -97 -22 -142v-305q0 -107 49 -167.5t133 -60.5q80 0 135.5 55.5t55.5 165.5v257q0 73 -38 195v5h117v-5q-1 -2 -7 -22.5t-10 -36t-9 -39.5t-8 -49t-3 -48v-263q0 -130 -73 -199.5t-181 -69.5q-52 0 -99 17t-86 51t-62.5 91t-23.5 130v298q0 50 -21 142v3
h153zM459 929l67 -56l-173 -78l-16 15zM286 929l66 -56l-173 -78l-15 15z" />
    <glyph glyph-name="uhungarumlaut" unicode="&#x171;" horiz-adv-x="536" 
d="M159 498v-323q0 -57 29 -85.5t74 -28.5q58 0 118 52q-2 22 -2 31v209q0 50 -21 142v3h125v-353q0 -50 21 -142v-3h-105q-6 20 -16 86q-69 -94 -163 -94q-69 0 -116 42.5t-47 128.5v190q0 45 -22 142v3h125zM266 588l122 119l67 -56l-173 -78zM93 588l122 119l66 -56
l-173 -78z" />
    <glyph glyph-name="Uogonek" unicode="&#x172;" horiz-adv-x="666" 
d="M42 717v3h153v-3q-22 -97 -22 -142v-305q0 -107 49 -167.5t133 -60.5q80 0 135.5 55.5t55.5 165.5v257q0 73 -38 195v5h117v-5q-1 -2 -7 -22.5t-10 -36t-9 -39.5t-8 -49t-3 -48v-263q0 -100 -43.5 -164t-116.5 -90q-26 -17 -41.5 -43t-15.5 -50q0 -36 19.5 -39t25.5 -3
q28 0 61 23v-23q-49 -45 -101 -45q-38 0 -58.5 21t-20.5 52q0 57 58 93q-7 -1 -21 -1q-52 0 -99 17t-86 51t-62.5 91t-23.5 130v298q0 50 -21 142z" />
    <glyph glyph-name="uogonek" unicode="&#x173;" horiz-adv-x="536" 
d="M34 498h125v-323q0 -57 29 -85.5t74 -28.5q58 0 118 52q-2 22 -2 31v209q0 50 -21 142v3h125v-353q0 -50 21 -142v-3h-33q-24 -17 -38 -42t-14 -48q0 -36 19.5 -39t25.5 -3q28 0 61 23v-23q-49 -45 -101 -45q-38 0 -58.5 21t-20.5 52q0 32 22 60.5t57 43.5h-25
q-6 20 -16 86q-69 -94 -163 -94q-69 0 -116 42.5t-47 128.5v190q0 45 -22 142v3z" />
    <glyph glyph-name="Wcircumflex" unicode="&#x174;" horiz-adv-x="981" 
d="M194 720v-3q-7 -34 -7 -66q0 -42 13 -81l143 -441l128 417l-10 31q-23 73 -66 139v4h179v-4q-7 -32 -7 -62q0 -43 14 -84l143 -442l126 413q14 46 14 91q0 43 -12 85v3h116v-4q-43 -71 -64 -140l-177 -576h-75l-159 481l-147 -481h-76l-191 577q-25 78 -65 140v3h180z
M484 939l175 -148l-12 -12l-163 65l-163 -65l-12 12z" />
    <glyph glyph-name="wcircumflex" unicode="&#x175;" horiz-adv-x="758" 
d="M174 498v-3q-4 -9 -4 -30q0 -11 2 -39.5t15 -68.5l85 -255l89 264q-29 78 -63 129v3h164v-3q-4 -9 -4 -30q0 -11 2 -39.5t15 -68.5l85 -254l84 246q12 47 12 81q0 3 -0.5 22t-8.5 42v4h101v-4q-32 -51 -52 -105l-130 -389h-74l-111 310l-107 -310h-70l-130 364
q-28 78 -64 131v3h164zM204 567l170 143l171 -143l-12 -12l-159 63l-158 -63z" />
    <glyph glyph-name="Ycircumflex" unicode="&#x176;" horiz-adv-x="631" 
d="M13 716v4h175v-4q-3 -10 -3 -24q0 -15 5 -46t25 -71l133 -264l127 243q24 46 28 80.5t4 48.5q0 23 -6 33v4h118v-3l-19 -28q-15 -23 -31.5 -49.5t-27.5 -49.5l-169 -319v-126q0 -50 21 -142v-3h-154v3q22 97 22 142v122l-170 324q-22 42 -78 125zM144 791l175 148
l175 -148l-12 -12l-163 65l-163 -65z" />
    <glyph glyph-name="ycircumflex" unicode="&#x177;" horiz-adv-x="523" 
d="M11 498h183v-3q-9 -21 -9.5 -36.5t-0.5 -16.5q0 -30 15 -73l109 -251l99 249q13 41 13 70q0 3 -1 20t-10 38v3h102v-3q-31 -47 -55 -105l-191 -478q-44 -111 -138 -111q-40 0 -89 20l22 102l2 1q22 -21 45.5 -34t37.5 -15t19 -2q18 0 37 12.5t32 44.5l22 56l-168 381
q-40 91 -76 128v3zM97 567l170 143l171 -143l-12 -12l-159 63l-158 -63z" />
    <glyph glyph-name="Ydieresis" unicode="&#x178;" horiz-adv-x="631" 
d="M13 720h175v-4q-3 -10 -3 -24q0 -15 5 -46t25 -71l133 -264l127 243q24 46 28 80.5t4 48.5q0 23 -6 33v4h118v-3l-19 -28q-15 -23 -31.5 -49.5t-27.5 -49.5l-169 -319v-126q0 -50 21 -142v-3h-154v3q22 97 22 142v122l-170 324q-22 42 -78 125v4zM355 858q0 26 19.5 45
t45.5 19q27 0 46 -19t19 -45q0 -27 -19 -46t-46 -19q-26 0 -45.5 19t-19.5 46zM171 903q19 19 45 19q27 0 46 -19t19 -45q0 -27 -19 -46t-46 -19q-26 0 -45 19t-19 46q0 26 19 45z" />
    <glyph glyph-name="Zacute" unicode="&#x179;" horiz-adv-x="606" 
d="M432 682h-192q-22 0 -46 -6t-47 -17t-37.5 -19t-34 -21t-21.5 -14h-5v115h530l-404 -682h192q22 0 46 6t46.5 16.5t38 19.5t34.5 21t22 14h4v-115h-530zM379 953l75 -76l-272 -86l-16 16z" />
    <glyph glyph-name="zacute" unicode="&#x17a;" horiz-adv-x="473" 
d="M26 0l274 462h-87q-15 0 -30.5 -3t-30.5 -9t-27 -11t-27 -14t-22 -13.5t-19 -13.5t-13 -9h-4v109h406l-274 -462h86q20 0 42 5.5t42.5 16t34.5 18.5t31 19.5t20 13.5h4v-109h-406zM307 731l75 -76l-272 -86l-16 16z" />
    <glyph glyph-name="Zdotaccent" unicode="&#x17b;" horiz-adv-x="606" 
d="M28 0l404 682h-192q-22 0 -46 -6t-47 -17t-37.5 -19t-34 -21t-21.5 -14h-5v115h530l-404 -682h192q22 0 46 6t46.5 16.5t38 19.5t34.5 21t22 14h4v-115h-530zM253 948q21 20 51 20t51 -20.5t21 -50.5q0 -29 -21 -49q-22 -21 -51 -21t-50.5 20.5t-21.5 49.5q0 30 21 51z
" />
    <glyph glyph-name="zdotaccent" unicode="&#x17c;" horiz-adv-x="473" 
d="M26 0l274 462h-87q-15 0 -30.5 -3t-30.5 -9t-27 -11t-27 -14t-22 -13.5t-19 -13.5t-13 -9h-4v109h406l-274 -462h86q20 0 42 5.5t42.5 16t34.5 18.5t31 19.5t20 13.5h4v-109h-406zM181 726q21 20 51 20t51 -20.5t21 -50.5q0 -29 -21 -49q-22 -21 -51 -21t-50.5 20.5
t-21.5 49.5q0 30 21 51z" />
    <glyph glyph-name="Zcaron" unicode="&#x17d;" horiz-adv-x="606" 
d="M432 682h-192q-22 0 -46 -6t-47 -17t-37.5 -19t-34 -21t-21.5 -14h-5v115h530l-404 -682h192q22 0 46 6t46.5 16.5t38 19.5t34.5 21t22 14h4v-115h-530zM132 932l12 12l163 -65l163 65l12 -12l-175 -148z" />
    <glyph glyph-name="zcaron" unicode="&#x17e;" horiz-adv-x="473" 
d="M26 0l274 462h-87q-15 0 -30.5 -3t-30.5 -9t-27 -11t-27 -14t-22 -13.5t-19 -13.5t-13 -9h-4v109h406l-274 -462h86q20 0 42 5.5t42.5 16t34.5 18.5t31 19.5t20 13.5h4v-109h-406zM77 715l158 -63l159 63l12 -12l-171 -143l-170 143z" />
    <glyph glyph-name="gravecomb" unicode="&#x300;" 
d="M-199 565l-273 86l76 76l213 -146z" />
    <glyph glyph-name="acutecomb" unicode="&#x301;" 
d="M-420 569l-16 16l213 146l75 -76z" />
    <glyph glyph-name="uni0302" unicode="&#x302;" 
d="M-125 569l-12 -12l-163 65l-163 -65l-12 12l175 148z" />
    <glyph glyph-name="tildecomb" unicode="&#x303;" 
d="M-447 646q25 40 75 40q25 0 72.5 -19t72.5 -19q58 0 98 54q-6 -67 -35.5 -99t-71.5 -32q-26 0 -76 19.5t-74 19.5q-46 0 -83 -51v10q0 41 22 77z" />
    <glyph glyph-name="uni0304" unicode="&#x304;" 
d="M-445 609v38h304v-38h-304z" />
    <glyph glyph-name="uni0306" unicode="&#x306;" 
d="M-427 708q18 -41 57.5 -59.5t82.5 -18.5q42 0 81.5 18.5t57.5 59.5h17q0 -60 -45.5 -101.5t-110.5 -41.5q-66 0 -111.5 41.5t-45.5 101.5h17z" />
    <glyph glyph-name="uni0307" unicode="&#x307;" 
d="M-196 675q0 30 21 50.5t51 20.5t51 -20.5t21 -50.5q0 -29 -22 -49q-21 -21 -50 -21t-50.5 20.5t-21.5 49.5z" />
    <glyph glyph-name="uni0308" unicode="&#x308;" 
d="M-254 681q20 19 46 19q27 0 46 -19t19 -45q0 -27 -19 -46t-46 -19q-26 0 -45.5 19t-19.5 46q0 26 19 45zM-457 681q19 19 45 19q27 0 46 -19t19 -45q0 -27 -19 -46t-46 -19q-26 0 -45 19t-19 46q0 26 19 45z" />
    <glyph glyph-name="uni030A" unicode="&#x30a;" 
d="M-287 719q29 28 70 28q40 0 69 -28.5t29 -68.5t-29 -68q-28 -29 -69 -29t-69.5 28.5t-28.5 68.5t28 69zM-275 650q0 -24 17 -42t41 -18q23 0 40 18t17 42t-17 42t-40 18q-24 0 -41 -18t-17 -42z" />
    <glyph glyph-name="uni030B" unicode="&#x30b;" 
d="M-456 573l-15 15l122 119l66 -56zM-282 573l-16 15l122 119l67 -56z" />
    <glyph glyph-name="uni030C" unicode="&#x30c;" 
d="M-137 722l12 -12l-175 -148l-175 148l12 12l163 -65z" />
    <glyph glyph-name="uni0312" unicode="&#x312;" 
d="M-199 645q0 47 32.5 89t83.5 61h27q-37 -21 -55 -53t-18 -53l5 1h3q31 0 51.5 -19t20.5 -47v-3q0 -29 -20.5 -48.5t-50.5 -19.5q-33 0 -56 26t-23 66z" />
    <glyph glyph-name="uni0326" unicode="&#x326;" 
d="M-202 -104q0 27 19.5 45t46.5 18q31 0 52.5 -24t21.5 -62q0 -43 -30.5 -83t-77.5 -56h-26q35 19 52 49t17 50l-5 -1h-3q-28 0 -47.5 17.5t-19.5 43.5v3z" />
    <glyph glyph-name="uni0327" unicode="&#x327;" 
d="M-406 -162v32q33 -28 60 -28q4 0 21.5 3t17.5 33q0 23 -24 38t-59 17l58 82h39l-47 -64q44 -1 74.5 -21t30.5 -57q0 -32 -22.5 -49.5t-57.5 -18.5h-6q-51 0 -85 33z" />
    <glyph glyph-name="uni0328" unicode="&#x328;" 
d="M-348 -5q42 35 98 37h11q-35 -15 -56 -45t-21 -59q0 -36 19.5 -39t25.5 -3q28 0 61 23v-23q-49 -45 -101 -45q-38 0 -58.5 21t-20.5 52q0 46 42 81z" />
    <glyph glyph-name="Wgrave" unicode="&#x1e80;" horiz-adv-x="981" 
d="M194 720v-3q-7 -34 -7 -66q0 -42 13 -81l143 -441l128 417l-10 31q-23 73 -66 139v4h179v-4q-7 -32 -7 -62q0 -43 14 -84l143 -442l126 413q14 46 14 91q0 43 -12 85v3h116v-4q-43 -71 -64 -140l-177 -576h-75l-159 481l-147 -481h-76l-191 577q-25 78 -65 140v3h180z
M336 873l76 76l213 -146l-16 -16z" />
    <glyph glyph-name="wgrave" unicode="&#x1e81;" horiz-adv-x="758" 
d="M10 498h164v-3q-4 -9 -4 -30q0 -11 2 -39.5t15 -68.5l85 -255l89 264q-29 78 -63 129v3h164v-3q-4 -9 -4 -30q0 -11 2 -39.5t15 -68.5l85 -254l84 246q12 47 12 81q0 3 -0.5 22t-8.5 42v4h101v-4q-32 -51 -52 -105l-130 -389h-74l-111 310l-107 -310h-70l-130 364
q-28 78 -64 131v3zM302 727l213 -146l-16 -16l-273 86z" />
    <glyph glyph-name="Wacute" unicode="&#x1e82;" horiz-adv-x="981" 
d="M14 717v3h180v-3q-7 -34 -7 -66q0 -42 13 -81l143 -441l128 417l-10 31q-23 73 -66 139v4h179v-4q-7 -32 -7 -62q0 -43 14 -84l143 -442l126 413q14 46 14 91q0 43 -12 85v3h116v-4q-43 -71 -64 -140l-177 -576h-75l-159 481l-147 -481h-76l-191 577q-25 78 -65 140z
M343 807l213 146l75 -76l-272 -86z" />
    <glyph glyph-name="wacute" unicode="&#x1e83;" horiz-adv-x="758" 
d="M10 495v3h164v-3q-4 -9 -4 -30q0 -11 2 -39.5t15 -68.5l85 -255l89 264q-29 78 -63 129v3h164v-3q-4 -9 -4 -30q0 -11 2 -39.5t15 -68.5l85 -254l84 246q12 47 12 81q0 3 -0.5 22t-8.5 42v4h101v-4q-32 -51 -52 -105l-130 -389h-74l-111 310l-107 -310h-70l-130 364
q-28 78 -64 131zM446 731l75 -76l-272 -86l-16 16z" />
    <glyph glyph-name="Wdieresis" unicode="&#x1e84;" horiz-adv-x="981" 
d="M194 720v-3q-7 -34 -7 -66q0 -42 13 -81l143 -441l128 417l-10 31q-23 73 -66 139v4h179v-4q-7 -32 -7 -62q0 -43 14 -84l143 -442l126 413q14 46 14 91q0 43 -12 85v3h116v-4q-43 -71 -64 -140l-177 -576h-75l-159 481l-147 -481h-76l-191 577q-25 78 -65 140v3h180z
M521 858q0 26 19.5 45t45.5 19q27 0 46 -19t19 -45q0 -27 -19 -46t-46 -19q-26 0 -45.5 19t-19.5 46zM337 903q19 19 45 19q27 0 46 -19t19 -45q0 -27 -19 -46t-46 -19q-26 0 -45 19t-19 46q0 26 19 45z" />
    <glyph glyph-name="wdieresis" unicode="&#x1e85;" horiz-adv-x="758" 
d="M10 495v3h164v-3q-4 -9 -4 -30q0 -11 2 -39.5t15 -68.5l85 -255l89 264q-29 78 -63 129v3h164v-3q-4 -9 -4 -30q0 -11 2 -39.5t15 -68.5l85 -254l84 246q12 47 12 81q0 3 -0.5 22t-8.5 42v4h101v-4q-32 -51 -52 -105l-130 -389h-74l-111 310l-107 -310h-70l-130 364
q-28 78 -64 131zM410 636q0 26 19.5 45t45.5 19q27 0 46 -19t19 -45q0 -27 -19 -46t-46 -19q-26 0 -45.5 19t-19.5 46zM207 636q0 26 19 45t45 19q27 0 46 -19t19 -45q0 -27 -19 -46t-46 -19q-26 0 -45 19t-19 46z" />
    <glyph glyph-name="Germandbls" unicode="&#x1e9e;" horiz-adv-x="642" 
d="M39 3q21 92 21 142v392q0 57 20.5 98.5t56.5 63.5t77 31.5t90 9.5q154 0 303 -73l-179 -280q88 -10 140.5 -65t52.5 -130q0 -80 -53 -136t-100 -60.5t-57 -4.5q-76 0 -167 51l2 30q59 -29 107 -29q14 0 48.5 7t67 46.5t32.5 90.5q0 70 -56 109t-128 39q-17 0 -35 -2
l189 320q-64 51 -153 51q-72 0 -110 -45t-38 -127v-532h-131v3z" />
    <glyph glyph-name="Ygrave" unicode="&#x1ef2;" horiz-adv-x="631" 
d="M188 720v-4q-3 -10 -3 -24q0 -15 5 -46t25 -71l133 -264l127 243q24 46 28 80.5t4 48.5q0 23 -6 33v4h118v-3l-19 -28q-15 -23 -31.5 -49.5t-27.5 -49.5l-169 -319v-126q0 -50 21 -142v-3h-154v3q22 97 22 142v122l-170 324q-22 42 -78 125v4h175zM247 949l213 -146
l-16 -16l-273 86z" />
    <glyph glyph-name="ygrave" unicode="&#x1ef3;" horiz-adv-x="523" 
d="M11 498h183v-3q-9 -21 -9.5 -36.5t-0.5 -16.5q0 -30 15 -73l109 -251l99 249q13 41 13 70q0 3 -1 20t-10 38v3h102v-3q-31 -47 -55 -105l-191 -478q-44 -111 -138 -111q-40 0 -89 20l22 102l2 1q22 -21 45.5 -34t37.5 -15t19 -2q18 0 37 12.5t32 44.5l22 56l-168 381
q-40 91 -76 128v3zM119 651l76 76l213 -146l-16 -16z" />
    <glyph glyph-name="endash" unicode="&#x2013;" horiz-adv-x="540" 
d="M48 286v38h444v-38h-444z" />
    <glyph glyph-name="emdash" unicode="&#x2014;" horiz-adv-x="908" 
d="M48 286v38h812v-38h-812z" />
    <glyph glyph-name="quoteleft" unicode="&#x2018;" horiz-adv-x="182" 
d="M83 450q-5 30 -17 94t-19 108t-7 68h102q0 -24 -7 -68t-19 -108t-17 -94h-16z" />
    <glyph glyph-name="quoteright" unicode="&#x2019;" horiz-adv-x="182" 
d="M83 450q-5 30 -17 94t-19 108t-7 68h102q0 -24 -7 -68t-19 -108t-17 -94h-16z" />
    <glyph glyph-name="quotesinglbase" unicode="&#x201a;" horiz-adv-x="235" 
d="M52 -113q38 21 56 52.5t18 53.5l-6 -1q-32 -1 -53.5 19t-21.5 50q1 28 21.5 47.5t49.5 19.5q34 0 56.5 -25.5t22.5 -66.5q0 -47 -32 -89t-83 -60h-28z" />
    <glyph glyph-name="quotedblleft" unicode="&#x201c;" horiz-adv-x="345" 
d="M157 450q-15 34 -44 95.5t-49.5 106.5t-27.5 68h102q7 -24 13 -67.5t12.5 -108.5t10.5 -94h-17zM292 450q-13 30 -44 94.5t-50.5 108t-26.5 67.5h102q6 -23 12 -68t12.5 -106.5t11.5 -95.5h-17z" />
    <glyph glyph-name="quotedblright" unicode="&#x201d;" horiz-adv-x="345" 
d="M36 450q5 34 11.5 95.5t12.5 106.5t12 68h102q-7 -24 -26.5 -67.5t-50.5 -108t-44 -94.5h-17zM171 450q4 29 10.5 94t12.5 108.5t13 67.5h102q-7 -23 -27.5 -68t-49.5 -106.5t-44 -95.5h-17z" />
    <glyph glyph-name="quotedblbase" unicode="&#x201e;" horiz-adv-x="239" 
d="M116 128q34 0 56.5 -25.5t22.5 -66.5q0 -47 -32 -89t-83 -60h-28q38 21 56 52.5t18 53.5l-6 -1q-32 -1 -53.5 19t-21.5 50q1 28 21.5 47.5t49.5 19.5z" />
    <glyph glyph-name="dagger" unicode="&#x2020;" horiz-adv-x="425" 
d="M377 581v-37h-145v-274h-38v274h-146v37h146v139h38v-139h145z" />
    <glyph glyph-name="daggerdbl" unicode="&#x2021;" horiz-adv-x="425" 
d="M377 544h-145v-101h145v-37h-145v-136h-38v136h-146v37h146v101h-146v37h146v139h38v-139h145v-37z" />
    <glyph glyph-name="bullet" unicode="&#x2022;" horiz-adv-x="338" 
d="M169 239q-44 -1 -78 31.5t-34 77.5t33.5 77.5t78.5 31.5q46 -1 79 -32.5t33 -76.5t-33 -76.5t-79 -32.5z" />
    <glyph glyph-name="ellipsis" unicode="&#x2026;" horiz-adv-x="701" 
d="M121 -8q-29 0 -50 21t-21 50t21 49.5t50 20.5t50 -20.5t21 -49.5t-21 -50t-50 -21zM351 -8q-29 0 -50 21t-21 50t21 49.5t50 20.5t50 -20.5t21 -49.5t-21 -50t-50 -21zM588 -8q-29 0 -50.5 21t-21.5 50t21.5 49.5t50.5 20.5t50 -20.5t21 -49.5t-21 -50t-50 -21z" />
    <glyph glyph-name="perthousand" unicode="&#x2030;" horiz-adv-x="1088" 
d="M165 409q-58 0 -99 44t-41 112q0 67 41 111t99 44t100 -44t42 -111t-42 -111.5t-100 -44.5zM98 0l505 720h46l-505 -720h-46zM165 441q29 0 48 34t19 90q0 55 -19.5 89t-47.5 34t-47 -34t-19 -89t19 -89.5t47 -34.5zM585 0q-58 0 -99 44t-41 112q0 67 41 111t99 44
t100 -44t42 -111t-42 -111.5t-100 -44.5zM921 0q-58 0 -99 44t-41 112q0 67 41 111t99 44t100 -44t42 -111t-42 -111.5t-100 -44.5zM585 32q29 0 48 34t19 90q0 55 -19.5 89t-47.5 34t-47 -34t-19 -89t19 -89.5t47 -34.5zM921 32q29 0 48 34t19 90q1 55 -18.5 89t-48.5 34
q-28 0 -47 -34t-19 -89t19 -89.5t47 -34.5z" />
    <glyph glyph-name="guilsinglleft" unicode="&#x2039;" horiz-adv-x="311" 
d="M208 72l-172 205l172 205h53l-172 -205l172 -205h-53z" />
    <glyph glyph-name="guilsinglright" unicode="&#x203a;" horiz-adv-x="311" 
d="M103 72h-53l172 205l-172 205h53l172 -205z" />
    <glyph glyph-name="fraction" unicode="&#x2044;" horiz-adv-x="175" 
d="M-208 -38l547 792h44l-547 -792h-44z" />
    <glyph glyph-name="Euro" unicode="&#x20ac;" horiz-adv-x="674" 
d="M415 691q-83 0 -138 -69t-69 -187h264v-35h-267q-1 -13 -1 -40q0 -28 1 -42h267v-35h-263q16 -116 73 -185.5t134 -69.5q106 0 207 151l6 -2v-141q-130 -48 -226 -48q-120 0 -207.5 81.5t-109.5 213.5h-77v35h73q-2 26 -2 41t2 41h-73v35h77q21 134 109 214.5t211 80.5
q93 0 223 -48v-141l-6 -1q-99 151 -208 151z" />
    <glyph glyph-name="trademark" unicode="&#x2122;" horiz-adv-x="750" 
d="M43 645v75h283v-75q-21 30 -41.5 40.5t-63.5 10.5h-10v-201q0 -83 10 -124h-72q10 41 10 124v201h-11q-43 0 -63.5 -10.5t-41.5 -40.5zM360 371q15 50 15 161v64q0 83 -15 124h80l97 -280l103 280h67q-10 -41 -10 -124v-101q0 -83 10 -124h-73q10 41 10 124l-2 150
l-101 -274h-34l-99 286q-4 -25 -4 -61v-64q0 -118 15 -161h-59z" />
    <glyph glyph-name="oneeighth" unicode="&#x215b;" horiz-adv-x="627" 
d="M499 754h44l-547 -792h-44zM69 437v232h-58v14q72 21 117 59v-305q0 -31 11 -71v-2h-80v2q10 55 10 71zM530 198q83 -37 83 -102q0 -46 -39 -75t-93 -29q-51 0 -91.5 26t-40.5 70q0 33 24.5 54.5t56.5 31.5q-74 36 -74 95q0 42 34.5 70t90.5 28q50 0 84 -23.5t34 -63.5
q0 -58 -69 -82zM410 287q-1 -27 23 -45t72 -34q45 27 45 67q0 31 -19 50.5t-51 19.5q-30 0 -49.5 -16t-20.5 -42zM480 15q33 0 54.5 18.5t21.5 47.5q0 50 -94 80l-9 3q-53 -26 -53 -72q0 -32 22.5 -54.5t57.5 -22.5z" />
    <glyph glyph-name="threeeighths" unicode="&#x215c;" horiz-adv-x="734" 
d="M606 754h44l-547 -792h-44zM128 380q28 0 45.5 20.5t17.5 51.5q0 37 -27.5 61t-68.5 29v12q40 5 67 29t27 60q0 29 -17 48.5t-44 19.5q-45 0 -93 -75q-3 -4 -4 1l-11 69q59 27 108 27q48 0 86 -24t38 -68q0 -35 -26 -60t-69 -32q46 -7 71.5 -32.5t25.5 -61.5
q0 -47 -39 -72t-88 -25q-52 0 -110 28l12 71q2 7 5 2q46 -79 94 -79zM637 198q83 -37 83 -102q0 -46 -39 -75t-93 -29q-51 0 -91.5 26t-40.5 70q0 33 24.5 54.5t56.5 31.5q-74 36 -74 95q0 42 34.5 70t90.5 28q50 0 84 -23.5t34 -63.5q0 -58 -69 -82zM517 287q-1 -27 23 -45
t72 -34q45 27 45 67q0 31 -19 50.5t-51 19.5q-30 0 -49.5 -16t-20.5 -42zM587 15q33 0 54.5 18.5t21.5 47.5q0 50 -94 80l-9 3q-53 -26 -53 -72q0 -32 22.5 -54.5t57.5 -22.5z" />
    <glyph glyph-name="fiveeighths" unicode="&#x215d;" horiz-adv-x="733" 
d="M605 754h44l-547 -792h-44zM121 380q30 0 49 24.5t19 66.5q0 41 -20.5 65.5t-57.5 25.5q-38 2 -89 -27l19 193h108q69 0 97 19l-14 -71h-172l-10 -105q41 23 83 23q55 0 86.5 -33.5t31.5 -82.5q0 -54 -36.5 -87t-93.5 -33q-53 0 -104 32l7 70h3q45 -80 94 -80zM636 198
q83 -37 83 -102q0 -46 -39 -75t-93 -29q-51 0 -91.5 26t-40.5 70q0 33 24.5 54.5t56.5 31.5q-74 36 -74 95q0 42 34.5 70t90.5 28q50 0 84 -23.5t34 -63.5q0 -58 -69 -82zM516 287q-1 -27 23 -45t72 -34q45 27 45 67q0 31 -19 50.5t-51 19.5q-30 0 -49.5 -16t-20.5 -42z
M586 15q33 0 54.5 18.5t21.5 47.5q0 50 -94 80l-9 3q-53 -26 -53 -72q0 -32 22.5 -54.5t57.5 -22.5z" />
    <glyph glyph-name="seveneighths" unicode="&#x215e;" horiz-adv-x="744" 
d="M616 754h44l-547 -792h-44zM135 364h-79q11 36 65.5 141t97.5 170h-109q-54 0 -101 -25l25 78h236q-84 -146 -122 -294q-13 -52 -13 -70zM647 198q83 -37 83 -102q0 -46 -39 -75t-93 -29q-51 0 -91.5 26t-40.5 70q0 33 24.5 54.5t56.5 31.5q-74 36 -74 95q0 42 34.5 70
t90.5 28q50 0 84 -23.5t34 -63.5q0 -58 -69 -82zM527 287q-1 -27 23 -45t72 -34q45 27 45 67q0 31 -19 50.5t-51 19.5q-30 0 -49.5 -16t-20.5 -42zM597 15q33 0 54.5 18.5t21.5 47.5q0 50 -94 80l-9 3q-53 -26 -53 -72q0 -32 22.5 -54.5t57.5 -22.5z" />
    <glyph glyph-name="arrowleft" unicode="&#x2190;" horiz-adv-x="689" 
d="M323 87l-229 229l229 229l27 -27l-183 -182h418v-40h-418l183 -182z" />
    <glyph glyph-name="arrowup" unicode="&#x2191;" horiz-adv-x="617" 
d="M289 71v418l-182 -183l-27 27l229 229l228 -229l-27 -27l-181 183v-418h-40z" />
    <glyph glyph-name="arrowright" unicode="&#x2192;" horiz-adv-x="689" 
d="M366 87l-27 27l183 182h-418v40h418l-183 182l27 27l229 -229z" />
    <glyph glyph-name="arrowdown" unicode="&#x2193;" horiz-adv-x="612" 
d="M295 71l-229 229l27 27l182 -183v418h40v-418l181 183l27 -27z" />
    <glyph glyph-name="arrowboth" unicode="&#x2194;" horiz-adv-x="943" 
d="M620 545l229 -229l-229 -229l-27 27l183 182h-609l183 -182l-27 -27l-229 229l229 229l27 -27l-183 -182h609l-183 182z" />
    <glyph glyph-name="arrowupdn" unicode="&#x2195;" horiz-adv-x="621" 
d="M330 42l182 183l27 -27l-229 -229l-228 229l27 27l181 -183v626l-181 -183l-27 27l228 229l229 -229l-27 -27l-182 183v-626z" />
    <glyph glyph-name="uni2196" unicode="&#x2196;" horiz-adv-x="570" 
d="M447 135l-296 296l2 -258h-38l-1 324l324 -1v-38l-258 1l296 -295z" />
    <glyph glyph-name="uni2197" unicode="&#x2197;" horiz-adv-x="570" 
d="M122 136l-28 28l296 296l-258 -1l-1 38h324v-324l-38 1l1 258z" />
    <glyph glyph-name="uni2198" unicode="&#x2198;" horiz-adv-x="570" 
d="M267 136l-135 17l159 20l-84 183l-99 126l198 -169l111 46l18 100l20 -189z" />
    <glyph glyph-name="uni2199" unicode="&#x2199;" horiz-adv-x="570" 
d="M115 135v324l38 -1l-1 -258l295 296l29 -28l-296 -296l258 1v-37z" />
    <glyph glyph-name="minus" unicode="&#x2212;" horiz-adv-x="534" 
d="M41 311v40h450v-40h-450z" />
    <glyph glyph-name="notequal" unicode="&#x2260;" horiz-adv-x="552" 
d="M501 387h-155l-92 -113h247v-40h-279l-59 -73h-47l59 73h-124v40h156l92 113h-248v39h279l59 73h47l-59 -73h124v-39z" />
    <glyph glyph-name="lessequal" unicode="&#x2264;" horiz-adv-x="442" 
d="M389 137l-361 216v34l361 216v-46l-312 -187l312 -187v-46zM34 60v39h361v-39h-361z" />
    <glyph glyph-name="greaterequal" unicode="&#x2265;" horiz-adv-x="443" 
d="M54 137v46l313 187l-313 187v46l361 -216v-34zM48 60v39h360v-39h-360z" />
    <glyph glyph-name="lozenge" unicode="&#x25ca;" horiz-adv-x="562" 
d="M294 640l194 -320l-194 -320h-26l-194 320l194 320h26zM281 51l163 269l-163 269l-163 -269z" />
    <glyph glyph-name="g.ss01" horiz-adv-x="507" 
d="M94 454q65 50 150 50q62 0 118 -28q40 74 118 74q12 0 26 -2l-13 -88l-2 -1q-28 17 -59 17q-25 0 -51 -11q81 -55 81 -145v-2q0 -86 -66.5 -137t-151.5 -51q-38 0 -82 13q-56 -24 -56 -53q0 -36 123 -36h97q81 0 119 -31.5t38 -83.5q0 -65 -50 -99t-121 -34q-12 0 -24 1
l-1 28q9 -1 18 -1q47 0 82.5 20t35.5 56q0 30 -30.5 41t-92.5 11h-103q-81 0 -122.5 19.5t-41.5 67.5q0 75 98 107q-47 24 -75 65.5t-28 96.5q0 85 66 136zM166 208q28 -42 78 -42t79.5 42t29.5 110t-29.5 109.5t-79.5 41.5t-78.5 -41.5t-28.5 -109.5t29 -110z" />
    <glyph glyph-name="E_L" horiz-adv-x="951" 
d="M44 3q21 92 21 142v430q0 50 -21 142v3h484v-132h-4q-4 2 -37.5 29t-69.5 46.5t-69 19.5h-173v-297h102q25 0 54 5.5t48 11.5t41 13.5t26 8.5h4v-108h-4l-25 9q-23 7 -42 13t-48 11t-54 5h-102v-318h176q33 0 69.5 20t69 46t37.5 29h4v-132h-487v3zM592 222q16 84 16 117
v263q0 20 -3 41.5t-8 46t-5 27.5v3h118v-3q-17 -71 -17 -115v-347h104q46 0 119 65h3v-101h-327v3z" />
    <glyph glyph-name="L_A" horiz-adv-x="864" 
d="M44 720h153v-3q-22 -97 -22 -142v-538h146q26 0 55.5 15t50 32t42.5 38t27 25h5v-147h-457v3q21 92 21 142v430q0 50 -21 142v3zM370 226v3q22 36 50 114l109 298q5 16 5 32q0 22 -10 45v2h112l149 -393q28 -71 47 -98v-3h-134v3q4 18 4 37q0 39 -17 83l-15 42h-195
l-7 -19q-15 -43 -15 -83q0 -31 9 -60v-3h-92zM487 425h170l-87 230z" />
    <glyph glyph-name="L_E" horiz-adv-x="796" 
d="M44 720h153v-3q-22 -97 -22 -142v-538h146q26 0 55.5 15t50 32t42.5 38t27 25h5v-147h-457v3q21 92 21 142v430q0 50 -21 142v3zM419 718v2h342v-98h-3q-3 2 -25 20.5t-45.5 30.5t-46.5 12h-122v-192h73q40 0 112 24h3v-79h-3q-69 23 -112 23h-73v-207h125q23 0 46.5 13
t44.5 31t25 20h3l1 -98h-344v2q14 60 14 101v294q0 37 -15 101z" />
    <glyph glyph-name="N_N" horiz-adv-x="1183" 
d="M1140 720v-5q-1 -2 -6 -18t-8.5 -27t-9 -31.5t-8.5 -37.5t-5.5 -39t-2.5 -42v-520h-72l-414 605v-605h-72l-414 604v-404q0 -20 2.5 -42t5.5 -39t8.5 -37.5t9 -31.5t8.5 -27t6 -18v-5h-123v5q0 1 7 22t11.5 36t10.5 39.5t9 49.5t3 48v375q0 17 -3 35t-8.5 36t-9.5 28
t-11 26l-7 17v3h138l387 -569v369q0 20 -2.5 42t-5.5 39t-8.5 37.5t-9 31.5t-8.5 27t-6 18v5h139l387 -568v368q0 20 -2.5 42t-5.5 39t-8.5 37.5t-9 31.5t-8.5 27t-6 18v5h122z" />
    <glyph glyph-name="N_o" horiz-adv-x="1248" 
d="M951 730q105 0 178 -78t73 -201t-73 -201.5t-178 -78.5t-177.5 78.5t-72.5 201.5t72.5 201t177.5 78zM654 720v-5q-1 -2 -6 -18t-8.5 -27t-9 -31.5t-8.5 -37.5t-5.5 -39t-2.5 -42v-520h-72l-414 604v-404q0 -20 2.5 -42t5.5 -39t8.5 -37.5t9 -31.5t8.5 -27t6 -18v-5h-123
v5q0 1 7 22t11.5 36t10.5 39.5t9 49.5t3 48v375q0 17 -3 35t-8.5 36t-9.5 28t-11 26l-7 17v3h138l387 -569v369q0 20 -2.5 42t-5.5 39t-8.5 37.5t-9 31.5t-8.5 27t-6 18v5h122zM951 202q67 0 109.5 75t42.5 174t-42.5 173.5t-109.5 74.5q-66 0 -108.5 -74.5t-42.5 -174.5
t42 -174t109 -74zM950 92q20 0 35 -14.5t15 -34.5t-15 -34.5t-35 -14.5t-35 14.5t-15 34.5t15 34.5t35 14.5z" />
    <glyph glyph-name="O_O" horiz-adv-x="1331" 
d="M969 730q138 0 235 -104t97 -263q0 -160 -97 -267.5t-235 -107.5q-101 0 -183 60t-121 160q-39 -100 -121 -160t-182 -60q-138 0 -235 107.5t-97 267.5q0 159 96.5 263t235.5 104q100 0 182 -57.5t121 -155.5q39 98 121 155.5t183 57.5zM362 26q62 0 110.5 50t73 126
t24.5 162q0 131 -57.5 229.5t-150.5 98.5q-63 0 -111.5 -48.5t-72.5 -123t-24 -158.5q0 -85 24 -161t72.5 -125.5t111.5 -49.5zM969 26q62 0 110.5 50t73 126t24.5 162q0 131 -57.5 229.5t-150.5 98.5q-63 0 -111.5 -48.5t-72.5 -123t-24 -158.5q0 -85 24 -161t72.5 -125.5
t111.5 -49.5z" />
    <glyph glyph-name="T_T" horiz-adv-x="1045" 
d="M1028 720v-147h-4l-15.5 15.5t-23.5 23t-27 23.5t-32 23t-33.5 15.5t-35.5 6.5h-70v-535q0 -50 21 -142v-3h-153v3q22 97 22 142v535h-308v-535q0 -45 22 -142v-3h-153v3q21 92 21 142v535h-71q-17 0 -35.5 -6.5t-33.5 -15.5t-32 -23t-27 -23.5t-23.5 -23l-15.5 -15.5h-4
v147h1011z" />
    <glyph glyph-name="f_u" horiz-adv-x="836" 
d="M782 145q0 -50 21 -142v-3h-106q-8 24 -15 86q-69 -94 -163 -94q-69 0 -116.5 42.5t-47.5 128.5v190q0 44 -13 107h-159v-315q0 -21 3 -45t6 -40t7 -34.5t5 -22.5v-3h-146v3q22 97 22 142v315h-78v38h78v41q0 108 44 154.5t115 46.5q59 0 130 -29v-99q-40 46 -69.5 70
t-55.5 24q-36 0 -48.5 -40t-12.5 -123v-45h276v-323q0 -57 29 -85.5t73 -28.5q60 0 118 52q0 6 -0.5 16.5t-0.5 14.5v209q0 50 -21 142v3h125v-353z" />
    <glyph glyph-name="t_i" horiz-adv-x="602" 
d="M481 605q-29 0 -50.5 20.5t-21.5 49.5q0 30 21 50.5t51 20.5t51 -20.5t21 -50.5q0 -29 -21.5 -49.5t-50.5 -20.5zM537 145q0 -21 3 -45t6 -40t7 -34.5t5 -22.5v-3h-145v3q21 92 21 142l1 208q0 49 -14 107h-232l1 -314q0 -84 72 -84q44 0 89 29q-20 -44 -57.5 -71.5
t-86.5 -27.5q-58 0 -89.5 38t-31.5 103v327h-73v30q62 20 100 58.5t66 96.5h10v-147h348v-353z" />
    <glyph glyph-name="t_t" horiz-adv-x="725" 
d="M623 62q45 0 88 29q-20 -44 -57 -71.5t-86 -27.5q-58 0 -90 38t-32 103v327h-257l1 -314q0 -84 72 -84q44 0 89 29q-20 -44 -57.5 -71.5t-86.5 -27.5q-58 0 -89.5 38t-31.5 103v327h-73v30q62 20 100 58.5t66 96.5h10v-147h206q92 38 145 147h10v-147h139v-38h-139v-314
q0 -84 73 -84z" />
    <glyph glyph-name="t_u" horiz-adv-x="894" 
d="M840 145q0 -21 3 -45t6 -40t7 -34.5t5 -22.5v-3h-105q-8 26 -15 87q-69 -95 -164 -95q-69 0 -116 42.5t-47 128.5v190q0 49 -14 107h-211l1 -314q0 -84 72 -84q44 0 89 29q-20 -44 -57.5 -71.5t-86.5 -27.5q-58 0 -89.5 38t-31.5 103v327h-73v30q62 20 100 58.5t66 96.5
h10v-147h328v-323q0 -57 29.5 -85.5t73.5 -28.5q59 0 118 53q0 6 -0.5 16t-0.5 14v209q0 45 -22 142v3h125v-353z" />
    <glyph glyph-name="t_w" horiz-adv-x="1066" 
d="M1056 498v-4q-33 -52 -51 -105l-131 -389h-74l-111 310l-107 -310h-70l-130 364q-16 43 -42 96h-151l1 -314q0 -84 72 -84q44 0 89 29q-20 -44 -57.5 -71.5t-86.5 -27.5q-58 0 -89.5 38t-31.5 103v327h-73v30q62 20 100 58.5t66 96.5h10v-147h293v-3q-13 -59 14 -138
l85 -254l88 263q-30 82 -62 129v3h163v-3q-13 -59 14 -138l84 -254l84 246q14 51 13 87t-10 58v4h101z" />
    <glyph glyph-name="t_y" horiz-adv-x="859" 
d="M847 498q-43 -76 -57 -108l-196 -491q-28 -69 -75.5 -89t-117.5 1l21 109q104 -89 141 3l25 63l-167 381q-22 49 -51 93h-181l1 -314q0 -84 72 -84q44 0 89 29q-20 -44 -57.5 -71.5t-86.5 -27.5q-58 0 -89.5 38t-31.5 103v327h-73v30q62 20 100 58.5t66 96.5h10v-147h338
v-3q-9 -21 -9.5 -51.5t14.5 -74.5l109 -250l99 248q14 46 12.5 76.5t-10.5 51.5v3h105z" />
    <glyph glyph-name="zero.dnom" horiz-adv-x="320" 
d="M160 -7q-62 0 -103.5 53.5t-41.5 135.5q0 80 41.5 132t103.5 52t103.5 -52t41.5 -132q0 -82 -41.5 -135.5t-103.5 -53.5zM160 17q39 0 59 47.5t20 118.5q0 68 -20 114t-59 46t-59 -46.5t-20 -114.5q0 -72 19.5 -118.5t59.5 -46.5z" />
    <glyph glyph-name="one.dnom" horiz-adv-x="160" 
d="M128 71q0 -31 11 -71v-2h-80v2q10 55 10 71v232h-58v14q72 21 117 59v-305z" />
    <glyph glyph-name="two.dnom" horiz-adv-x="271" 
d="M249 71q4 3 4 -2l-11 -70h-232q16 21 46.5 61t43.5 58t33.5 48t29.5 47t16 38t7 38q0 23 -12.5 39.5t-36.5 16.5q-46 0 -97 -80q-2 -1 -4 2l-12 70q64 30 115 30q47 0 78.5 -23.5t31.5 -63.5q0 -53 -72 -125l-107 -109h82q61 0 97 25z" />
    <glyph glyph-name="three.dnom" horiz-adv-x="267" 
d="M127 -8q-52 0 -110 28l12 71q2 7 5 2q46 -79 94 -79q28 0 45.5 20.5t17.5 51.5q0 37 -27.5 61t-68.5 29v12q40 5 67 29t27 60q0 29 -17 48.5t-44 19.5q-45 0 -93 -75q-3 -4 -4 1l-11 69q58 27 108 27q48 0 86 -24t38 -68q0 -35 -26 -60t-69 -32q46 -7 71.5 -32.5
t25.5 -61.5q0 -47 -39 -72t-88 -25z" />
    <glyph glyph-name="four.dnom" horiz-adv-x="286" 
d="M282 81h-52v-9q0 -36 11 -74h-82q0 2 3.5 16t6 29t2.5 29v9h-169l175 281h53v-257h52v-24zM44 105h127v201z" />
    <glyph glyph-name="five.dnom" horiz-adv-x="266" 
d="M133 228q55 0 86.5 -33.5t31.5 -82.5q0 -54 -36.5 -87t-93.5 -33q-53 0 -104 32l7 70h3q45 -80 94 -80q30 0 49 24.5t19 66.5q0 41 -20.5 65.5t-57.5 25.5q-38 2 -89 -27l19 193h108q69 0 97 19l-14 -71h-172l-10 -105q41 23 83 23z" />
    <glyph glyph-name="six.dnom" horiz-adv-x="298" 
d="M155 -8q-64 0 -101 54.5t-37 135.5q0 80 36 132.5t101 52.5q50 0 110 -27l-9 -70q0 -5 -4 -1q-48 76 -97 76q-74 0 -72 -167q33 47 92 47q49 0 79.5 -32.5t30.5 -80.5q0 -51 -37.5 -85.5t-91.5 -34.5zM155 14q29 0 48 25t19 63q0 39 -18.5 66t-50.5 27q-43 0 -70 -45
q11 -136 72 -136z" />
    <glyph glyph-name="seven.dnom" horiz-adv-x="277" 
d="M34 362h236q-84 -146 -122 -294q-13 -52 -13 -70h-79q11 36 65.5 141t97.5 170h-109q-54 0 -101 -25z" />
    <glyph glyph-name="eight.dnom" horiz-adv-x="292" 
d="M195 198q83 -37 83 -102q0 -46 -39 -75t-93 -29q-51 0 -91.5 26t-40.5 70q0 33 24.5 54.5t56.5 31.5q-74 36 -74 95q0 42 34.5 70t90.5 28q50 0 84 -23.5t34 -63.5q0 -58 -69 -82zM75 287q-1 -27 23 -45t72 -34q45 27 45 67q0 31 -19 50.5t-51 19.5q-30 0 -49.5 -16
t-20.5 -42zM145 15q33 0 54.5 18.5t21.5 47.5q0 50 -94 80l-9 3q-53 -26 -53 -72q0 -32 22.5 -54.5t57.5 -22.5z" />
    <glyph glyph-name="nine.dnom" horiz-adv-x="301" 
d="M147 -8q-52 0 -110 28l9 69q0 2 2 2.5t3 -1.5q48 -76 96 -76q39 0 56.5 46t15.5 121q-33 -47 -92 -47q-49 0 -79.5 33t-30.5 81q0 51 37.5 85t91.5 34q64 0 101 -54.5t37 -134.5t-36.5 -133t-100.5 -53zM147 165q42 -2 70 44q-11 136 -71 136q-29 0 -48 -24.5t-19 -62.5
q0 -40 18 -67t50 -26z" />
    <glyph glyph-name="zero.numr" horiz-adv-x="320" 
d="M160 359q-62 0 -103.5 53.5t-41.5 135.5q0 80 41.5 132t103.5 52t103.5 -52t41.5 -132q0 -82 -41.5 -135.5t-103.5 -53.5zM160 383q39 0 59 47.5t20 118.5q0 68 -20 114t-59 46t-59 -46.5t-20 -114.5q0 -72 19.5 -118.5t59.5 -46.5z" />
    <glyph glyph-name="one.numr" horiz-adv-x="160" 
d="M128 437q0 -31 11 -71v-2h-80v2q10 55 10 71v232h-58v14q72 21 117 59v-305z" />
    <glyph glyph-name="two.numr" horiz-adv-x="271" 
d="M249 437q4 3 4 -2l-11 -70h-232q16 21 46.5 61t43.5 58t33.5 48t29.5 47t16 38t7 38q0 23 -12.5 39.5t-36.5 16.5q-46 0 -97 -80q-2 -1 -4 2l-12 70q64 30 115 30q47 0 78.5 -23.5t31.5 -63.5q0 -53 -72 -125l-107 -109h82q61 0 97 25z" />
    <glyph glyph-name="three.numr" horiz-adv-x="267" 
d="M127 358q-52 0 -110 28l12 71q2 7 5 2q46 -79 94 -79q28 0 45.5 20.5t17.5 51.5q0 37 -27.5 61t-68.5 29v12q40 5 67 29t27 60q0 29 -17 48.5t-44 19.5q-45 0 -93 -75q-3 -4 -4 1l-11 69q59 27 108 27q48 0 86 -24t38 -68q0 -35 -26 -60t-69 -32q46 -7 71.5 -32.5
t25.5 -61.5q0 -47 -39 -72t-88 -25z" />
    <glyph glyph-name="four.numr" horiz-adv-x="286" 
d="M282 447h-52v-9q0 -36 11 -74h-82q0 2 3.5 16t6 29t2.5 29v9h-169l175 281h53v-257h52v-24zM44 471h127v201z" />
    <glyph glyph-name="five.numr" horiz-adv-x="266" 
d="M133 594q55 0 86.5 -33.5t31.5 -82.5q0 -54 -36.5 -87t-93.5 -33q-53 0 -104 32l7 70h3q45 -80 94 -80q30 0 49 24.5t19 66.5q0 41 -20.5 65.5t-57.5 25.5q-38 2 -89 -27l19 193h108q69 0 97 19l-14 -71h-172l-10 -105q41 23 83 23z" />
    <glyph glyph-name="six.numr" horiz-adv-x="298" 
d="M155 358q-64 0 -101 54.5t-37 135.5q0 80 36 132.5t101 52.5q50 0 110 -27l-9 -70q0 -5 -4 -1q-48 76 -97 76q-74 0 -72 -167q33 47 92 47q49 0 79.5 -32.5t30.5 -80.5q0 -51 -37.5 -85.5t-91.5 -34.5zM155 380q29 0 48 25t19 63q0 39 -18.5 66t-50.5 27q-43 0 -70 -45
q11 -136 72 -136z" />
    <glyph glyph-name="seven.numr" horiz-adv-x="277" 
d="M34 728h236q-84 -146 -122 -294q-13 -52 -13 -70h-79q11 36 65.5 141t97.5 170h-109q-54 0 -101 -25z" />
    <glyph glyph-name="eight.numr" horiz-adv-x="292" 
d="M195 564q83 -37 83 -102q0 -46 -39 -75t-93 -29q-51 0 -91.5 26t-40.5 70q0 33 24.5 54.5t56.5 31.5q-74 36 -74 95q0 42 34.5 70t90.5 28q50 0 84 -23.5t34 -63.5q0 -58 -69 -82zM75 653q-1 -27 23 -45t72 -34q45 27 45 67q0 31 -19 50.5t-51 19.5q-30 0 -49.5 -16
t-20.5 -42zM145 381q33 0 54.5 18.5t21.5 47.5q0 50 -94 80l-9 3q-53 -26 -53 -72q0 -32 22.5 -54.5t57.5 -22.5z" />
    <glyph glyph-name="nine.numr" horiz-adv-x="301" 
d="M147 358q-52 0 -110 28l9 69q0 2 2 2.5t3 -1.5q48 -76 96 -76q39 0 56.5 46t15.5 121q-33 -47 -92 -47q-49 0 -79.5 33t-30.5 81q0 51 37.5 85t91.5 34q64 0 101 -54.5t37 -134.5t-36.5 -133t-100.5 -53zM147 531q42 -2 70 44q-11 136 -71 136q-29 0 -48 -24.5t-19 -62.5
q0 -40 18 -67t50 -26z" />
    <glyph glyph-name="parenleft.case" horiz-adv-x="291" 
d="M273 -106q-83 50 -148.5 178t-65.5 285t65.5 282.5t148.5 175.5l4 -7q-69 -79 -97.5 -206t-28.5 -245q0 -119 28.5 -248t97.5 -208z" />
    <glyph glyph-name="parenright.case" horiz-adv-x="291" 
d="M18 -106l-4 7q69 79 97.5 208t28.5 248q0 118 -28.5 245t-97.5 206l4 7q83 -50 148.5 -175.5t65.5 -282.5t-65.5 -285t-148.5 -178z" />
    <glyph glyph-name="braceleft.case" horiz-adv-x="310" 
d="M286 781q-54 0 -88 -23.5t-34 -65.5q0 -31 29 -109t29 -114q0 -84 -100 -115q100 -31 100 -115q0 -34 -29 -113t-29 -110q0 -42 34 -65.5t88 -23.5v-16q-19 -1 -56 -1q-66 0 -108.5 33.5t-42.5 87.5q0 29 24.5 108t24.5 119q0 43 -19.5 62t-54.5 24v20q74 11 74 88
q0 40 -24.5 118t-24.5 107q0 54 42.5 87.5t108.5 33.5q40 0 56 -1v-16z" />
    <glyph glyph-name="braceright.case" horiz-adv-x="310" 
d="M256 344q-35 -5 -54.5 -24t-19.5 -62q0 -40 24.5 -119t24.5 -108q0 -54 -42.5 -87.5t-108.5 -33.5q-37 0 -56 1v16q54 0 88 23.5t34 65.5q0 31 -29 110t-29 113q0 84 100 115q-100 31 -100 115q0 36 29 114t29 109q0 42 -34 65.5t-88 23.5v16q16 1 56 1q66 0 108.5 -33.5
t42.5 -87.5q0 -29 -24.5 -107t-24.5 -118q0 -77 74 -88v-20z" />
    <glyph glyph-name="bracketleft.case" horiz-adv-x="281" 
d="M66 -91v889h201v-12q-77 -17 -90 -25q-22 -14 -25 -59q-1 -16 -1 -49v-599q0 -44 1.5 -63t13.5 -34t27.5 -19.5t54.5 -12.5q12 -3 19 -4v-12h-201z" />
    <glyph glyph-name="bracketright.case" horiz-adv-x="281" 
d="M211 -91h-201v12q76 17 90 25q22 14 25 61q1 16 1 47v599q0 77 -12 95q-12 17 -63 29q-6 1 -20 4l-21 5v12h201v-889z" />
    <glyph glyph-name="space.001" horiz-adv-x="228" 
 />
    <glyph glyph-name="newGlyph" horiz-adv-x="608" 
 />
    <glyph glyph-name="newGlyph.001" horiz-adv-x="608" 
 />
    <glyph glyph-name="newGlyph.002" horiz-adv-x="608" 
 />
    <glyph glyph-name="newGlyph.003" horiz-adv-x="608" 
 />
    <glyph glyph-name="newGlyph.004" horiz-adv-x="608" 
 />
    <glyph glyph-name="newGlyph.005" horiz-adv-x="608" 
 />
    </font>
</defs>
</svg>
